<?xml version="1.0" encoding="utf-8"?>
<!-- Generator: Adobe Illustrator 17.0.0, SVG Export Plug-In . SVG Version: 6.00 Build 0)  -->
<!DOCTYPE svg PUBLIC "-//W3C//DTD SVG 1.1//EN" "http://www.w3.org/Graphics/SVG/1.1/DTD/svg11.dtd">
<svg version="1.1" id="Layer_1" xmlns="http://www.w3.org/2000/svg" xmlns:xlink="http://www.w3.org/1999/xlink" x="0px" y="0px"
	 width="210px" height="62px" viewBox="0 0 210 62" enable-background="new 0 0 210 62" xml:space="preserve">
<g id="Слой_x0020_1">
	<g id="_971844448">
		<path fill="#123669" d="M14.717,59.175c0.015,0.107-0.046,0.199-0.153,0.244c-0.122,0.046-0.336,0.061-0.641,0.061
			c-0.183,0-0.32,0-0.442,0c-0.107,0-0.183-0.015-0.244-0.031c-0.061-0.015-0.107-0.046-0.122-0.092
			c-0.031-0.031-0.031-0.076-0.046-0.137l-0.366-3.375c-0.015-0.122-0.031-0.26-0.046-0.412c0-0.153-0.015-0.305-0.031-0.458
			s-0.015-0.305-0.031-0.458c-0.015-0.153-0.015-0.29-0.031-0.412v-0.183c-0.031,0.137-0.061,0.275-0.107,0.428
			c-0.046,0.137-0.076,0.29-0.122,0.458c-0.061,0.153-0.092,0.305-0.137,0.458s-0.092,0.29-0.122,0.412L10.98,59.16
			c-0.031,0.061-0.046,0.107-0.092,0.153c-0.031,0.046-0.092,0.076-0.153,0.107c-0.076,0.015-0.153,0.046-0.259,0.046
			c-0.107,0.015-0.244,0.015-0.397,0.015c-0.153,0-0.275,0-0.381-0.015c-0.092,0-0.183-0.031-0.244-0.046
			c-0.076-0.031-0.122-0.061-0.168-0.107c-0.031-0.046-0.061-0.092-0.076-0.153l-1.083-3.482c-0.031-0.122-0.076-0.26-0.122-0.412
			c-0.046-0.153-0.076-0.305-0.122-0.458s-0.092-0.305-0.137-0.458c-0.031-0.153-0.061-0.29-0.092-0.428v0.183
			c-0.015,0.122-0.015,0.26-0.031,0.412c0,0.153-0.015,0.305-0.031,0.458c-0.015,0.153-0.031,0.305-0.046,0.458
			c-0.015,0.153-0.015,0.29-0.031,0.412L7.153,59.19c0,0.061-0.015,0.107-0.046,0.153c-0.015,0.031-0.061,0.061-0.122,0.092
			C6.908,59.45,6.817,59.465,6.71,59.48c-0.122,0-0.259,0-0.442,0c-0.168,0-0.305,0-0.397,0c-0.107-0.015-0.183-0.031-0.229-0.061
			c-0.061-0.031-0.092-0.061-0.107-0.092c-0.015-0.046-0.031-0.092-0.015-0.153l0.61-5.895c0.031-0.199,0.092-0.351,0.198-0.458
			c0.107-0.107,0.275-0.153,0.503-0.153h0.885c0.198,0,0.351,0.015,0.488,0.046c0.122,0.031,0.244,0.076,0.336,0.137
			c0.107,0.076,0.183,0.168,0.259,0.29c0.061,0.122,0.122,0.29,0.168,0.473l0.702,2.153c0.046,0.137,0.092,0.29,0.137,0.443
			c0.031,0.153,0.076,0.305,0.122,0.458s0.076,0.305,0.122,0.443c0.031,0.137,0.061,0.275,0.092,0.412l0,0
			c0.031-0.137,0.061-0.275,0.107-0.428c0.031-0.153,0.076-0.305,0.107-0.458c0.046-0.153,0.092-0.305,0.137-0.458
			s0.076-0.29,0.122-0.428l0.702-2.138c0.046-0.183,0.107-0.321,0.153-0.443c0.061-0.122,0.137-0.214,0.229-0.29
			c0.076-0.076,0.198-0.122,0.32-0.168c0.137-0.031,0.305-0.046,0.488-0.046h0.885c0.229,0,0.397,0.046,0.503,0.153
			c0.107,0.107,0.183,0.26,0.198,0.458L14.717,59.175z M25.621,59.205c0,0.046-0.015,0.092-0.046,0.122
			c-0.031,0.031-0.076,0.061-0.137,0.092c-0.076,0.015-0.153,0.046-0.275,0.046c-0.107,0.015-0.259,0.015-0.427,0.015
			c-0.183,0-0.32,0-0.427-0.015c-0.122,0-0.214-0.031-0.275-0.046c-0.076-0.031-0.122-0.061-0.153-0.092
			c-0.031-0.031-0.031-0.076-0.031-0.122v-6.292c0-0.046,0-0.092,0.031-0.122c0.031-0.046,0.076-0.076,0.153-0.092
			c0.061-0.031,0.153-0.046,0.275-0.061c0.107,0,0.244-0.015,0.427-0.015c0.168,0,0.32,0.015,0.427,0.015
			c0.122,0.015,0.198,0.031,0.275,0.061c0.061,0.015,0.107,0.046,0.137,0.092c0.031,0.031,0.046,0.076,0.046,0.122V59.205z
			 M18.911,54.853c0.153-0.015,0.32-0.015,0.488-0.031c0.168-0.015,0.351-0.015,0.549-0.015c0.519,0,0.961,0.046,1.327,0.153
			c0.381,0.107,0.686,0.26,0.93,0.458c0.244,0.199,0.427,0.443,0.549,0.718c0.122,0.275,0.183,0.596,0.183,0.962
			c0,0.367-0.061,0.702-0.198,1.008s-0.336,0.58-0.61,0.794c-0.275,0.214-0.625,0.397-1.037,0.504
			c-0.427,0.122-0.93,0.183-1.51,0.183c-0.153,0-0.32,0-0.473,0c-0.168,0-0.32-0.015-0.473-0.015s-0.29-0.015-0.442-0.031
			c-0.153,0-0.29-0.015-0.412-0.031c-0.229-0.031-0.397-0.092-0.488-0.199c-0.107-0.122-0.153-0.29-0.153-0.519v-5.879
			c0-0.046,0.015-0.092,0.046-0.122c0.015-0.046,0.061-0.076,0.137-0.092c0.061-0.031,0.153-0.046,0.259-0.061
			c0.107,0,0.244-0.015,0.397-0.015c0.336,0,0.58,0.031,0.717,0.076c0.137,0.046,0.214,0.107,0.214,0.214V54.853z M21.122,57.19
			c0-0.168-0.031-0.305-0.076-0.443c-0.046-0.122-0.122-0.244-0.244-0.336c-0.107-0.092-0.244-0.153-0.427-0.199
			c-0.183-0.046-0.397-0.076-0.656-0.076c-0.153,0-0.305,0-0.427,0.015c-0.137,0-0.259,0.015-0.381,0.015v2.046
			c0.137,0.015,0.275,0.031,0.397,0.031c0.137,0.015,0.29,0.015,0.458,0.015c0.473,0,0.808-0.092,1.022-0.29
			C21.015,57.785,21.122,57.526,21.122,57.19z M38.431,59.205c0,0.046-0.015,0.092-0.046,0.122
			c-0.015,0.031-0.061,0.061-0.137,0.092c-0.061,0.015-0.153,0.046-0.275,0.046c-0.107,0.015-0.259,0.015-0.427,0.015
			s-0.32,0-0.427-0.015c-0.122,0-0.214-0.031-0.275-0.046c-0.076-0.031-0.122-0.061-0.153-0.092
			c-0.015-0.031-0.031-0.076-0.031-0.122V54.12h-1.266c-0.076,0.733-0.168,1.39-0.29,1.939c-0.107,0.565-0.229,1.038-0.381,1.451
			c-0.137,0.397-0.305,0.733-0.488,0.993c-0.168,0.275-0.366,0.489-0.58,0.641c-0.214,0.153-0.442,0.26-0.686,0.336
			c-0.244,0.061-0.503,0.092-0.778,0.092c-0.061,0-0.122,0-0.168-0.031c-0.03-0.015-0.061-0.046-0.092-0.107
			c-0.015-0.046-0.046-0.122-0.046-0.229c-0.015-0.107-0.015-0.244-0.015-0.412c0-0.183,0-0.321,0-0.428
			c0.015-0.107,0.031-0.183,0.046-0.244s0.046-0.107,0.076-0.122c0.03-0.015,0.076-0.031,0.122-0.031
			c0.137,0,0.259-0.031,0.381-0.076c0.122-0.061,0.229-0.153,0.336-0.29s0.214-0.321,0.305-0.55c0.092-0.229,0.183-0.519,0.259-0.87
			s0.153-0.764,0.229-1.237c0.076-0.489,0.137-1.054,0.198-1.695c0.015-0.183,0.061-0.336,0.137-0.428
			c0.061-0.092,0.183-0.137,0.351-0.137h3.63c0.168,0,0.29,0.046,0.366,0.137c0.092,0.092,0.122,0.244,0.122,0.428V59.205z
			 M50.647,55.983c0,0.519-0.076,1.008-0.229,1.466c-0.153,0.443-0.366,0.825-0.641,1.145c-0.29,0.321-0.641,0.565-1.052,0.748
			c-0.412,0.168-0.885,0.26-1.418,0.26c-0.519,0-0.961-0.061-1.342-0.183c-0.381-0.137-0.717-0.321-0.976-0.565
			c-0.259-0.26-0.458-0.565-0.61-0.932c-0.137-0.367-0.229-0.779-0.259-1.252h-1.159v2.535c0,0.046-0.015,0.092-0.046,0.122
			c-0.03,0.031-0.076,0.061-0.137,0.092c-0.076,0.015-0.168,0.046-0.275,0.046c-0.107,0.015-0.259,0.015-0.427,0.015
			c-0.183,0-0.32,0-0.427-0.015c-0.122,0-0.214-0.031-0.275-0.046c-0.076-0.031-0.122-0.061-0.153-0.092
			c-0.03-0.031-0.03-0.076-0.03-0.122v-6.292c0-0.046,0-0.092,0.03-0.122c0.031-0.046,0.076-0.076,0.153-0.092
			c0.061-0.031,0.153-0.046,0.275-0.061c0.107,0,0.244-0.015,0.427-0.015c0.168,0,0.32,0.015,0.427,0.015
			c0.107,0.015,0.198,0.031,0.275,0.061c0.061,0.015,0.107,0.046,0.137,0.092c0.031,0.031,0.046,0.076,0.046,0.122v2.413h1.174
			c0.046-0.428,0.153-0.809,0.32-1.161c0.168-0.351,0.381-0.641,0.641-0.886c0.275-0.244,0.61-0.428,0.991-0.565
			s0.824-0.199,1.327-0.199c0.549,0,1.022,0.076,1.434,0.229c0.397,0.153,0.732,0.382,0.991,0.687
			c0.275,0.29,0.473,0.657,0.61,1.084C50.586,54.96,50.647,55.433,50.647,55.983z M48.817,56.044c0-0.29-0.015-0.58-0.061-0.84
			c-0.046-0.26-0.122-0.473-0.244-0.672c-0.107-0.199-0.259-0.351-0.442-0.458c-0.183-0.107-0.427-0.168-0.702-0.168
			c-0.259,0-0.488,0.061-0.671,0.153c-0.198,0.107-0.351,0.26-0.473,0.443c-0.122,0.183-0.214,0.412-0.275,0.672
			c-0.061,0.26-0.092,0.534-0.092,0.855s0.015,0.611,0.061,0.87c0.046,0.275,0.122,0.489,0.244,0.687
			c0.107,0.183,0.244,0.336,0.442,0.443c0.183,0.107,0.412,0.153,0.702,0.153c0.244,0,0.458-0.031,0.641-0.122
			c0.198-0.092,0.351-0.229,0.473-0.397c0.137-0.183,0.229-0.397,0.29-0.672C48.786,56.732,48.817,56.411,48.817,56.044z
			 M59.294,55.999c0,0.534-0.076,1.038-0.244,1.481c-0.153,0.443-0.381,0.825-0.686,1.13c-0.29,0.321-0.656,0.565-1.068,0.733
			c-0.412,0.168-0.869,0.26-1.388,0.26c-0.564,0-1.037-0.092-1.449-0.26c-0.397-0.168-0.732-0.443-0.991-0.794
			c-0.259-0.351-0.442-0.779-0.564-1.313c-0.122-0.534-0.183-1.161-0.183-1.894c0-0.519,0.03-1.008,0.076-1.466
			c0.061-0.458,0.137-0.886,0.244-1.267c0.107-0.382,0.229-0.718,0.397-1.008c0.153-0.29,0.305-0.519,0.473-0.702
			c0.168-0.168,0.32-0.305,0.473-0.412c0.168-0.107,0.336-0.199,0.519-0.29c0.198-0.076,0.397-0.153,0.625-0.214
			s0.488-0.107,0.763-0.153l2.227-0.321c0.092-0.015,0.168-0.015,0.214-0.015c0.061,0.015,0.092,0.031,0.122,0.092
			c0.031,0.046,0.046,0.122,0.061,0.229c0,0.107,0.015,0.244,0.015,0.443c0,0.122-0.015,0.244-0.015,0.336
			c-0.015,0.107-0.03,0.183-0.061,0.26c-0.031,0.061-0.061,0.122-0.107,0.153c-0.061,0.046-0.122,0.076-0.198,0.076l-2.059,0.321
			c-0.198,0.031-0.366,0.061-0.503,0.092c-0.153,0.031-0.275,0.076-0.397,0.122c-0.107,0.046-0.198,0.092-0.275,0.153
			c-0.092,0.061-0.168,0.122-0.244,0.199c-0.092,0.092-0.153,0.183-0.229,0.305c-0.061,0.137-0.122,0.275-0.168,0.412
			c-0.046,0.153-0.076,0.305-0.107,0.473c-0.046,0.183-0.076,0.367-0.092,0.55c0.122-0.137,0.259-0.244,0.412-0.367
			c0.168-0.107,0.336-0.199,0.503-0.275c0.183-0.076,0.381-0.137,0.58-0.183s0.397-0.076,0.625-0.076
			c0.458,0,0.854,0.076,1.19,0.229c0.351,0.137,0.625,0.351,0.854,0.626c0.214,0.275,0.381,0.611,0.503,1.008
			C59.248,55.052,59.294,55.495,59.294,55.999z M57.495,56.09c0-0.26-0.015-0.504-0.061-0.733c-0.061-0.214-0.122-0.412-0.229-0.58
			s-0.244-0.29-0.412-0.382c-0.183-0.107-0.381-0.153-0.625-0.153c-0.153,0-0.305,0.015-0.442,0.061
			c-0.137,0.046-0.259,0.107-0.397,0.183c-0.122,0.076-0.259,0.168-0.381,0.29c-0.122,0.107-0.259,0.244-0.397,0.382
			c-0.015,0.061-0.015,0.122-0.015,0.183c0,0.076,0,0.137,0,0.214c0,0.443,0.031,0.825,0.076,1.145
			c0.061,0.321,0.137,0.596,0.259,0.809c0.107,0.214,0.259,0.382,0.442,0.473c0.183,0.107,0.412,0.168,0.686,0.168
			c0.244,0,0.458-0.046,0.641-0.137s0.336-0.229,0.473-0.412c0.122-0.168,0.214-0.382,0.29-0.641
			C57.464,56.701,57.495,56.411,57.495,56.09z M67.941,59.221c0,0.046-0.015,0.092-0.046,0.122
			c-0.015,0.031-0.061,0.061-0.137,0.092c-0.061,0.015-0.153,0.031-0.259,0.046c-0.107,0-0.244,0-0.427,0c-0.168,0-0.305,0-0.427,0
			c-0.107-0.015-0.198-0.031-0.275-0.046c-0.076-0.031-0.122-0.061-0.153-0.092s-0.046-0.076-0.046-0.122v-2.81
			c0-0.199,0-0.397,0.015-0.611c0.015-0.214,0.031-0.412,0.046-0.626c-0.107,0.214-0.229,0.397-0.366,0.596
			c-0.122,0.183-0.259,0.382-0.397,0.565l-2.12,2.886c-0.046,0.046-0.092,0.092-0.122,0.122c-0.031,0.046-0.092,0.076-0.137,0.092
			c-0.061,0.015-0.137,0.031-0.229,0.046c-0.092,0-0.198,0-0.351,0c-0.168,0-0.305,0-0.412,0c-0.107-0.015-0.183-0.031-0.244-0.046
			c-0.061-0.031-0.107-0.061-0.137-0.092c-0.031-0.031-0.046-0.076-0.046-0.122v-6.322c0-0.046,0.015-0.076,0.046-0.107
			c0.03-0.046,0.076-0.076,0.137-0.092c0.076-0.031,0.168-0.046,0.275-0.061c0.107,0,0.244-0.015,0.412-0.015
			c0.336,0,0.564,0.031,0.702,0.076c0.137,0.046,0.214,0.107,0.214,0.199v2.795c0,0.199-0.015,0.397-0.031,0.611
			c-0.015,0.199-0.03,0.397-0.046,0.596c0.107-0.183,0.229-0.382,0.336-0.565c0.122-0.183,0.244-0.367,0.381-0.534l2.135-2.901
			c0.046-0.046,0.076-0.092,0.122-0.122c0.046-0.046,0.092-0.061,0.153-0.092c0.076-0.015,0.153-0.031,0.244-0.046
			c0.092,0,0.214-0.015,0.351-0.015c0.168,0,0.305,0.015,0.412,0.015c0.107,0.015,0.198,0.031,0.259,0.046
			c0.061,0.031,0.107,0.061,0.137,0.092c0.015,0.046,0.031,0.092,0.031,0.137V59.221z M79.532,59.175
			c0.015,0.107-0.046,0.199-0.153,0.244c-0.122,0.046-0.336,0.061-0.625,0.061c-0.183,0-0.336,0-0.442,0
			c-0.122,0-0.198-0.015-0.259-0.031c-0.061-0.015-0.091-0.046-0.122-0.092c-0.015-0.031-0.031-0.076-0.031-0.137l-0.381-3.375
			c-0.015-0.122-0.031-0.26-0.031-0.412c-0.015-0.153-0.03-0.305-0.046-0.458c0-0.153-0.015-0.305-0.031-0.458
			c0-0.153-0.015-0.29-0.031-0.412v-0.183c-0.031,0.137-0.061,0.275-0.107,0.428c-0.031,0.137-0.076,0.29-0.122,0.458
			c-0.046,0.153-0.091,0.305-0.137,0.458s-0.076,0.29-0.122,0.412l-1.098,3.482c-0.015,0.061-0.046,0.107-0.091,0.153
			c-0.031,0.046-0.092,0.076-0.153,0.107c-0.076,0.015-0.153,0.046-0.259,0.046c-0.107,0.015-0.244,0.015-0.397,0.015
			s-0.275,0-0.366-0.015c-0.107,0-0.198-0.031-0.259-0.046c-0.061-0.031-0.122-0.061-0.153-0.107
			c-0.046-0.046-0.061-0.092-0.076-0.153l-1.083-3.482c-0.046-0.122-0.076-0.26-0.122-0.412s-0.092-0.305-0.137-0.458
			c-0.046-0.153-0.092-0.305-0.122-0.458c-0.046-0.153-0.076-0.29-0.107-0.428v0.183c0,0.122-0.015,0.26-0.015,0.412
			c-0.015,0.153-0.031,0.305-0.046,0.458s-0.031,0.305-0.046,0.458c0,0.153-0.015,0.29-0.031,0.412l-0.351,3.344
			c-0.015,0.061-0.031,0.107-0.061,0.153c-0.015,0.031-0.061,0.061-0.122,0.092c-0.076,0.015-0.153,0.031-0.275,0.046
			c-0.107,0-0.259,0-0.442,0c-0.168,0-0.29,0-0.397,0c-0.091-0.015-0.168-0.031-0.229-0.061c-0.046-0.031-0.092-0.061-0.107-0.092
			c-0.015-0.046-0.015-0.092-0.015-0.153l0.625-5.895c0.015-0.199,0.076-0.351,0.198-0.458c0.107-0.107,0.259-0.153,0.488-0.153h0.9
			c0.183,0,0.336,0.015,0.473,0.046s0.244,0.076,0.351,0.137c0.092,0.076,0.183,0.168,0.244,0.29
			c0.061,0.122,0.122,0.29,0.168,0.473l0.717,2.153c0.031,0.137,0.076,0.29,0.122,0.443c0.046,0.153,0.091,0.305,0.122,0.458
			c0.046,0.153,0.091,0.305,0.122,0.443s0.061,0.275,0.092,0.412h0.015c0.015-0.137,0.061-0.275,0.091-0.428
			c0.046-0.153,0.076-0.305,0.122-0.458c0.03-0.153,0.076-0.305,0.122-0.458s0.091-0.29,0.122-0.428l0.717-2.138
			c0.046-0.183,0.091-0.321,0.153-0.443c0.046-0.122,0.122-0.214,0.214-0.29c0.091-0.076,0.198-0.122,0.336-0.168
			c0.122-0.031,0.29-0.046,0.488-0.046h0.885c0.214,0,0.381,0.046,0.503,0.153c0.107,0.107,0.168,0.26,0.183,0.458L79.532,59.175z
			 M92.449,59.221c0,0.046,0,0.092-0.03,0.122c-0.031,0.031-0.076,0.061-0.137,0.092c-0.076,0.015-0.153,0.031-0.275,0.046
			c-0.107,0-0.244,0-0.412,0s-0.32,0-0.427,0c-0.122-0.015-0.214-0.031-0.29-0.046c-0.076-0.031-0.122-0.061-0.153-0.092
			c-0.03-0.031-0.046-0.076-0.046-0.122v-2.81c0-0.199,0-0.397,0.015-0.611c0.015-0.214,0.03-0.412,0.061-0.626
			c-0.122,0.214-0.244,0.397-0.366,0.596c-0.137,0.183-0.275,0.382-0.412,0.565l-2.12,2.886c-0.046,0.046-0.076,0.092-0.122,0.122
			c-0.031,0.046-0.076,0.076-0.137,0.092s-0.137,0.031-0.229,0.046c-0.076,0-0.198,0-0.336,0c-0.168,0-0.305,0-0.412,0
			c-0.107-0.015-0.198-0.031-0.259-0.046c-0.061-0.031-0.107-0.061-0.137-0.092c-0.015-0.031-0.031-0.076-0.031-0.122v-6.322
			c0-0.046,0.015-0.076,0.031-0.107c0.031-0.046,0.076-0.076,0.153-0.092c0.061-0.031,0.153-0.046,0.259-0.061
			c0.107,0,0.259-0.015,0.427-0.015c0.336,0,0.564,0.031,0.702,0.076c0.137,0.046,0.198,0.107,0.198,0.199v2.795
			c0,0.199,0,0.397-0.015,0.611c-0.015,0.199-0.031,0.397-0.061,0.596c0.122-0.183,0.229-0.382,0.351-0.565
			c0.107-0.183,0.244-0.367,0.366-0.534l2.15-2.901c0.031-0.046,0.076-0.092,0.122-0.122c0.03-0.046,0.091-0.061,0.153-0.092
			c0.061-0.015,0.137-0.031,0.229-0.046c0.091,0,0.214-0.015,0.366-0.015c0.168,0,0.29,0.015,0.412,0.015
			c0.107,0.015,0.183,0.031,0.259,0.046c0.061,0.031,0.092,0.061,0.122,0.092c0.03,0.046,0.03,0.092,0.03,0.137V59.221z
			 M99.296,53.448c0,0.153,0,0.275-0.015,0.367c-0.015,0.107-0.031,0.183-0.061,0.244c-0.015,0.061-0.046,0.107-0.076,0.137
			c-0.046,0.015-0.076,0.031-0.122,0.031h-2.044v4.978c0,0.046-0.015,0.092-0.046,0.122c-0.031,0.031-0.076,0.061-0.137,0.092
			c-0.076,0.015-0.168,0.046-0.275,0.046c-0.107,0.015-0.259,0.015-0.427,0.015c-0.183,0-0.32,0-0.427-0.015
			c-0.122,0-0.214-0.031-0.275-0.046c-0.076-0.031-0.122-0.061-0.153-0.092c-0.015-0.031-0.031-0.076-0.031-0.122v-5.971
			c0-0.183,0.031-0.321,0.107-0.428c0.092-0.092,0.214-0.137,0.381-0.137h3.325c0.046,0,0.076,0.015,0.122,0.046
			c0.031,0.015,0.061,0.061,0.076,0.122c0.03,0.061,0.046,0.137,0.061,0.244C99.296,53.189,99.296,53.311,99.296,53.448z
			 M107.608,55.968c0,0.55-0.061,1.069-0.183,1.512c-0.107,0.443-0.29,0.825-0.519,1.145s-0.519,0.55-0.854,0.718
			c-0.351,0.183-0.732,0.26-1.174,0.26c-0.183,0-0.351-0.015-0.503-0.046c-0.153-0.046-0.305-0.092-0.442-0.168
			c-0.153-0.076-0.29-0.168-0.427-0.275s-0.29-0.229-0.442-0.382v2.963c0,0.046-0.015,0.092-0.031,0.137
			c-0.03,0.031-0.076,0.061-0.153,0.092c-0.061,0.015-0.153,0.046-0.275,0.061C102.499,62,102.362,62,102.179,62
			c-0.168,0-0.32,0-0.427-0.015c-0.107-0.015-0.198-0.046-0.275-0.061c-0.061-0.031-0.107-0.061-0.137-0.092
			c-0.03-0.046-0.046-0.092-0.046-0.137v-8.781c0-0.046,0.015-0.092,0.03-0.122c0.031-0.046,0.061-0.076,0.122-0.092
			c0.061-0.031,0.137-0.046,0.244-0.061c0.092,0,0.214-0.015,0.351-0.015c0.153,0,0.259,0.015,0.366,0.015
			c0.091,0.015,0.168,0.031,0.229,0.061c0.061,0.015,0.092,0.046,0.122,0.092c0.031,0.031,0.031,0.076,0.031,0.122v0.733
			c0.183-0.183,0.366-0.351,0.549-0.489c0.168-0.153,0.351-0.26,0.534-0.367c0.183-0.092,0.366-0.168,0.564-0.214
			c0.198-0.046,0.397-0.061,0.625-0.061c0.458,0,0.854,0.092,1.174,0.26c0.32,0.183,0.58,0.428,0.793,0.748
			c0.198,0.321,0.351,0.687,0.442,1.1C107.562,55.036,107.608,55.495,107.608,55.968z M105.763,56.09
			c0-0.275-0.015-0.519-0.061-0.779c-0.031-0.244-0.107-0.458-0.198-0.657c-0.091-0.183-0.229-0.336-0.381-0.458
			c-0.153-0.107-0.351-0.168-0.58-0.168c-0.122,0-0.244,0.015-0.351,0.046c-0.122,0.046-0.229,0.092-0.351,0.183
			c-0.122,0.076-0.244,0.183-0.366,0.305c-0.137,0.122-0.275,0.29-0.412,0.473v2.077c0.259,0.305,0.488,0.55,0.717,0.718
			c0.229,0.168,0.458,0.26,0.702,0.26c0.229,0,0.427-0.061,0.58-0.183c0.168-0.122,0.305-0.275,0.397-0.458
			c0.107-0.183,0.183-0.397,0.229-0.641C105.747,56.564,105.763,56.319,105.763,56.09z M113.495,59.45l-0.763,2.214
			c-0.046,0.122-0.153,0.214-0.336,0.26c-0.198,0.046-0.473,0.076-0.824,0.076c-0.198,0-0.336,0-0.458-0.031
			c-0.107-0.015-0.198-0.031-0.244-0.076c-0.061-0.031-0.092-0.076-0.092-0.137c-0.015-0.061,0-0.122,0.031-0.199l0.839-2.107
			c-0.061-0.031-0.107-0.076-0.153-0.137c-0.061-0.061-0.092-0.122-0.122-0.183l-2.15-5.788c-0.061-0.168-0.092-0.29-0.092-0.382
			s0.031-0.153,0.076-0.199c0.061-0.046,0.153-0.092,0.29-0.107s0.305-0.031,0.534-0.031c0.198,0,0.351,0,0.473,0.015
			c0.122,0,0.214,0.031,0.275,0.046c0.061,0.031,0.122,0.076,0.153,0.137c0.03,0.061,0.061,0.137,0.091,0.244l1.479,4.215h0.031
			l1.327-4.291c0.031-0.122,0.076-0.214,0.122-0.244c0.046-0.046,0.107-0.076,0.214-0.092c0.107-0.015,0.29-0.031,0.549-0.031
			c0.198,0,0.366,0.015,0.503,0.031s0.229,0.061,0.305,0.107c0.061,0.046,0.092,0.122,0.092,0.214c0,0.076-0.015,0.183-0.061,0.305
			L113.495,59.45z M126.885,58.869c0,0.199-0.046,0.336-0.122,0.428s-0.214,0.153-0.381,0.153h-8.22
			c-0.168,0-0.29-0.061-0.366-0.153c-0.076-0.092-0.122-0.229-0.122-0.428v-5.956c0-0.046,0.015-0.092,0.046-0.122
			c0.031-0.046,0.076-0.076,0.153-0.092c0.061-0.031,0.153-0.046,0.275-0.061c0.107,0,0.259-0.015,0.427-0.015
			c0.183,0,0.32,0.015,0.427,0.015c0.107,0.015,0.198,0.031,0.259,0.061c0.061,0.015,0.107,0.046,0.137,0.092
			c0.031,0.031,0.046,0.076,0.046,0.122v5.039h1.983v-5.039c0-0.046,0.015-0.092,0.031-0.122c0.031-0.046,0.076-0.076,0.137-0.092
			c0.046-0.031,0.137-0.046,0.244-0.061c0.107,0,0.244-0.015,0.412-0.015c0.183,0,0.32,0.015,0.427,0.015
			c0.122,0.015,0.214,0.031,0.275,0.061c0.061,0.015,0.107,0.046,0.137,0.092c0.031,0.031,0.046,0.076,0.046,0.122v5.039h1.983
			v-5.039c0-0.046,0.015-0.092,0.046-0.122c0.031-0.046,0.076-0.076,0.137-0.092c0.061-0.031,0.153-0.046,0.259-0.061
			c0.107,0,0.244-0.015,0.427-0.015c0.168,0,0.305,0.015,0.427,0.015c0.107,0.015,0.198,0.031,0.275,0.061
			c0.061,0.015,0.122,0.046,0.153,0.092c0.03,0.031,0.046,0.076,0.046,0.122V58.869z"/>
		<path fill="#123669" d="M135.562,59.282c0,0.031-0.015,0.061-0.031,0.092c-0.031,0.015-0.076,0.046-0.137,0.061
			c-0.076,0.015-0.168,0.031-0.275,0.046c-0.122,0-0.259,0-0.442,0c-0.183,0-0.351,0-0.473,0c-0.137-0.015-0.229-0.031-0.305-0.046
			s-0.137-0.046-0.168-0.076s-0.061-0.076-0.076-0.122l-0.58-1.497c-0.076-0.199-0.152-0.382-0.229-0.504
			c-0.091-0.137-0.183-0.244-0.275-0.336c-0.107-0.076-0.214-0.137-0.336-0.168c-0.137-0.046-0.275-0.061-0.442-0.061h-0.351v2.566
			c0,0.031-0.031,0.076-0.061,0.107s-0.076,0.046-0.152,0.076c-0.061,0.015-0.153,0.046-0.275,0.046
			c-0.107,0.015-0.244,0.015-0.412,0.015c-0.153,0-0.305,0-0.412-0.015c-0.107,0-0.198-0.031-0.275-0.046
			c-0.061-0.031-0.122-0.046-0.152-0.076s-0.046-0.076-0.046-0.107v-6.368c0-0.031,0.015-0.061,0.046-0.092
			c0.031-0.031,0.091-0.061,0.152-0.076c0.076-0.031,0.168-0.046,0.275-0.061c0.107,0,0.259-0.015,0.412-0.015
			c0.168,0,0.305,0.015,0.412,0.015c0.122,0.015,0.214,0.031,0.275,0.061c0.076,0.015,0.122,0.046,0.152,0.076
			c0.031,0.031,0.061,0.061,0.061,0.092v2.443h0.351c0.152,0,0.275-0.015,0.397-0.046c0.122-0.046,0.229-0.092,0.32-0.183
			c0.092-0.076,0.183-0.183,0.259-0.321c0.092-0.137,0.168-0.305,0.244-0.519l0.534-1.344c0.015-0.046,0.03-0.092,0.061-0.122
			c0.031-0.046,0.092-0.061,0.153-0.092c0.076-0.015,0.168-0.031,0.29-0.046c0.107,0,0.275-0.015,0.473-0.015
			c0.168,0,0.32,0.015,0.427,0.015c0.107,0.015,0.198,0.031,0.259,0.046c0.061,0.015,0.107,0.046,0.122,0.061
			c0.031,0.031,0.046,0.061,0.046,0.107c0,0.046-0.015,0.092-0.031,0.168c-0.015,0.061-0.046,0.153-0.107,0.26l-0.488,1.206
			c-0.107,0.229-0.214,0.443-0.32,0.611s-0.229,0.305-0.336,0.412c-0.122,0.107-0.229,0.199-0.351,0.26
			c-0.122,0.061-0.229,0.107-0.336,0.153v0.015c0.137,0.061,0.275,0.122,0.412,0.199c0.122,0.061,0.244,0.153,0.351,0.275
			c0.122,0.107,0.229,0.244,0.336,0.412c0.107,0.168,0.214,0.382,0.32,0.611l0.61,1.405c0.03,0.061,0.046,0.122,0.061,0.168
			c0.015,0.046,0.031,0.076,0.046,0.122c0,0.031,0.015,0.061,0.015,0.092C135.562,59.236,135.562,59.251,135.562,59.282z
			 M144.041,59.221c0,0.046-0.015,0.092-0.046,0.122c-0.03,0.031-0.076,0.061-0.137,0.092c-0.061,0.015-0.152,0.031-0.259,0.046
			c-0.122,0-0.259,0-0.427,0s-0.305,0-0.427,0c-0.122-0.015-0.214-0.031-0.275-0.046c-0.076-0.031-0.137-0.061-0.168-0.092
			s-0.046-0.076-0.046-0.122v-2.81c0-0.199,0.015-0.397,0.015-0.611c0.015-0.214,0.046-0.412,0.061-0.626
			c-0.107,0.214-0.229,0.397-0.366,0.596c-0.137,0.183-0.259,0.382-0.397,0.565l-2.12,2.886c-0.046,0.046-0.091,0.092-0.122,0.122
			c-0.046,0.046-0.092,0.076-0.153,0.092s-0.122,0.031-0.214,0.046c-0.092,0-0.214,0-0.351,0c-0.168,0-0.305,0-0.412,0
			c-0.107-0.015-0.183-0.031-0.244-0.046c-0.076-0.031-0.122-0.061-0.137-0.092c-0.031-0.031-0.046-0.076-0.046-0.122v-6.322
			c0-0.046,0.015-0.076,0.046-0.107c0.015-0.046,0.061-0.076,0.137-0.092c0.061-0.031,0.153-0.046,0.275-0.061
			c0.107,0,0.244-0.015,0.412-0.015c0.336,0,0.564,0.031,0.702,0.076c0.137,0.046,0.214,0.107,0.214,0.199v2.795
			c0,0.199-0.015,0.397-0.031,0.611c-0.015,0.199-0.031,0.397-0.061,0.596c0.122-0.183,0.229-0.382,0.351-0.565
			c0.122-0.183,0.244-0.367,0.381-0.534l2.135-2.901c0.031-0.046,0.076-0.092,0.122-0.122c0.046-0.046,0.092-0.061,0.153-0.092
			c0.061-0.015,0.152-0.031,0.244-0.046c0.092,0,0.198-0.015,0.351-0.015c0.168,0,0.305,0.015,0.412,0.015
			c0.107,0.015,0.198,0.031,0.259,0.046c0.061,0.031,0.107,0.061,0.122,0.092c0.031,0.046,0.046,0.092,0.046,0.137V59.221z"/>
	</g>
	<path fill="#FEFEFE" fill-opacity="0.349" d="M63.717,15.744c-0.9-0.412-1.922-0.626-2.974-0.626c-2.577,0-5.81,1.405-5.81,5.039
		c0,0.168,0.061,2.184,0.107,6.093c0.061,3.864,0.122,6.154,0.122,6.872L55.1,33.184c0,7.361,5.002,11.453,11.133,12.263
		c-4.819-1.542-8.388-5.421-8.388-11.652l0.061-0.061c0-0.718-0.061-3.008-0.122-6.872c-0.046-3.909-0.107-5.925-0.107-6.093
		c0-3.634,3.233-5.039,5.81-5.039C63.564,15.729,63.641,15.729,63.717,15.744z M102.041,3.36c-3.004-0.199-5.612-0.367-7.122-0.367
		c-7.656,0-9.943,4.856-9.943,7.88c0,1.741,0.503,3.069,0.564,3.069l0.046,0.122c0,0.046,0.168,0.199,0.336,0.168
		c0.686-0.122,1.388-0.26,2.105-0.367c-0.153-0.55-0.305-1.405-0.305-2.382c0-3.024,2.288-7.88,9.943-7.88
		C99.281,3.543,100.425,3.451,102.041,3.36z M102.834,15.744l0.625,0.794C103.231,16.294,103.017,16.019,102.834,15.744z
		 M96.094,13.438l-0.397,22.815c-0.107,5.895,3.218,8.918,7.595,9.208c-2.913-1.176-4.926-4.016-4.85-8.598
		C98.519,32.145,99.281,19.455,96.094,13.438z M12.978,15.637c-0.946-0.412-2.013-0.626-3.172-0.626c-2.791,0-6.695,2.291-6.695,4.2
		c0,1.176,3.233,0,3.233,8.277c0,2.336-0.275,6.597-0.275,12.858c0,3.329,2.562,4.963,5.566,5.085
		c-1.662-0.764-2.821-2.245-2.821-4.474c0-6.261,0.275-10.522,0.275-12.858c0-8.277-3.233-7.101-3.233-8.277
		c0-1.909,3.904-4.2,6.695-4.2C12.704,15.622,12.841,15.622,12.978,15.637z M133.503,15.683c-1.22-0.29-2.516-0.443-3.858-0.443
		c-9.15,0-15.571,6.933-15.571,15.424c0,7.605,5.673,13.82,13.329,14.843c-6.222-1.97-10.584-7.559-10.584-14.233
		c0-8.491,6.42-15.424,15.571-15.424c0.32,0,0.641,0,0.961,0.015C133.397,15.805,133.458,15.744,133.503,15.683z M155.815,15.805
		c-1.007-0.412-2.12-0.626-3.325-0.626c-2.684,0-6.756,2.23-6.756,4.138c0,1.283,3.736,0.061,3.736,8.338v8.384
		c0,5.375,3.355,9.163,7.564,9.224c-2.837-1.283-4.819-4.474-4.819-8.613v-8.384c0-8.277-3.736-7.055-3.736-8.338
		c0-1.909,4.072-4.138,6.756-4.138C155.434,15.79,155.617,15.79,155.815,15.805z M151.773,47.966
		c-0.976-0.916-1.571-1.695-2.181-1.695c-0.336,0-0.564,0.229-0.564,0.84c0,1.222,0.458,5.284,6.314,8.323
		c1.434,0.748,2.943,1.252,4.667,1.451c-0.671-0.214-1.296-0.504-1.922-0.84C152.566,53.204,151.85,49.432,151.773,47.966z
		 M199.34,15.928c-2.013-0.611-4.346-0.916-6.756-0.916c-6.024,0-12.566,3.528-12.566,9.117v0.168c0,4.032,3.248,7.055,7.595,8.475
		c0.839,0.26,1.678,0.534,2.516,0.809c0.031-0.092,0.046-0.168,0.076-0.26c-4.27-1.42-7.442-4.444-7.442-8.414v-0.168
		c0-5.589,6.542-9.117,12.566-9.117C196.702,15.622,198.059,15.729,199.34,15.928z M188.634,33.932
		c-0.671-0.412-1.861-0.641-3.645-0.641c-3.172,0-5.414,2.245-5.414,5.1c0,4.23,4.728,6.231,9.211,6.948
		c-3.477-1.023-6.466-2.978-6.466-6.337c0-2.856,2.242-5.1,5.414-5.1C188.054,33.901,188.359,33.917,188.634,33.932z"/>
	<path fill="#373435" fill-opacity="0.4392" d="M119.427,4.337c-0.046-0.168-0.214-0.29-0.442-0.29l-2.959,0.046
		c-0.061,0.137-0.122,0.275-0.198,0.412c0.168,0.428,0.336,1.115,0.336,3.176c0,3.253-1.479,6.231-6.725,6.75
		c0.595,0.046,1.281,0.076,1.952,0.076c6.649,0,8.434-3.237,8.434-6.826C119.824,5.345,119.595,4.78,119.427,4.337z M104.024,45.492
		c2.959,0,7.641-2.459,7.641-4.474c0-1.176-3.294-0.061-3.63-7.834l-0.32-18.676c-1.617,4.78-2.288,7.101-2.257,18.676
		c0.015,7.788,2.547,6.658,2.547,7.834C108.218,43.064,106.632,44.087,104.024,45.492z M50.693,32.955v-8.72
		c0-5.36-3.416-9.224-7.717-9.224c-0.625,0-1.266,0.076-1.906,0.229c3.447,0.886,5.963,4.383,5.963,8.995v8.72
		c0,8.231,3.736,7.269,3.736,8.338c0,1.542-2.684,3.299-5.155,3.909c0.641,0.153,1.312,0.229,1.998,0.229
		c2.745,0,6.817-2.23,6.817-4.138C54.429,40.224,50.693,41.186,50.693,32.955z M197.952,27.885c-0.397-0.153-0.793-0.29-1.159-0.412
		c-0.381-0.137-0.747-0.244-1.113-0.351c-2.089-0.657-0.93-0.229-0.93-0.229c6.085,1.756,8.693,5.681,8.693,9.651
		c0,5.635-5.612,8.2-11.148,8.903c-0.031,0.076-0.061,0.137-0.107,0.199c0.183,0.015,0.351,0.015,0.519,0.015
		c6.298,0,14.397-2.352,14.397-9.117c0-3.97-3.065-6.918-9.15-8.674V27.885z M198.242,26.984c0.564,0.107,1.266,0.168,2.105,0.168
		c3.416,0,5.414-2.138,5.414-4.871c0-4.749-6.298-7.269-13.176-7.269c-0.519,0-1.052,0.031-1.571,0.076
		c6.009,0.458,11.087,2.932,11.087,7.193C202.1,24.571,200.697,26.434,198.242,26.984z M177.684,20.265
		c0-4.062-4.316-5.666-7.732-4.81c2.257,0.565,4.072,2.184,4.072,4.81c0,0.122-0.061,1.619-0.061,4.474l-0.107,9.178
		c-0.046,2.459-0.061,4.917-0.061,7.376c0,8.674-4.819,14.843-13.512,15.622c0.564,0.061,1.159,0.092,1.754,0.092
		c9.882,0,15.418-6.429,15.418-15.714c0-2.459,0.015-4.917,0.061-7.376l0.107-9.178C177.623,21.883,177.684,20.387,177.684,20.265z
		 M145.338,30.45c-0.076-4.948-2.394-9.315-6.085-12.079c1.983,3.894,3.233,5.436,3.233,12.278
		c-0.946,7.712-2.227,8.949-9.15,14.614C140.442,43.721,145.46,37.734,145.338,30.45z M75.49,15.011
		c-0.625,0-1.251,0.076-1.83,0.214c3.919,0.932,6.71,4.978,6.71,12.767c0,4.642-1.891,16.493-13.466,17.531
		c0.671,0.061,1.327,0.076,1.983,0.076c13.07,0,15.144-12.751,15.144-17.607C84.031,19.043,80.34,15.011,75.49,15.011z"/>
	<g>
		<path fill="#123669" d="M50.601,33.016v-8.72c0-5.36-3.401-9.224-7.702-9.224c-3.294,0-6.863,2.016-9.044,6.261h-0.168
			c-0.946-3.848-3.904-6.261-7.305-6.261c-3.187,0-6.756,2.016-8.937,6.261H17.34c-0.839-3.848-3.736-6.261-7.595-6.261
			c-2.791,0-6.695,2.291-6.695,4.2c0,1.176,3.233,0,3.233,8.262c0,2.352-0.275,6.597-0.275,12.858c0,3.634,3.004,4.978,5.856,5.085
			h0.061c2.837-0.107,5.917-1.512,5.917-5.085c0-0.107-0.122-1.848-0.168-5.192c-0.122-3.36-0.122-5.375-0.122-6.093
			c0-3.467,1.632-6.2,3.294-6.2c1.296,0,1.952,1.054,1.952,3.237v3.97c0,0.504-0.046,2.291-0.107,5.467
			c-0.061,3.131-0.061,4.765-0.061,4.81c0,3.634,3.02,4.978,5.871,5.085h0.046c2.852-0.107,5.917-1.512,5.917-5.085
			c0-0.168-0.107-1.787-0.214-4.917c-0.168-3.192-0.168-4.978-0.168-5.36v-1.008c0-3.467,1.617-6.2,3.294-6.2
			c1.281,0,1.952,1.054,1.952,3.237v10.842c0,5.192,3.63,8.491,8.205,8.491c2.73,0,6.802-2.23,6.802-4.138
			C54.338,40.285,50.601,41.232,50.601,33.016z M195.451,37.475c0,1.695-1.113,2.535-3.004,2.535c-1.952,0-3.294-1.237-3.294-3.421
			c0-0.519,0.046-1.023,0.046-1.466c0-1.1-1.281-1.771-4.346-1.771c-3.187,0-5.414,2.23-5.414,5.085
			c0,5.528,8.098,7.269,13.115,7.269c6.314,0,14.397-2.352,14.397-9.117c0-3.97-3.065-6.902-9.15-8.659v0.015
			c-3.965-1.558-7.137-1.451-7.137-4.597c0-1.237,1.113-2.627,2.791-2.627c1.83,0,2.669,1.008,2.669,3.192
			c0,0.611-0.046,1.176-0.046,1.573c0,0.993,1.113,1.71,4.118,1.71c3.416,0,5.414-2.123,5.414-4.856
			c0-4.749-6.298-7.269-13.161-7.269c-6.039,0-12.566,3.528-12.566,9.117v0.168c0.061,4.016,3.233,7.055,7.595,8.46l1.723,0.565
			C192.553,34.329,195.451,35.23,195.451,37.475z M75.383,15.072c-3.63,0-6.802,2.581-6.802,3.97c0,1.237,4.85,1.512,4.85,11.346
			c0,5.864-2.181,8.827-4.85,8.827c-1.784,0-2.288-1.558-2.288-5.36c0-0.855,0.198-13.774,0.214-13.698
			c-0.03-3.528-3.187-4.978-5.795-4.978h-0.061c-2.562,0-5.81,1.405-5.81,5.039c0,0.168,0.061,2.184,0.122,6.093
			c0.046,3.848,0.107,6.139,0.107,6.872l-0.061,0.061c0,8.262,6.314,12.4,13.451,12.4h0.336c13.07,0,15.129-12.736,15.129-17.607
			C83.924,19.104,80.248,15.072,75.383,15.072z M66.508,20.158c0,0,0,0.015,0,0.061V20.158z M165.758,20.326
			c0-0.046,0.168,5.818,0.168,11.01c0,3.467-1.617,6.215-3.355,6.215c-1.327,0-1.998-1.13-1.998-3.299V23.731
			c0-5.131-3.523-8.491-8.205-8.491c-2.684,0-6.756,2.245-6.756,4.138c0,1.283,3.736,0.061,3.736,8.323v8.384
			c0,5.421,3.401,9.224,7.641,9.224c3.294,0,6.71-1.894,8.876-6.139h0.168v5.253c-0.168,3.573-2.959,6.368-7.198,6.368
			c-6.466,0-7.93-4.474-9.379-4.474c-0.336,0-0.549,0.229-0.549,0.84c0,1.237,0.442,5.314,6.298,8.323
			c1.952,1.069,4.133,1.573,6.71,1.573c9.867,0,15.403-6.429,15.403-15.714c0-0.275,0-0.611,0-0.886c0-1.069,0-3.237,0.046-6.49
			l0.122-9.163c0-2.856,0.046-4.352,0.046-4.474c0-3.512-3.172-5.024-5.856-5.024h-0.061
			C169.052,15.301,165.758,16.691,165.758,20.326z M119.32,4.398c-0.061-0.168-0.229-0.275-0.442-0.275l-3.63,0.046
			c-6.42-0.107-16.745-1.115-20.436-1.115c-7.641,0-9.928,4.871-9.928,7.88c0,1.741,0.488,3.085,0.549,3.085l0.061,0.107
			c0,0.061,0.168,0.168,0.336,0.168c2.73-0.565,5.749-0.779,9.044-0.779c0.381,0,0.717,0,1.113,0l-0.397,22.8
			c0,6.2,3.584,9.224,8.327,9.224c2.959,0,7.641-2.459,7.641-4.474c0-1.176-3.294-0.061-3.63-7.819l-0.336-18.951l1.342,0.168
			c0.671,0.061,1.51,0.107,2.349,0.107c6.634,0,8.418-3.237,8.418-6.811C119.702,5.406,119.488,4.841,119.32,4.398z M145.216,30.496
			c-0.107-8.43-6.802-15.195-15.678-15.195c-9.166,0-15.586,6.933-15.586,15.424c0,8.323,6.817,14.981,15.586,14.981
			C138.521,45.706,145.109,39.002,145.216,30.496z M124.963,30.496c0-5.131,1.388-8.888,4.575-8.888
			c3.004,0,4.682,3.696,4.682,8.888c0,5.925-1.678,8.888-4.682,8.888C126.412,39.384,124.963,35.581,124.963,30.496z M50.739,15.775
			c0.534,0.626,0.991,1.313,1.388,2.077c0.427-1.451,1.251-2.611,2.288-3.512c1.784-1.542,4.179-2.199,6.237-2.199h0.061
			c2.074,0,4.423,0.657,6.192,2.168c0.259,0.229,0.503,0.458,0.747,0.718c0.534-0.504,1.144-0.962,1.83-1.359
			c1.617-0.947,3.691-1.649,5.902-1.649c2.715,0,5.17,0.901,7.137,2.779c-0.031-0.137-0.046-0.275-0.061-0.397
			c-0.198-0.382-0.336-0.794-0.412-1.237c-0.122-0.672-0.214-1.435-0.214-2.23c0-2.474,1.068-5.803,4.041-8.17
			C87.919,1.145,90.817,0,94.813,0c1.754,0,5.002,0.229,8.632,0.473c4.057,0.29,8.601,0.596,11.804,0.657l3.309-0.046
			c0.107-0.015,0.214-0.015,0.32-0.015c0.473,0,0.946,0.092,1.373,0.275c0.183,0.076,0.351,0.153,0.519,0.26
			c0.549,0.351,0.991,0.84,1.266,1.451c0.061,0.092,0.091,0.183,0.137,0.29c0.259,0.687,0.58,1.558,0.58,4.413
			c0,2.504-0.671,4.948-2.577,6.857c2.699-1.512,5.871-2.367,9.364-2.367c5.216,0,9.821,2,13.176,5.238
			c0.061,0.061,0.122,0.122,0.198,0.199c0.564-1.405,1.815-2.657,3.34-3.604c1.8-1.1,4.179-1.894,6.115-1.894
			c3.218,0,6.054,1.206,8.113,3.329c0.976,1.023,1.769,2.245,2.303,3.634c0.275-2.031,1.251-3.573,2.577-4.703
			c1.784-1.542,4.209-2.199,6.253-2.199h0.061c2.12,0,4.484,0.687,6.253,2.199c0.793,0.687,1.464,1.512,1.937,2.504
			c0.549-0.58,1.159-1.115,1.83-1.588c2.943-2.138,6.939-3.344,10.752-3.344c4.102,0,8.098,0.84,11.026,2.443
			c3.172,1.756,5.185,4.383,5.185,7.88c0,2.275-0.885,4.322-2.532,5.788c-0.107,0.107-0.214,0.199-0.32,0.275
			c0.336,0.26,0.641,0.519,0.93,0.794c2.166,2.062,3.264,4.535,3.264,7.391c0,4.184-2.135,7.132-5.261,9.101
			c-3.462,2.184-8.174,3.069-12.185,3.069c-3.294,0-7.778-0.687-11.087-2.504c-0.503-0.29-0.976-0.596-1.434-0.916
			c-0.641,3.818-2.242,7.116-4.712,9.636c-3.187,3.253-7.717,5.131-13.405,5.131c-1.51,0-2.928-0.153-4.27-0.473
			c-1.312-0.305-2.547-0.764-3.736-1.39c-0.031-0.015-0.061-0.031-0.092-0.046c-3.569-1.848-5.536-4.093-6.634-6.093
			c-1.174-2.168-1.327-4.062-1.327-4.948c0-0.993,0.275-1.802,0.747-2.443c0.488-0.672,1.068-1.069,1.723-1.283
			c-0.915-1.451-1.571-3.176-1.861-5.085c-0.93,1.955-2.181,3.711-3.721,5.207c-3.34,3.222-7.946,5.207-13.207,5.207
			c-5.185,0-9.806-1.985-13.161-5.207c-0.656-0.626-1.251-1.298-1.8-2c-0.229,1.985-1.876,3.787-4.026,5.039
			c-1.983,1.161-4.575,2-6.634,2c-3.34,0-6.283-1.161-8.388-3.497h0.015c-1.876-2.077-3.004-5.009-3.004-8.781h0.015v-0.046
			l0.336-19.684c-0.854,0.031-1.693,0.076-2.501,0.153c-1.342,0.107-2.577,0.275-3.721,0.489c-0.259,0.076-0.549,0.122-0.839,0.122
			c-0.549,0-1.083-0.153-1.51-0.351c1.662,2.596,2.654,6.261,2.654,11.041c0,3.39-0.9,10.14-5.063,14.996
			c-2.821,3.283-6.985,5.666-13.115,5.666H68.46c-4.255,0-8.312-1.267-11.346-3.818c-0.259-0.214-0.503-0.428-0.732-0.657
			c-0.671,0.932-1.617,1.756-2.715,2.413c-1.815,1.115-4.194,1.894-6.131,1.894c-3.172,0-6.039-1.206-8.113-3.344
			c-0.839-0.87-1.54-1.894-2.074-3.054c-0.351,1.756-1.251,3.115-2.455,4.154c-1.647,1.42-3.843,2.092-5.932,2.214
			c-0.137,0.031-0.275,0.031-0.412,0.031h-0.046l0,0c-0.046,0-0.076,0-0.122-0.015c-2.181-0.076-4.484-0.733-6.207-2.214
			c-0.808-0.718-1.495-1.588-1.937-2.642c-0.473,1.054-1.144,1.909-1.983,2.627c-1.647,1.42-3.843,2.092-5.932,2.214
			c-0.137,0.031-0.259,0.031-0.397,0.031h-0.061l0,0c-0.046,0-0.076,0-0.122-0.015c-2.181-0.076-4.484-0.733-6.192-2.214
			c-1.571-1.359-2.593-3.283-2.593-5.91c0-3.634,0.107-6.933,0.198-9.437c0.046-1.267,0.076-2.275,0.076-3.421
			c0-4.291-0.747-4.734-1.159-4.978C0.854,21.822,0,21.303,0,19.272c0-2.077,1.54-4.032,3.66-5.345
			c1.769-1.115,4.102-1.909,6.085-1.909c2.638,0,4.987,0.855,6.847,2.382c0.473,0.382,0.9,0.809,1.296,1.267
			c0.534-0.519,1.098-0.977,1.678-1.39c2.166-1.512,4.56-2.26,6.817-2.26c2.455,0,4.743,0.886,6.588,2.459
			c0.442,0.382,0.869,0.809,1.251,1.267c0.564-0.565,1.174-1.054,1.8-1.497c2.166-1.497,4.56-2.23,6.878-2.23
			C46.011,12.018,48.771,13.408,50.739,15.775z M19.597,40.544v-0.153V40.544z M70.381,30.389c0-2.672-0.397-4.413-0.915-5.589
			c-0.061,3.604-0.122,8.292-0.122,9.056c0,0.641,0,1.176,0.031,1.619c0.031-0.046,0.061-0.092,0.092-0.137
			C70.031,34.283,70.381,32.649,70.381,30.389z M110.688,17.607l0.229,12.66c0.107-4.963,2.089-9.468,5.383-12.736
			c0.381-0.367,0.778-0.733,1.174-1.069c-1.601,0.733-3.645,1.161-6.192,1.161C111.1,17.623,110.902,17.623,110.688,17.607z
			 M128.852,25.319c-0.58,1.13-0.854,2.947-0.854,5.177c0,2.199,0.29,4.016,0.885,5.162c0.214,0.428,0.442,0.672,0.656,0.672
			c0.305,0,0.58-0.199,0.793-0.626c0.549-1.038,0.839-2.764,0.839-5.207c0-2.168-0.305-3.94-0.915-5.085
			c-0.244-0.473-0.503-0.748-0.717-0.748C129.294,24.663,129.065,24.907,128.852,25.319z"/>
	</g>
	<path fill="#FFCC00" d="M50.601,33.016v-8.72c0-5.36-3.401-9.224-7.702-9.224c-3.294,0-6.863,2.016-9.044,6.261h-0.168
		c-0.946-3.848-3.904-6.261-7.305-6.261c-3.187,0-6.756,2.016-8.937,6.261H17.34c-0.839-3.848-3.736-6.261-7.595-6.261
		c-2.791,0-6.695,2.291-6.695,4.2c0,1.176,3.233,0,3.233,8.262c0,2.352-0.275,6.597-0.275,12.858c0,3.467,2.76,5.085,5.917,5.085
		c2.852,0,5.917-1.512,5.917-5.085c0-0.107-0.092-1.848-0.168-5.192c-0.092-3.36-0.122-5.375-0.122-6.093
		c0-3.467,1.632-6.2,3.294-6.2c1.296,0,1.952,1.054,1.952,3.237v3.97c0,0.504-0.046,2.291-0.107,5.467
		c-0.061,3.131-0.061,4.765-0.061,4.81c0,3.467,2.776,5.085,5.917,5.085c2.852,0,5.917-1.512,5.917-5.085
		c0-0.168-0.076-1.787-0.214-4.917c-0.137-3.192-0.168-4.978-0.168-5.36v-1.008c0-3.467,1.617-6.2,3.294-6.2
		c1.281,0,1.952,1.054,1.952,3.237v10.842c0,5.192,3.63,8.491,8.205,8.491c2.73,0,6.802-2.23,6.802-4.138
		C54.338,40.285,50.601,41.232,50.601,33.016z"/>
	<path fill="#FFCC00" d="M75.383,15.072c-3.63,0-6.802,2.581-6.802,3.97c0,1.237,4.85,1.512,4.85,11.346
		c0,5.864-2.181,8.827-4.85,8.827c-1.784,0-2.288-1.558-2.288-5.36c0-0.855,0.198-13.774,0.214-13.698
		c-0.03-3.299-2.852-4.978-5.856-4.978c-2.562,0-5.81,1.405-5.81,5.039c0,0.168,0.061,2.184,0.122,6.093
		c0.046,3.848,0.107,6.139,0.107,6.872l-0.061,0.061c0,8.262,6.314,12.4,13.451,12.4h0.336c13.07,0,15.129-12.736,15.129-17.607
		C83.924,19.104,80.248,15.072,75.383,15.072z"/>
	<path fill="#CC1730" d="M119.32,4.398c-0.061-0.168-0.229-0.275-0.442-0.275l-3.63,0.046c-6.42-0.107-16.745-1.115-20.436-1.115
		c-7.641,0-9.928,4.871-9.928,7.88c0,1.741,0.488,3.085,0.549,3.085l0.061,0.107c0,0.061,0.168,0.168,0.336,0.168
		c2.73-0.565,5.749-0.779,9.044-0.779c0.381,0,0.717,0,1.113,0l-0.397,22.8c0,6.2,3.584,9.224,8.327,9.224
		c2.959,0,7.641-2.459,7.641-4.474c0-1.176-3.294-0.061-3.63-7.819l-0.336-18.951l1.342,0.168c0.671,0.061,1.51,0.107,2.349,0.107
		c6.634,0,8.418-3.237,8.418-6.811C119.702,5.406,119.488,4.841,119.32,4.398z"/>
	<path fill="#20A1FF" d="M145.216,30.496c-0.107-8.43-6.802-15.195-15.678-15.195c-9.166,0-15.586,6.933-15.586,15.424
		c0,8.323,6.817,14.981,15.586,14.981C138.521,45.706,145.109,39.002,145.216,30.496z M124.963,30.496
		c0-5.131,1.388-8.888,4.575-8.888c3.004,0,4.682,3.696,4.682,8.888c0,5.925-1.678,8.888-4.682,8.888
		C126.412,39.384,124.963,35.581,124.963,30.496z"/>
	<path fill="#87CF00" d="M177.532,20.326c0-3.329-2.898-5.024-5.917-5.024c-2.562,0-5.856,1.39-5.856,5.024
		c0-0.046,0.168,5.818,0.168,11.01c0,3.467-1.617,6.215-3.355,6.215c-1.327,0-1.998-1.13-1.998-3.299V23.731
		c0-5.131-3.523-8.491-8.205-8.491c-2.684,0-6.756,2.245-6.756,4.138c0,1.283,3.736,0.061,3.736,8.323v8.384
		c0,5.421,3.401,9.224,7.641,9.224c3.294,0,6.71-1.894,8.876-6.139h0.168v5.253c-0.168,3.573-2.959,6.368-7.198,6.368
		c-6.466,0-7.93-4.474-9.379-4.474c-0.336,0-0.549,0.229-0.549,0.84c0,1.237,0.442,5.314,6.298,8.323
		c1.952,1.069,4.133,1.573,6.71,1.573c9.867,0,15.403-6.429,15.403-15.714c0-2.459,0.015-4.917,0.046-7.376l0.122-9.163
		C177.486,21.944,177.532,20.448,177.532,20.326z"/>
	<path fill="#87CF00" d="M197.8,27.946c-3.965-1.558-7.137-1.451-7.137-4.597c0-1.237,1.113-2.627,2.791-2.627
		c1.83,0,2.669,1.008,2.669,3.192c0,0.611-0.046,1.176-0.046,1.573c0,0.993,1.113,1.71,4.118,1.71c3.416,0,5.414-2.123,5.414-4.856
		c0-4.749-6.298-7.269-13.161-7.269c-6.039,0-12.566,3.528-12.566,9.117v0.168c0.061,4.016,3.233,7.055,7.595,8.46l1.723,0.565
		c3.355,0.947,6.253,1.848,6.253,4.093c0,1.695-1.113,2.535-3.004,2.535c-1.952,0-3.294-1.237-3.294-3.421
		c0-0.519,0.046-1.023,0.046-1.466c0-1.1-1.281-1.771-4.346-1.771c-3.187,0-5.414,2.23-5.414,5.085
		c0,5.528,8.098,7.269,13.115,7.269c6.314,0,14.397-2.352,14.397-9.117c0-3.97-3.065-6.902-9.15-8.659V27.946z"/>
	<path fill="#FF7709" d="M177.532,20.326c0-3.329-2.898-5.024-5.917-5.024c-2.562,0-5.856,1.39-5.856,5.024
		c0-0.046,0.168,5.818,0.168,11.01c0,3.467-1.617,6.215-3.355,6.215c-1.327,0-1.998-1.13-1.998-3.299V23.731
		c0-5.131-3.523-8.491-8.205-8.491c-2.684,0-6.756,2.245-6.756,4.138c0,1.283,3.736,0.061,3.736,8.323v8.384
		c0,5.421,3.401,9.224,7.641,9.224c3.294,0,6.71-1.894,8.876-6.139h0.168v5.253c-0.168,3.573-2.959,6.368-7.198,6.368
		c-6.466,0-7.93-4.474-9.379-4.474c-0.336,0-0.549,0.229-0.549,0.84c0,1.237,0.442,5.314,6.298,8.323
		c1.952,1.069,4.133,1.573,6.71,1.573c9.867,0,15.403-6.429,15.403-15.714c0-2.459,0.015-4.917,0.046-7.376l0.122-9.163
		C177.486,21.944,177.532,20.448,177.532,20.326z"/>
	<path fill="#50C3F0" d="M133.381,15.744c-1.22-0.29-2.516-0.443-3.843-0.443c-9.166,0-15.586,6.933-15.586,15.424
		c0,7.605,5.688,13.805,13.344,14.828c-6.237-1.97-10.599-7.559-10.599-14.217c0-9.254,7.397-15.912,16.532-15.393L133.381,15.744z"
		/>
	<path fill="#007BE6" d="M145.216,30.496c-0.076-4.933-2.41-9.3-6.085-12.064c1.983,3.894,3.233,5.436,3.233,12.278
		c-0.946,7.697-2.227,8.933-9.15,14.599C140.32,43.767,145.338,37.796,145.216,30.496z"/>
	<path fill="#FEEE28" d="M63.625,15.805c-0.885-0.412-1.922-0.626-2.974-0.626c-2.562,0-5.81,1.405-5.81,5.039
		c0,0.168,0.061,2.184,0.122,6.093c0.046,3.848,0.107,6.139,0.107,6.872l-0.061,0.061c0,7.361,5.002,11.438,11.133,12.247
		c-4.804-1.527-8.388-5.421-8.388-11.636l0.061-0.061c0-0.733-0.061-3.024-0.107-6.872c-0.061-3.909-0.122-5.925-0.122-6.093
		C57.586,17.424,60.545,15.714,63.625,15.805z M12.917,15.699c-0.946-0.412-2.013-0.626-3.172-0.626c-2.791,0-6.695,2.291-6.695,4.2
		c0,1.176,3.233,0,3.233,8.262c0,2.352-0.275,6.597-0.275,12.858c0,3.344,2.562,4.963,5.566,5.085
		c-1.678-0.764-2.821-2.23-2.821-4.474c0-6.261,0.275-10.506,0.275-12.858c0-8.262-3.233-7.101-3.233-8.262
		c0-1.909,3.904-4.2,6.695-4.2C12.627,15.683,12.78,15.683,12.917,15.699z"/>
	<path fill="#F8AA09" d="M50.601,33.016v-8.72c0-5.36-3.401-9.224-7.702-9.224c-0.625,0-1.266,0.076-1.906,0.229
		c3.431,0.886,5.948,4.383,5.948,8.995v8.72c0,8.216,3.752,7.269,3.752,8.323c0,1.542-2.684,3.314-5.155,3.925
		c0.641,0.137,1.296,0.214,1.998,0.214c2.73,0,6.802-2.23,6.802-4.138C54.338,40.285,50.601,41.232,50.601,33.016z M75.383,15.072
		c-0.625,0-1.235,0.076-1.815,0.214c3.919,0.932,6.695,4.978,6.695,12.751c0,4.658-1.876,16.493-13.451,17.531
		c0.671,0.061,1.327,0.076,1.983,0.076c13.07,0,15.129-12.736,15.129-17.607C83.924,19.104,80.248,15.072,75.383,15.072z"/>
	<path fill="#ED2B5C" d="M99.8,3.283c-2.089-0.137-3.858-0.229-4.987-0.229c-7.641,0-9.928,4.871-9.928,7.88
		c0,1.741,0.488,3.085,0.549,3.085c0.076,0.153,0.168,0.305,0.397,0.275c0.686-0.107,1.388-0.26,2.105-0.367
		c-0.153-0.55-0.32-1.405-0.32-2.382c0-3.008,2.288-7.88,9.943-7.88c0.824-0.015,1.525-0.061,2.242-0.107V3.283z M95.987,13.515
		l-0.397,22.8c-0.092,5.879,3.218,8.903,7.595,9.193c-2.913-1.176-4.926-4.016-4.85-8.582
		C98.412,32.206,99.174,19.516,95.987,13.515z"/>
	<path fill="#FA9F07" d="M155.678,15.867c-1.007-0.412-2.12-0.626-3.309-0.626c-2.684,0-6.756,2.245-6.756,4.138
		c0,1.283,3.736,0.061,3.736,8.323v8.384c0,5.391,3.355,9.163,7.549,9.224c-2.821-1.283-4.804-4.474-4.804-8.613v-8.384
		c0-8.262-3.736-7.04-3.736-8.323c0-1.894,4.072-4.138,6.756-4.138C155.296,15.851,155.495,15.867,155.678,15.867z M151.651,48.012
		c-0.976-0.901-1.586-1.695-2.196-1.695c-0.336,0-0.549,0.229-0.549,0.84c0,1.237,0.458,5.284,6.298,8.323
		c1.434,0.748,2.959,1.252,4.667,1.451c-0.671-0.214-1.296-0.519-1.922-0.84C152.444,53.25,151.712,49.478,151.651,48.012z"/>
	<path fill="#AB0A16" d="M119.32,4.398c-0.061-0.168-0.229-0.275-0.442-0.275l-2.959,0.046c-0.061,0.137-0.122,0.275-0.198,0.397
		c0.153,0.443,0.336,1.115,0.336,3.192c0,3.237-1.479,6.215-6.725,6.734c5.048,0.367,10.37-0.504,10.37-6.734
		C119.702,5.406,119.488,4.841,119.32,4.398z M103.917,45.538c2.959,0,7.641-2.459,7.641-4.474c0-1.176-3.294-0.061-3.63-7.819
		l-0.32-18.676c-1.617,4.78-2.288,7.101-2.257,18.676c0.015,7.773,2.547,6.643,2.547,7.819
		C108.096,43.11,106.525,44.133,103.917,45.538z"/>
	<path fill="#F54E03" d="M177.532,20.326c0-4.047-4.301-5.65-7.717-4.81c2.257,0.565,4.057,2.184,4.057,4.81
		c0,0.122-0.046,1.619-0.046,4.474c-0.076,5.513-0.168,11.026-0.168,16.538c0,8.674-4.819,14.843-13.497,15.622
		c0.564,0.061,1.144,0.092,1.754,0.092c9.867,0,15.403-6.429,15.403-15.714c0-5.513,0.092-11.026,0.168-16.538
		C177.486,21.944,177.532,20.448,177.532,20.326z"/>
	<path fill="#5BB809" d="M197.8,27.946c-0.747-0.29-1.495-0.534-2.257-0.779c-2.089-0.657-0.946-0.214-0.946-0.214
		c6.085,1.756,8.693,5.666,8.693,9.636c0,5.635-5.612,8.216-11.133,8.903l-0.107,0.214c5.688,0.122,14.9-1.848,14.9-9.117
		c0-3.97-3.065-6.902-9.15-8.659V27.946z M198.089,27.045c0.564,0.107,1.266,0.153,2.105,0.153c3.416,0,5.414-2.123,5.414-4.856
		c0-4.749-6.298-7.269-13.161-7.269c-0.534,0-1.052,0.031-1.586,0.076c6.009,0.458,11.102,2.932,11.102,7.193
		C201.963,24.632,200.545,26.495,198.089,27.045z"/>
	<path fill="#B5E22D" d="M199.187,15.989c-2.013-0.611-4.346-0.916-6.741-0.916c-6.039,0-12.566,3.528-12.566,9.117v0.168
		c0,4.016,3.233,7.055,7.595,8.46c0.839,0.275,1.678,0.55,2.516,0.809l0.076-0.244c-4.285-1.435-7.442-4.444-7.442-8.414V24.8
		c0-5.589,6.527-9.117,12.566-9.117C196.564,15.683,197.906,15.79,199.187,15.989z M188.497,33.978
		c-0.686-0.397-1.861-0.626-3.645-0.626c-3.187,0-5.414,2.23-5.414,5.085c0,4.23,4.728,6.246,9.196,6.948
		c-3.462-1.023-6.451-2.978-6.451-6.337c0-2.856,2.227-5.085,5.414-5.085C187.917,33.963,188.207,33.963,188.497,33.978z"/>
</g>
</svg>
