<?xml version="1.0" encoding="UTF-8" standalone="no"?>
<svg
   xmlns:dc="http://purl.org/dc/elements/1.1/"
   xmlns:cc="http://creativecommons.org/ns#"
   xmlns:rdf="http://www.w3.org/1999/02/22-rdf-syntax-ns#"
   xmlns:svg="http://www.w3.org/2000/svg"
   xmlns="http://www.w3.org/2000/svg"
   xmlns:sodipodi="http://sodipodi.sourceforge.net/DTD/sodipodi-0.dtd"
   xmlns:inkscape="http://www.inkscape.org/namespaces/inkscape"
   inkscape:version="1.0beta1 (32d4812, 2019-09-19)"
   sodipodi:docname="0-1.svg"
   id="svg13"
   version="1.1"
   width="512.00189"
   viewBox="0 0 60.000222 60.007453"
   height="512.0636">
  <metadata
     id="metadata19">
    <rdf:RDF>
      <cc:Work
         rdf:about="">
        <dc:format>image/svg+xml</dc:format>
        <dc:type
           rdf:resource="http://purl.org/dc/dcmitype/StillImage" />
      </cc:Work>
    </rdf:RDF>
  </metadata>
  <defs
     id="defs17" />
  <sodipodi:namedview
     inkscape:current-layer="svg13"
     inkscape:window-maximized="0"
     inkscape:window-y="23"
     inkscape:window-x="0"
     inkscape:cy="560"
     inkscape:cx="400"
     inkscape:zoom="0.35"
     showgrid="false"
     id="namedview15"
     inkscape:window-height="786"
     inkscape:window-width="1440"
     inkscape:pageshadow="2"
     inkscape:pageopacity="0"
     guidetolerance="10"
     gridtolerance="10"
     objecttolerance="10"
     borderopacity="1"
     inkscape:document-rotation="0"
     bordercolor="#666666"
     pagecolor="#ffffff" />
  <g
     fill-rule="evenodd"
     fill="none"
     id="Page-1">
    <g
       fill-rule="nonzero"
       fill="rgb(0,0,0)"
       id="024---Mobile">
      <path
         inkscape:connector-curvature="0"
         d="M 58,0 H 2 C 0.8954305,0 0,0.8954305 0,2 v 3 c 0.00330612,2.7600531 2.2399469,4.9966939 5,5 h 2 v 5.389 c -0.1644913,0.137632 -0.2986499,0.307884 -0.394,0.5 L 4.969,19.37 1.315,19.928 c -0.57447483,0.08756 -1.05083968,0.49085 -1.232,1.043 -0.18920297,0.559348 -0.04856128,1.177553 0.364,1.6 l 2.678,2.738 -0.632,3.87 c -0.1009996,0.592893 0.1480524,1.191007 0.64,1.537 0.4772991,0.341417 1.1088392,0.376481 1.621,0.09 L 8,29.018 l 3.246,1.79 c 0.51239,0.285487 1.143363,0.250455 1.621,-0.09 0.491948,-0.345993 0.741,-0.944107 0.64,-1.537 l -0.632,-3.87 2.679,-2.739 c 0.41242,-0.422545 0.552698,-1.04085 0.363,-1.6 -0.180999,-0.551864 -0.656904,-0.955088 -1.231,-1.043 L 11.031,19.371 9.394,15.891 C 9.298381,15.699055 9.1642629,15.528854 9,15.391 V 10 h 12 v 4.142 c -1.950307,0.503567 -3.221925,2.378787 -2.968119,4.377 0.253807,1.998214 1.953851,3.495983 3.968119,3.495983 2.014268,0 3.714312,-1.497769 3.968119,-3.495983 C 26.221925,16.520787 24.950307,14.645567 23,14.142 V 10 h 6 v 18.2 c -0.803739,-0.125537 -1.615552,-0.192381 -2.429,-0.2 -3.120441,-0.0017 -6.204556,0.669514 -9.042,1.968 -0.344653,0.183768 -0.55077,0.55138 -0.527771,0.941287 0.023,0.389907 0.270904,0.730738 0.634771,0.872713 4.648,1.814 9.65,6.411 9.65,12.218 0,5.807 -5,10.4 -9.65,12.218 -0.363867,0.141975 -0.611772,0.482806 -0.634771,0.872713 -0.023,0.389907 0.183118,0.757519 0.527771,0.941287 2.837444,1.298486 5.921559,1.969746 9.042,1.968 8.127708,0.246729 15.139561,-5.661023 16.275516,-13.712738 C 43.982472,38.235547 38.87873,30.618498 31,28.607 V 10 h 8 v 8.142 c -1.950307,0.503567 -3.221925,2.378787 -2.968119,4.377 0.253807,1.998214 1.953851,3.495983 3.968119,3.495983 2.014268,0 3.714312,-1.497769 3.968119,-3.495983 C 44.221925,20.520787 42.950307,18.645567 41,18.142 V 10 h 10 v 15.389 c -0.164491,0.137632 -0.29865,0.307884 -0.394,0.5 l -1.637,3.481 -3.654,0.558 c -0.574475,0.08756 -1.05084,0.49085 -1.232,1.043 -0.189203,0.559348 -0.04856,1.177553 0.364,1.6 l 2.678,2.738 -0.632,3.87 c -0.101,0.592893 0.148052,1.191007 0.64,1.537 0.477299,0.341417 1.108839,0.376481 1.621,0.09 L 52,39.018 l 3.246,1.79 c 0.51239,0.285487 1.143363,0.250455 1.621,-0.09 0.491948,-0.345993 0.741,-0.944107 0.64,-1.537 l -0.632,-3.87 2.679,-2.739 c 0.41242,-0.422544 0.552698,-1.04085 0.363,-1.6 -0.180999,-0.551864 -0.656904,-0.955088 -1.231,-1.043 L 55.031,29.371 53.394,25.892 C 53.298381,25.700055 53.164263,25.529854 53,25.392 V 10 h 2 C 57.760053,9.99669 59.996694,7.7600532 60,5 V 2 C 60,0.8954305 59.10457,0 58,0 Z M 9.322,20.436 c 0.2173147,0.467925 0.6541155,0.796276 1.164,0.875 l 3.049,0.464 -2.243,2.294 c -0.34737,0.358994 -0.504907,0.86089 -0.425,1.354 l 0.519,3.179 -2.647,-1.46 c -0.4594014,-0.256037 -1.0185986,-0.256037 -1.478,0 L 4.614,28.6 5.134,25.42 C 5.212832,24.927091 5.0550072,24.425831 4.708,24.067 L 2.465,21.775 5.513,21.311 C 6.0229733,21.23262 6.4600928,20.904688 6.678,20.437 L 8,17.626 Z M 24,18 c 0,1.104569 -0.89543,2 -2,2 -1.104569,0 -2,-0.895431 -2,-2 0,-1.10457 0.895431,-2 2,-2 1.10457,0 2,0.89543 2,2 z m 17,26 c -0.1288,7.845983 -6.582704,14.108 -14.429,14 -2.058011,-0.02481 -4.102708,-0.334068 -6.076,-0.919 4.551,-2.5 8.791,-7.245 8.791,-13.081 0,-5.836 -4.24,-10.579 -8.79,-13.081 C 22.468934,30.333996 24.513311,30.024731 26.571,30 34.417296,29.892 40.8712,36.154017 41,44 Z m 1,-22 c 0,1.104569 -0.895431,2 -2,2 -1.104569,0 -2,-0.895431 -2,-2 0,-1.10457 0.895431,-2 2,-2 1.104569,0 2,0.89543 2,2 z m 11.322,8.436 c 0.217315,0.467925 0.654116,0.796276 1.164,0.875 l 3.049,0.464 -2.243,2.294 c -0.34737,0.358994 -0.504908,0.86089 -0.425,1.354 l 0.519,3.179 -2.647,-1.46 c -0.459401,-0.256037 -1.018599,-0.256037 -1.478,0 l -2.647,1.458 0.52,-3.18 c 0.07883,-0.492909 -0.07899,-0.994169 -0.426,-1.353 l -2.243,-2.294 3.048,-0.464 c 0.509973,-0.07838 0.947093,-0.406312 1.165,-0.874 L 52,27.626 Z M 58,5 c 0,1.6568543 -1.343146,3 -3,3 H 5 C 3.3431457,8 2,6.6568543 2,5 V 2 h 56 z"
         id="Shape" />
    </g>
  </g>
</svg>
