<?xml version="1.0" encoding="UTF-8" standalone="no"?>
<svg
   xmlns:dc="http://purl.org/dc/elements/1.1/"
   xmlns:cc="http://creativecommons.org/ns#"
   xmlns:rdf="http://www.w3.org/1999/02/22-rdf-syntax-ns#"
   xmlns:svg="http://www.w3.org/2000/svg"
   xmlns="http://www.w3.org/2000/svg"
   xmlns:sodipodi="http://sodipodi.sourceforge.net/DTD/sodipodi-0.dtd"
   xmlns:inkscape="http://www.inkscape.org/namespaces/inkscape"
   inkscape:version="1.0beta1 (32d4812, 2019-09-19)"
   sodipodi:docname="12+.svg"
   id="svg395"
   version="1.1"
   width="494.99542pt"
   viewBox="0 0 494.99542 495.9453"
   height="494.9993pt">
  <metadata
     id="metadata401">
    <rdf:RDF>
      <cc:Work
         rdf:about="">
        <dc:format>image/svg+xml</dc:format>
        <dc:type
           rdf:resource="http://purl.org/dc/dcmitype/StillImage" />
      </cc:Work>
    </rdf:RDF>
  </metadata>
  <defs
     id="defs399" />
  <sodipodi:namedview
     inkscape:current-layer="svg395"
     inkscape:window-maximized="0"
     inkscape:window-y="23"
     inkscape:window-x="0"
     inkscape:cy="330"
     inkscape:cx="328.74153"
     inkscape:zoom="0.41212121"
     showgrid="false"
     id="namedview397"
     inkscape:window-height="480"
     inkscape:window-width="722"
     inkscape:pageshadow="2"
     inkscape:pageopacity="0"
     guidetolerance="10"
     gridtolerance="10"
     objecttolerance="10"
     borderopacity="1"
     inkscape:document-rotation="0"
     bordercolor="#666666"
     pagecolor="#ffffff" />
  <path
     inkscape:connector-curvature="0"
     id="path387"
     d="m 247.49575,183.96875 c -35.28516,0 -64,28.71484 -64,64 0,35.28906 28.71484,64 64,64 35.28906,0 64,-28.71094 64,-64 0,-35.28516 -28.71094,-64 -64,-64 z m 0,112 c -26.46875,0 -48,-21.52734 -48,-48 0,-26.47266 21.53125,-48 48,-48 26.47265,0 48,21.52734 48,48 0,26.47266 -21.52735,48 -48,48 z m 0,0" />
  <path
     inkscape:connector-curvature="0"
     id="path389"
     d="m 465.44106,398.02734 c 4.8789,4.87891 8.41797,10.57422 10.7539,16.63672 l -46.29687,-5.14062 c 0.59766,-1.91407 1.01562,-3.86719 1.23828,-5.88282 l 41.05078,-41.04687 c 4.64453,-4.64844 7.3086,-11.07813 7.3086,-17.65625 0,-13.76563 -11.19922,-24.96875 -24.96485,-24.96875 -6.67187,0 -12.94531,2.59375 -17.65625,7.3125 l -39.60937,39.60937 -19.09766,-23.14453 c -22.35937,-27.10547 -34.67187,-61.375 -34.67187,-96.51953 V 244.625 c 0,-34.59766 11.97656,-68.47266 33.73046,-95.36719 l 17.58204,-21.74219 c 0.33593,0.0469 0.67968,0.0625 1.01562,0.0937 l 41.05078,41.04688 c 4.71094,4.72266 10.98438,7.3125 17.65625,7.3125 13.76563,0 24.96485,-11.19922 24.96485,-24.96484 0,-6.57813 -2.66407,-13.01172 -7.3086,-17.65625 L 431.13637,92.296875 c -0.23047,-2.015625 -0.64844,-3.96875 -1.23828,-5.878906 l 46.29687,-5.144531 c -2.33593,6.066406 -5.875,11.761718 -10.7539,16.640624 l 11.3125,11.312498 c 24.95312,-24.953122 24.95312,-65.562498 0,-90.511716 -24.95313,-24.9531252 -65.55078,-24.9531252 -90.50391,0 l 11.3125,11.3125 c 4.81641,-4.808594 10.48047,-8.433594 16.64844,-10.816406 l -5.17578,46.582031 C 407.21059,65.25 405.37075,64.867188 403.48793,64.640625 L 362.12856,23.28125 c -4.71875,-4.71875 -10.99219,-7.3125 -17.66406,-7.3125 -13.76563,0 -24.96875,11.203125 -24.96875,24.96875 0,6.578125 2.66406,13.007812 7.3125,17.65625 l 40.04296,40.039062 -19.29687,16.609378 c -27.51953,23.67968 -62.66406,36.72656 -98.96094,36.72656 -36.63281,0 -72.00781,-13.24609 -99.625,-37.30469 L 129.27309,97.515625 168.18715,58.601562 c 4.64453,-4.65625 7.3086,-11.085937 7.3086,-17.664062 0,-13.765625 -11.19922,-24.96875 -24.96485,-24.96875 -6.67187,0 -12.94531,2.59375 -17.65625,7.3125 L 91.515282,64.640625 c -1.890626,0.226563 -3.730469,0.617187 -5.546876,1.152344 L 80.792625,19.210938 c 6.160157,2.375 11.832031,6 16.648438,10.816406 l 11.312497,-11.3125 c -24.953122,-24.9531252 -65.550778,-24.9531252 -90.503904,0 -24.9531242,24.949218 -24.9531242,65.558594 0,90.511716 l 11.3125,-11.312498 C 24.68325,93.035156 21.144188,87.339844 18.80825,81.273438 l 46.289063,5.144531 c -0.601563,1.910156 -1.015625,3.863281 -1.238281,5.878906 L 22.80825,133.34766 c -4.648437,4.64453 -7.3125,11.07812 -7.3125,17.65625 0,13.76562 11.203125,24.96484 24.96875,24.96484 6.671875,0 12.945313,-2.58984 17.65625,-7.3125 l 41.046874,-41.04688 c 0.29688,-0.0312 0.60156,-0.0469 0.898436,-0.0859 l 16.93359,20.59765 c 22.25,27.07422 34.4961,61.28125 34.4961,96.32032 v 5.28906 c 0,34.8164 -12.10938,68.83203 -34.09375,95.8164 L 98.984032,368.15234 58.12075,327.28906 c -4.710937,-4.72656 -10.984375,-7.32031 -17.65625,-7.32031 -13.765625,0 -24.96875,11.20312 -24.96875,24.96875 0,6.57812 2.664063,13.00781 7.3125,17.65625 l 41.050782,41.04687 c 0.230468,2.01563 0.644531,3.96875 1.238281,5.88282 l -46.296875,5.14062 c 2.335937,-6.0625 5.871094,-11.75781 10.753906,-16.63672 l -11.3125,-11.3125 c -24.9531253,24.94922 -24.9531253,65.5586 0,90.51172 12.480469,12.48047 28.863281,18.71875 45.253906,18.71875 16.394532,0 32.777344,-6.23828 45.25781,-18.71875 l -11.312497,-11.3125 c -4.816407,4.8086 -10.480469,8.4336 -16.648438,10.81641 l 5.152344,-46.35938 c 1.914063,0.59766 3.863281,1.01563 5.878906,1.23828 l 41.050775,41.04688 c 4.71094,4.72266 10.98438,7.3125 17.65625,7.3125 13.76563,0 24.96485,-11.19922 24.96485,-24.96484 0,-6.57813 -2.66407,-13.01172 -7.3086,-17.65625 l -40.15234,-40.15235 18.13281,-15.83203 c 27.64063,-24.11328 63.05859,-37.39453 99.72266,-37.39453 h 3.58984 c 36.95313,0 72.57813,13.46484 100.30469,37.89062 l 17.28125,15.23047 -40.25,40.25 c -4.65625,4.65235 -7.32031,11.08594 -7.32031,17.66407 0,13.76562 11.20312,24.96484 24.96875,24.96484 6.67187,0 12.94531,-2.58984 17.65625,-7.3125 l 41.04687,-41.04688 c 2.01953,-0.23046 3.96875,-0.64843 5.88281,-1.23828 l 5.15235,46.35938 c -6.16016,-2.375 -11.83203,-6 -16.64844,-10.81641 l -11.3125,11.3125 c 12.48047,12.48047 28.86328,18.71875 45.25391,18.71875 16.39453,0 32.77734,-6.23828 45.25781,-18.71875 24.95312,-24.95312 24.95312,-65.5625 0,-90.51172 z m -77.25391,13.25391 c -3.02734,-3.02344 -4.6914,-7.03906 -4.6914,-11.3125 0,-4.26953 1.66406,-8.28516 4.6914,-11.3125 3.02344,-3.02344 7.03907,-4.6875 11.3086,-4.6875 4.27343,0 8.28906,1.66406 11.3125,4.6875 3.02343,3.02734 4.6875,7.04297 4.6875,11.3125 0,4.27344 -1.66407,8.28906 -4.6875,11.3125 -6.04688,6.04687 -16.57422,6.04687 -22.6211,0 z m 60,-72.6875 c 1.69532,-1.69531 3.94141,-2.625 6.34375,-2.625 4.94141,0 8.96485,4.02344 8.96485,8.96875 0,2.35937 -0.95703,4.67187 -2.6211,6.34375 l -33.41797,33.41797 c -1.44922,-2.64063 -3.14453,-5.16016 -5.33593,-7.35156 -2.19141,-2.20313 -4.75,-3.85938 -7.42969,-5.25782 z m -48.6914,-258.625 c 4.27343,0 8.28906,1.664062 11.3125,4.6875 3.02343,3.027344 4.6875,7.042969 4.6875,11.3125 0,4.27344 -1.66407,8.28906 -4.6875,11.3125 -6.04688,6.04688 -16.57422,6.04688 -22.6211,0 -3.02734,-3.02344 -4.6914,-7.03906 -4.6914,-11.3125 0,-4.269531 1.66406,-8.285156 4.6914,-11.3125 3.02344,-3.023438 7.03907,-4.6875 11.3086,-4.6875 z m 64,71.03516 c 0,4.9414 -4.02344,8.96484 -8.96485,8.96484 -2.40234,0 -4.64843,-0.92578 -6.34375,-2.62109 l -33.41797,-33.41797 c 2.64063,-1.44922 5.16016,-3.14453 7.35157,-5.33594 2.1914,-2.19141 3.88672,-4.70312 5.33593,-7.35156 l 33.41797,33.41406 c 1.66407,1.67187 2.6211,3.98437 2.6211,6.34766 z m -32,-135.03516 c 10.11328,0 19.71484,3.144531 27.78515,8.90625 L 433.8395,50.3125 445.152,61.625 470.52309,36.25 c 6.05469,8.527344 9.04687,18.535156 8.87109,28.566406 l -54.83984,6.097656 6.10156,-54.902343 c 0.28125,0 0.55469,-0.04297 0.83985,-0.04297 z m -96,24.96875 c 0,-4.945312 4.02734,-8.96875 8.96875,-8.96875 2.40234,0 4.64843,0.929688 6.34375,2.625 l 33.49609,33.496094 c -2.67969,1.398437 -5.23828,3.054687 -7.42969,5.257812 -2.1914,2.191406 -3.89062,4.703125 -5.33594,7.351563 L 338.12075,47.28125 c -1.66407,-1.671875 -2.625,-3.984375 -2.625,-6.34375 z M 84.187156,84.65625 c 3.023438,-3.023438 7.039063,-4.6875 11.308594,-4.6875 4.273434,0 8.28906,1.664062 11.3125,4.6875 3.02343,3.027344 4.6875,7.042969 4.6875,11.3125 0,4.27344 -1.66407,8.28906 -4.6875,11.3125 -6.04688,6.04688 -16.574218,6.04688 -22.621094,0 -3.027343,-3.02344 -4.691406,-7.03906 -4.691406,-11.3125 0,-4.269531 1.664063,-8.285156 4.691406,-11.3125 z m 59.999994,-50.0625 c 1.69532,-1.695312 3.94141,-2.625 6.34375,-2.625 4.94141,0 8.96485,4.023438 8.96485,8.96875 0,2.359375 -0.95703,4.671875 -2.6211,6.34375 l -33.41797,33.417969 c -1.44921,-2.640625 -3.14453,-5.160157 -5.33593,-7.351563 -2.19141,-2.203125 -4.75,-3.859375 -7.42969,-5.257812 z m -119.714837,1.664062 25.367187,25.375 11.3125,-11.3125 -25.4375,-25.4375 c 8.070313,-5.769531 17.671875,-8.914062 27.78125,-8.914062 0.289063,0 0.5625,0.04297 0.847656,0.04297 L 70.448875,70.914062 15.601219,64.816406 C 15.425438,54.785156 18.417625,44.777344 24.472313,36.257812 Z M 46.80825,157.34766 c -1.695312,1.69531 -3.941406,2.62109 -6.34375,2.62109 -4.941406,0 -8.96875,-4.02344 -8.96875,-8.96484 0,-2.36329 0.960938,-4.67579 2.625,-6.34766 l 33.417969,-33.41406 c 1.445313,2.64062 3.144531,5.16015 5.335937,7.35156 2.191407,2.19141 4.710938,3.88672 7.351563,5.33594 z m 37.378906,253.93359 c -3.027343,-3.02344 -4.691406,-7.03906 -4.691406,-11.3125 0,-4.26953 1.664063,-8.28516 4.691406,-11.3125 3.023438,-3.02344 7.039063,-4.6875 11.308594,-4.6875 4.273434,0 8.28906,1.66406 11.3125,4.6875 3.02343,3.02734 4.6875,7.04297 4.6875,11.3125 0,4.27344 -1.66407,8.28906 -4.6875,11.3125 -6.04688,6.04687 -16.574218,6.04687 -22.621094,0 z M 31.49575,344.9375 c 0,-4.94531 4.027344,-8.96875 8.96875,-8.96875 2.402344,0 4.648438,0.92969 6.34375,2.625 l 33.496094,33.49609 c -2.679688,1.39844 -5.238281,3.05469 -7.429688,5.25782 -2.191406,2.1914 -3.890624,4.70312 -5.335937,7.35156 L 34.12075,351.28125 c -1.664062,-1.67188 -2.625,-3.98438 -2.625,-6.34375 z m 32,135.03125 c -10.109375,0 -19.710937,-3.14453 -27.78125,-8.90234 L 61.152,445.625 49.8395,434.3125 24.472313,459.69141 c -6.054688,-8.53125 -9.046875,-18.53907 -8.871094,-28.57032 l 54.839844,-6.09375 -6.105469,54.90235 c -0.277344,0 -0.550781,0.0391 -0.839844,0.0391 z m 96,-24.96484 c 0,4.9414 -4.02344,8.96484 -8.96485,8.96484 -2.40234,0 -4.64843,-0.92578 -6.34375,-2.62109 l -33.41797,-33.41797 c 2.64063,-1.44922 5.16016,-3.14453 7.35157,-5.33594 2.1914,-2.19141 3.88672,-4.70313 5.33593,-7.35156 l 33.41797,33.41406 c 1.66407,1.67187 2.6211,3.98437 2.6211,6.34766 z m 89.98437,-127.03516 h -3.58984 c -40.53516,0 -79.6875,14.67969 -110.25,41.33594 l -14.04688,12.26562 c -1.04687,-1.48047 -2.16797,-2.92187 -3.47265,-4.22265 -1.11328,-1.11328 -2.36719,-2.00782 -3.61719,-2.91407 l 15.29687,-18.78515 c 24.3125,-29.82422 37.69532,-67.4375 37.69532,-105.91797 v -5.28906 c 0,-38.73438 -13.54297,-76.54297 -38.13282,-106.47266 l -14.03515,-17.07031 c 0.94531,-0.75391 1.92969,-1.4336 2.80078,-2.29688 1.73828,-1.73437 3.17578,-3.67187 4.45703,-5.70312 l 15.87891,13.83203 c 30.51953,26.58984 69.63281,41.23828 110.1289,41.23828 40.12891,0 78.98438,-14.42187 109.39844,-40.59766 l 15.28125,-13.15234 c 1.07031,1.53516 2.25,3.02344 3.60156,4.375 0.84766,0.84766 1.81641,1.51172 2.74219,2.25781 l -14.83203,18.34375 c -24.04688,29.73438 -37.28906,67.1836 -37.28906,105.42969 v 2.60156 c 0,38.83985 13.61718,76.74219 38.33593,106.70313 l 16.01953,19.41797 c -1.77734,1.14062 -3.44921,2.46875 -4.97656,4 -1.27344,1.26953 -2.35156,2.67187 -3.3789,4.10156 L 360.36293,369.86719 C 329.7145,342.84375 290.32778,327.96875 249.48012,327.96875 Z m 101.32813,133.37891 c -1.69532,1.69531 -3.94141,2.62109 -6.34375,2.62109 -4.94141,0 -8.96875,-4.02344 -8.96875,-8.96484 0,-2.36328 0.96093,-4.67578 2.625,-6.34766 l 33.41796,-33.41406 c 1.44532,2.64062 3.14454,5.16015 5.33594,7.35156 2.19141,2.19141 4.71094,3.88672 7.35156,5.33594 z m 119.71484,-1.66407 -25.37109,-25.3789 -11.3125,11.3125 25.4414,25.4414 c -8.07031,5.76563 -17.67187,8.91016 -27.78515,8.91016 -0.28516,0 -0.5586,-0.0391 -0.84766,-0.0391 l -6.10156,-54.90235 54.83984,6.09375 c 0.1836,10.03125 -2.80859,20.03907 -8.86328,28.5625 z m 0,0" />
  <path
     inkscape:connector-curvature="0"
     id="path391"
     d="m 223.49575,223.96875 h 48 v 16 h -48 z m 0,0" />
  <path
     inkscape:connector-curvature="0"
     id="path393"
     d="m 223.49575,255.96875 h 48 v 16 h -48 z m 0,0" />
</svg>
