<?xml version="1.0" encoding="UTF-8" standalone="no"?>
<svg
   xmlns:dc="http://purl.org/dc/elements/1.1/"
   xmlns:cc="http://creativecommons.org/ns#"
   xmlns:rdf="http://www.w3.org/1999/02/22-rdf-syntax-ns#"
   xmlns:svg="http://www.w3.org/2000/svg"
   xmlns="http://www.w3.org/2000/svg"
   xmlns:sodipodi="http://sodipodi.sourceforge.net/DTD/sodipodi-0.dtd"
   xmlns:inkscape="http://www.inkscape.org/namespaces/inkscape"
   inkscape:version="1.0beta1 (32d4812, 2019-09-19)"
   height="462.55701"
   width="397.30679"
   sodipodi:docname="2-3.svg"
   xml:space="preserve"
   viewBox="0 0 397.30679 462.557"
   y="0px"
   x="0px"
   id="Capa_1"
   version="1.1"><metadata
   id="metadata64">
  <rdf:RDF>
    <cc:Work
       rdf:about="">
      <dc:format>image/svg+xml</dc:format>
      <dc:type
         rdf:resource="http://purl.org/dc/dcmitype/StillImage" />
    </cc:Work>
  </rdf:RDF>
</metadata>
<defs
   id="defs62" />
<sodipodi:namedview
   inkscape:current-layer="Capa_1"
   inkscape:window-maximized="0"
   inkscape:window-y="206"
   inkscape:window-x="644"
   inkscape:cy="231.2785"
   inkscape:cx="198.65215"
   inkscape:zoom="0.58803563"
   showgrid="false"
   id="namedview60"
   inkscape:window-height="480"
   inkscape:window-width="722"
   inkscape:pageshadow="2"
   inkscape:pageopacity="0"
   guidetolerance="10"
   gridtolerance="10"
   objecttolerance="10"
   borderopacity="1"
   inkscape:document-rotation="0"
   bordercolor="#666666"
   pagecolor="#ffffff" />

<g
   transform="translate(-32.626351)"
   id="g27">
	<circle
   id="circle21"
   r="11.693"
   cy="107.574"
   cx="301.82001" />

	<circle
   id="circle23"
   r="11.693"
   cy="107.574"
   cx="160.737" />

	<path
   inkscape:connector-curvature="0"
   id="path25"
   d="m 416.177,331.699 c 7.373,-7.075 11.565,-16.515 12.476,-28.192 2.503,-32.137 -13.866,-60.119 -47.336,-80.919 -18.528,-11.514 -37.255,-17.733 -45.658,-20.17 14.455,-18.086 22.951,-40.081 22.951,-63.783 0,-13.488 -2.735,-27.78 -7.798,-41.891 19.249,-4.749 33.572,-22.154 33.572,-42.839 0,-24.332 -19.795,-44.127 -44.127,-44.127 -14.594,0 -28.138,7.347 -36.266,19.018 C 282.056,10.083 256.884,0 231.279,0 205.673,0 180.5,10.083 158.565,28.798 150.437,17.126 136.892,9.778 122.298,9.778 c -24.332,0 -44.127,19.795 -44.127,44.127 0,20.687 14.324,38.092 33.575,42.84 -5.063,14.111 -7.797,28.402 -7.797,41.89 0,23.747 8.527,45.78 23.032,63.885 -8.57,2.508 -27.039,8.716 -45.306,20.068 -33.47,20.8 -49.839,48.781 -47.335,80.92 0.901,11.557 5.011,20.928 12.245,27.979 C 35.01,343.13 29.738,359.736 34.21,375.72 l 15.094,53.943 c 5.591,19.98 24.7,32.893 45.923,32.893 4.728,0 9.561,-0.641 14.373,-1.987 0.01,-0.003 0.019,-0.006 0.029,-0.009 v 10e-4 l 79.474,-22.586 c 13.616,3.528 27.792,5.335 42.176,5.335 14.404,0 28.596,-1.827 42.172,-5.337 l 79.481,22.589 v -0.001 c 0.01,0.003 0.019,0.006 0.029,0.009 v 0 c 4.813,1.347 9.644,1.987 14.373,1.987 21.221,0 40.332,-12.914 45.923,-32.893 l 15.094,-53.943 c 4.444,-15.889 -0.744,-32.389 -12.174,-44.022 z m -2.479,-29.357 c -0.688,8.815 -3.905,15.44 -9.782,20.149 -3.431,-1.858 -7.129,-3.379 -11.067,-4.481 -4.328,-1.211 -8.719,-1.856 -13.077,-1.972 0.02,-0.875 0.033,-1.754 0.033,-2.637 0,-29.245 -11.126,-61.814 -30.044,-90.06 26.613,11.069 67.342,35.283 63.937,79.001 z M 340.256,24.778 c 16.061,0 29.127,13.066 29.127,29.127 0,14.455 -10.596,26.485 -24.431,28.742 -6.006,-12.663 -13.845,-24.901 -23.218,-35.967 -2.173,-2.566 -4.399,-5.026 -6.665,-7.394 5.148,-8.828 14.759,-14.508 25.187,-14.508 z M 93.17,53.905 c 0,-16.061 13.066,-29.127 29.127,-29.127 10.428,0 20.04,5.681 25.187,14.511 -2.265,2.367 -4.49,4.826 -6.662,7.391 C 131.45,57.746 123.611,69.984 117.604,82.647 103.768,80.392 93.17,68.362 93.17,53.905 Z m 59.099,2.47 C 174.866,29.694 202.926,15 231.279,15 c 28.353,0 56.413,14.694 79.01,41.375 20.864,24.635 33.321,55.386 33.321,82.26 0,51.047 -46.375,92.957 -104.831,96.284 v -87.736 c 15.039,-1.834 25.322,-9.179 25.322,-18.808 0,-11.158 -13.804,-19.257 -32.822,-19.257 -19.019,0 -32.823,8.099 -32.823,19.257 0,9.629 10.283,16.974 25.323,18.808 v 87.736 c -58.455,-3.327 -104.831,-45.237 -104.831,-96.284 0,-26.874 12.456,-57.625 33.321,-82.26 z m 79.01,76.257 c -9.294,0 -15.306,-2.606 -17.315,-4.257 2.009,-1.651 8.021,-4.257 17.315,-4.257 9.294,0 15.306,2.606 17.315,4.257 -2.009,1.651 -8.021,4.257 -17.315,4.257 z M 89.29,235.517 c 8.015,-5.009 16.172,-8.951 23.355,-11.957 -18.829,28.196 -29.897,60.672 -29.897,89.841 0,0.881 0.013,1.76 0.033,2.637 -4.356,0.116 -8.746,0.761 -13.073,1.972 -3.838,1.074 -7.446,2.549 -10.804,4.343 -5.769,-4.7 -8.931,-11.281 -9.612,-20.009 -2.061,-26.468 11.396,-48.951 39.998,-66.827 z m 16.266,210.607 v 0 C 87.112,451.285 68.354,442.088 63.747,425.621 L 48.653,371.678 c -4.607,-16.466 6.651,-34.062 25.097,-39.223 9.06,-2.536 18.439,-1.722 26.407,2.29 7.735,3.895 13.205,10.363 15.401,18.212 l 15.094,53.943 c 2.197,7.85 0.878,16.217 -3.713,23.561 -4.728,7.565 -12.323,13.128 -21.383,15.663 z m 40.775,-26.121 c 5.757,3.523 11.771,6.658 18.012,9.413 l -23.299,6.622 c 2.807,-5.107 4.576,-10.525 5.287,-16.035 z m 44.899,3.038 c -0.07,-0.019 -0.141,-0.037 -0.212,-0.054 -17.158,-4.66 -32.798,-12.164 -46.527,-22.298 l -14.487,-51.773 c -3.347,-11.962 -11.551,-21.753 -23.101,-27.568 -2.905,-1.463 -5.937,-2.623 -9.05,-3.487 -0.066,-1.474 -0.104,-2.962 -0.104,-4.46 0,-32.436 15.358,-69.648 40.454,-98.762 23.258,21.828 56.376,35.501 93.076,35.501 36.699,0 69.816,-13.672 93.074,-35.499 25.095,29.113 40.452,66.324 40.452,98.76 0,1.506 -0.038,2.993 -0.104,4.461 -3.112,0.864 -6.142,2.024 -9.046,3.486 -11.55,5.815 -19.754,15.606 -23.101,27.568 l -14.488,51.779 c -24.152,17.823 -54.864,27.615 -86.788,27.615 -13.692,0 -27.166,-1.773 -40.048,-5.269 z m 124.994,-3.055 c 0.71,5.516 2.479,10.94 5.289,16.053 l -23.339,-6.633 c 6.246,-2.755 12.28,-5.899 18.05,-9.42 z m 97.68,-48.308 -15.094,53.943 c -4.608,16.467 -23.364,25.665 -41.809,20.503 -9.06,-2.535 -16.654,-8.098 -21.384,-15.663 -4.59,-7.344 -5.909,-15.711 -3.712,-23.561 l 15.094,-53.943 c 2.196,-7.85 7.666,-14.318 15.401,-18.212 7.969,-4.012 17.347,-4.826 26.407,-2.29 18.446,5.161 29.704,22.757 25.097,39.223 z" />

</g>

<g
   transform="translate(-32.626351)"
   id="g29">
</g>

<g
   transform="translate(-32.626351)"
   id="g31">
</g>

<g
   transform="translate(-32.626351)"
   id="g33">
</g>

<g
   transform="translate(-32.626351)"
   id="g35">
</g>

<g
   transform="translate(-32.626351)"
   id="g37">
</g>

<g
   transform="translate(-32.626351)"
   id="g39">
</g>

<g
   transform="translate(-32.626351)"
   id="g41">
</g>

<g
   transform="translate(-32.626351)"
   id="g43">
</g>

<g
   transform="translate(-32.626351)"
   id="g45">
</g>

<g
   transform="translate(-32.626351)"
   id="g47">
</g>

<g
   transform="translate(-32.626351)"
   id="g49">
</g>

<g
   transform="translate(-32.626351)"
   id="g51">
</g>

<g
   transform="translate(-32.626351)"
   id="g53">
</g>

<g
   transform="translate(-32.626351)"
   id="g55">
</g>

<g
   transform="translate(-32.626351)"
   id="g57">
</g>

</svg>
