<?xml version="1.0" encoding="UTF-8" standalone="no"?>
<svg
   xmlns:dc="http://purl.org/dc/elements/1.1/"
   xmlns:cc="http://creativecommons.org/ns#"
   xmlns:rdf="http://www.w3.org/1999/02/22-rdf-syntax-ns#"
   xmlns:svg="http://www.w3.org/2000/svg"
   xmlns="http://www.w3.org/2000/svg"
   xmlns:sodipodi="http://sodipodi.sourceforge.net/DTD/sodipodi-0.dtd"
   xmlns:inkscape="http://www.inkscape.org/namespaces/inkscape"
   inkscape:version="1.0beta1 (32d4812, 2019-09-19)"
   sodipodi:docname="4-5.svg"
   id="svg74"
   version="1.1"
   width="512pt"
   viewBox="0 -26 512 460.80078"
   height="460.80078pt">
  <metadata
     id="metadata80">
    <rdf:RDF>
      <cc:Work
         rdf:about="">
        <dc:format>image/svg+xml</dc:format>
        <dc:type
           rdf:resource="http://purl.org/dc/dcmitype/StillImage" />
      </cc:Work>
    </rdf:RDF>
  </metadata>
  <defs
     id="defs78" />
  <sodipodi:namedview
     inkscape:current-layer="svg74"
     inkscape:window-maximized="0"
     inkscape:window-y="96"
     inkscape:window-x="135"
     inkscape:cy="306.66667"
     inkscape:cx="341.33333"
     inkscape:zoom="0.3984375"
     showgrid="false"
     id="namedview76"
     inkscape:window-height="480"
     inkscape:window-width="722"
     inkscape:pageshadow="2"
     inkscape:pageopacity="0"
     guidetolerance="10"
     gridtolerance="10"
     objecttolerance="10"
     borderopacity="1"
     inkscape:document-rotation="0"
     bordercolor="#666666"
     pagecolor="#ffffff" />
  <path
     inkscape:connector-curvature="0"
     id="path66"
     d="m 93.867188,366.53516 h 29.867192 c 13.33203,0 25.05078,-8.83594 28.71484,-21.65235 3.66406,-12.82031 -1.60938,-26.51562 -12.92969,-33.55859 6.49609,-9.10547 7.35938,-21.07422 2.23438,-31.01563 -5.1211,-9.9375 -15.3711,-16.18359 -26.55469,-16.17578 H 93.867188 c -4.714844,0 -8.535157,3.82031 -8.535157,8.53516 V 358 c 0,4.71094 3.820313,8.53516 8.535157,8.53516 z m 8.531252,-85.33594 h 12.80078 C 122.26953,281.19922 128,286.92969 128,294 c 0,7.07031 -5.73047,12.80078 -12.80078,12.80078 h -12.80078 z m 0,42.66797 h 21.33594 c 7.0664,0 12.80078,5.73047 12.80078,12.80078 0,7.0664 -5.73438,12.79687 -12.80078,12.79687 h -21.33594 z m 0,0" />
  <path
     inkscape:connector-curvature="0"
     id="path68"
     d="M 494.93359,195.86719 H 375.46484 V -8.933594 C 375.45703,-18.355469 367.82031,-25.988281 358.39844,-26 H 153.60156 c -9.42187,0.01172 -17.05859,7.644531 -17.0664,17.066406 V 195.86719 H 17.066406 C 7.644531,195.87891 0.0117188,203.51172 0,212.93359 v 204.80078 c 0.0117188,9.42188 7.644531,17.05469 17.066406,17.06641 H 221.86719 c 9.42187,-0.0117 17.05469,-7.64453 17.0664,-17.06641 V 212.93359 h 34.13282 v 204.80078 c 0.0117,9.42188 7.64453,17.05469 17.0664,17.06641 h 204.80078 c 9.42188,-0.0117 17.05469,-7.64453 17.06641,-17.06641 V 212.93359 c -0.0117,-9.42187 -7.64453,-17.05468 -17.06641,-17.0664 z m 0,17.08984 v 41.92969 c -21.46875,-3.66406 -38.28906,-20.48047 -41.95703,-41.94922 z m -59.13672,-0.0234 c 3.9375,30.88282 28.25391,55.20313 59.13672,59.14063 v 86.52344 c -30.88281,3.9375 -55.19922,28.2539 -59.13672,59.13671 h -86.52343 c -3.9375,-30.88671 -28.25391,-55.20703 -59.14063,-59.14062 v -86.51953 c 30.88672,-3.9336 55.20313,-28.25391 59.14063,-59.14063 z m -145.66406,0 h 41.95703 c -3.66797,21.46875 -20.48437,38.28516 -41.95703,41.95313 z m 51.19922,-17.0664 h -24.89062 c 3.66797,-21.46875 20.48828,-38.28907 41.95703,-41.95313 v 41.95313 z M 358.39844,-8.910156 V 33.019531 C 336.92969,29.355469 320.11328,12.539062 316.44141,-8.929688 Z m -162.83985,-0.02344 c -3.66796,21.46875 -20.48828,38.289063 -41.95703,41.953125 V -8.933594 Z m 26.3086,221.890626 v 41.92969 c -21.46485,-3.66406 -38.28125,-20.47266 -41.95313,-41.9336 z m -51.19922,-17.08984 h -17.06641 v -41.95313 c 21.46875,3.66406 38.28907,20.48438 41.95703,41.95313 z m -7.9375,17.08593 c 3.94531,30.875 28.25781,55.1836 59.13672,59.1211 v 86.52344 c -30.88281,3.9375 -55.19922,28.2539 -59.13672,59.13671 H 76.207031 c -3.9375,-30.88671 -28.257812,-55.20312 -59.140625,-59.13671 v -86.52344 c 30.882813,-3.9375 55.199219,-28.25391 59.136719,-59.13672 z m -145.664064,-0.0195 41.957032,0.004 c -3.667969,21.46875 -20.488282,38.28516 -41.957032,41.94922 z m 0,204.80078 v -41.95703 c 21.46875,3.66797 38.289063,20.48438 41.957032,41.95703 z m 204.800784,0 h -41.95703 c 3.66797,-21.47265 20.48437,-38.28906 41.95703,-41.95703 z m 0,-221.86718 h -9.13281 c -3.9336,-30.88672 -28.25,-55.20313 -59.13282,-59.14063 V 50.207031 c 30.88282,-3.933593 55.20313,-28.253906 59.14063,-59.140625 h 86.52344 c 3.93359,30.882813 28.25,55.203125 59.13281,59.140625 v 86.523439 c -30.88281,3.9375 -55.19531,28.2539 -59.13281,59.13672 z m 68.26562,221.86718 v -41.95703 c 21.47266,3.66797 38.28907,20.48438 41.95703,41.95703 z m 204.80078,0 h -41.95703 c 3.66797,-21.47265 20.48828,-38.28906 41.95703,-41.95703 z m 0,0" />
  <path
     inkscape:connector-curvature="0"
     id="path70"
     d="m 358.39844,323.86719 c 0.0312,23.55078 19.11718,42.63672 42.66797,42.66797 h 17.0664 c 4.71485,0 8.53516,-3.82422 8.53516,-8.53516 0,-4.71094 -3.82031,-8.53516 -8.53516,-8.53516 h -17.0664 C 386.93359,349.44922 375.48047,338 375.46484,323.86719 v -17.06641 c 0.0156,-14.13281 11.46875,-25.58594 25.60157,-25.60156 h 17.0664 c 4.71485,0 8.53516,-3.82031 8.53516,-8.53125 0,-4.71485 -3.82031,-8.53516 -8.53516,-8.53516 h -17.0664 c -23.55079,0.0274 -42.63672,19.11328 -42.66797,42.66797 z m 0,0" />
  <path
     inkscape:connector-curvature="0"
     id="path72"
     d="M 264.23437,40.019531 C 263.22266,36.304688 259.84766,33.726562 256,33.726562 c -3.85156,0 -7.22656,2.578126 -8.23828,6.292969 l -25.59766,93.867189 c -1.24219,4.54687 1.44141,9.24219 5.98828,10.48047 4.54688,1.24218 9.23828,-1.44141 10.48047,-5.98828 l 5.26953,-19.3125 h 24.19532 l 5.26953,19.3125 c 1.24219,4.54687 5.93359,7.23046 10.48047,5.98828 4.54687,-1.23828 7.23047,-5.9336 5.98828,-10.48047 z M 248.55469,102 256,74.69922 263.44531,102 Z m 0,0" />
</svg>
