<?xml version="1.0" encoding="UTF-8" standalone="no"?>
<svg
   xmlns:dc="http://purl.org/dc/elements/1.1/"
   xmlns:cc="http://creativecommons.org/ns#"
   xmlns:rdf="http://www.w3.org/1999/02/22-rdf-syntax-ns#"
   xmlns:svg="http://www.w3.org/2000/svg"
   xmlns="http://www.w3.org/2000/svg"
   xmlns:sodipodi="http://sodipodi.sourceforge.net/DTD/sodipodi-0.dtd"
   xmlns:inkscape="http://www.inkscape.org/namespaces/inkscape"
   inkscape:version="1.0beta1 (32d4812, 2019-09-19)"
   sodipodi:docname="6-8.svg"
   id="svg106"
   version="1.1"
   width="512pt"
   viewBox="0 -1 512 509.10156"
   height="509.10156pt">
  <metadata
     id="metadata112">
    <rdf:RDF>
      <cc:Work
         rdf:about="">
        <dc:format>image/svg+xml</dc:format>
        <dc:type
           rdf:resource="http://purl.org/dc/dcmitype/StillImage" />
      </cc:Work>
    </rdf:RDF>
  </metadata>
  <defs
     id="defs110" />
  <sodipodi:namedview
     inkscape:current-layer="svg106"
     inkscape:window-maximized="0"
     inkscape:window-y="23"
     inkscape:window-x="0"
     inkscape:cy="340"
     inkscape:cx="341.33333"
     inkscape:zoom="0.3984375"
     showgrid="false"
     id="namedview108"
     inkscape:window-height="480"
     inkscape:window-width="722"
     inkscape:pageshadow="2"
     inkscape:pageopacity="0"
     guidetolerance="10"
     gridtolerance="10"
     objecttolerance="10"
     borderopacity="1"
     inkscape:document-rotation="0"
     bordercolor="#666666"
     pagecolor="#ffffff" />
  <path
     inkscape:connector-curvature="0"
     id="path82"
     d="M 496.48437,106.31641 C 505.03906,106.31641 512,99.35547 512,90.800781 V 50.105469 c 0,-8.554688 -6.96094,-15.515625 -15.51563,-15.515625 h -25.5625 V 14.515625 C 470.92187,5.960938 463.96484,-1 455.40625,-1 h -90.77734 c -8.55469,0 -15.51563,6.960938 -15.51563,15.515625 V 145.09375 c 0,4.14844 3.36328,7.50781 7.50781,7.50781 4.14844,0 7.50782,-3.35937 7.50782,-7.50781 V 14.515625 c 0,-0.273437 0.22656,-0.5 0.5,-0.5 h 90.77734 c 0.27734,0 0.50391,0.226563 0.50391,0.5 V 302.55078 H 412.14062 V 190.05469 c 0,-8.55469 -6.96093,-15.51563 -15.51562,-15.51563 H 15.515625 C 6.960938,174.53906 0,181.5 0,190.05469 v 174.52343 c 0,8.55469 6.960938,15.51563 15.515625,15.51563 H 254.16797 v 112.49219 c 0,8.55468 6.96094,15.51562 15.51562,15.51562 h 201.83203 c 8.55469,0 15.51563,-6.96094 15.51563,-15.51562 V 318.06641 c 0,-8.5586 -6.96094,-15.51563 -15.51563,-15.51563 h -0.59375 v -17.16797 h 25.5625 c 8.55469,0 15.51563,-6.96093 15.51563,-15.51562 v -40.69531 c 0,-8.5586 -6.96094,-15.51563 -15.51563,-15.51563 h -25.5625 v -17.80859 h 25.5625 c 8.55469,0 15.51563,-6.96094 15.51563,-15.51563 v -40.69531 c 0,-8.55469 -6.96094,-15.51563 -15.51563,-15.51563 h -25.5625 V 106.31641 Z M 15.515625,365.07812 c -0.277344,0 -0.5,-0.22656 -0.5,-0.5 V 190.05469 c 0,-0.27344 0.226563,-0.5 0.5,-0.5 H 396.625 c 0.27734,0 0.5,0.22656 0.5,0.5 v 112.49609 h -25.45703 c -6.11719,-11.67578 -18.28125,-19.20312 -31.76563,-19.20312 -13.48828,0 -25.65234,7.52734 -31.76953,19.20312 h -25.84765 c -6.11719,-11.67578 -18.28125,-19.20312 -31.76954,-19.20312 -19.77343,0 -35.85937,16.08984 -35.85937,35.86328 0,19.77734 16.08594,35.86328 35.85937,35.86328 1.22657,0 2.44532,-0.0586 3.65235,-0.18359 v 10.1875 z M 352.42187,302.55078 h -25.03906 c 3.52735,-2.64844 7.88672,-4.1875 12.51953,-4.1875 4.62891,0 8.98828,1.53906 12.51953,4.1875 z m -98.2539,37.17188 c -1.19531,0.20703 -2.41406,0.33593 -3.64844,0.33593 -11.49609,0 -20.85156,-9.35156 -20.85156,-20.84765 0,-11.4961 9.35547,-20.84766 20.85156,-20.84766 5.18359,0 10.02734,1.92188 13.74609,5.17969 -5.88671,2.20703 -10.09765,7.875 -10.09765,14.52344 z m 217.84765,-21.65625 v 174.51953 c 0,0.27734 -0.22656,0.5 -0.5,0.5 H 269.68359 c -0.27734,0 -0.5,-0.22266 -0.5,-0.5 V 345.29688 c 0,-0.0274 0,-0.0547 0,-0.082 v -27.14843 c 0,-0.27735 0.22266,-0.5 0.5,-0.5 h 7.79297 0.11328 89.09375 c 0.0195,0 0.043,0.004 0.0625,0.004 0.0195,0 0.0391,-0.004 0.0586,-0.004 h 104.71093 c 0.27344,0 0.5,0.22265 0.5,0.5 z M 496.48437,49.605469 c 0.27344,0 0.5,0.222656 0.5,0.5 v 40.691406 c 0,0.277344 -0.22656,0.5 -0.5,0.5 h -25.5625 V 49.605469 Z m 0,179.062501 c 0.27344,0 0.5,0.22656 0.5,0.50391 v 40.69531 c 0,0.27344 -0.22656,0.5 -0.5,0.5 h -25.5625 v -41.69922 z m 0,-89.53125 c 0.27344,0 0.5,0.22266 0.5,0.5 v 40.69531 c 0,0.27344 -0.22656,0.5 -0.5,0.5 h -25.5625 v -41.69531 z m 0,0" />
  <path
     inkscape:connector-curvature="0"
     id="path84"
     d="M 88.347656,161.88672 H 290.03125 c 8.55469,0 15.51562,-6.96094 15.51562,-15.51563 V 55.59375 c 0,-8.558594 -6.96093,-15.515625 -15.51562,-15.515625 h -20.35156 v -25.5625 C 269.67969,5.960938 262.72266,-1 254.16406,-1 h -40.69531 c -8.55469,0 -15.51563,6.960938 -15.51563,15.515625 0,4.144531 3.36329,7.507813 7.50782,7.507813 4.14843,0 7.50781,-3.363282 7.50781,-7.507813 0,-0.273437 0.22656,-0.5 0.5,-0.5 h 40.69531 c 0.27735,0 0.5,0.226563 0.5,0.5 v 25.5625 h -74.51562 v -25.5625 C 180.14844,5.960938 173.1875,-1 164.63281,-1 H 123.9375 c -8.55469,0 -15.51562,6.960938 -15.51562,15.515625 v 25.5625 H 88.347656 c -8.554687,0 -15.515625,6.957031 -15.515625,15.515625 v 90.77734 c 0,8.55469 6.960938,15.51563 15.515625,15.51563 z M 123.4375,14.515625 c 0,-0.273437 0.22656,-0.5 0.5,-0.5 h 40.69531 c 0.27735,0 0.5,0.226563 0.5,0.5 v 25.5625 H 123.4375 Z M 87.847656,55.59375 c 0,-0.277344 0.226563,-0.503906 0.5,-0.503906 H 290.03125 c 0.27734,0 0.5,0.226562 0.5,0.503906 v 90.77734 c 0,0.27344 -0.22266,0.5 -0.5,0.5 H 88.347656 c -0.273437,0 -0.5,-0.22656 -0.5,-0.5 z m 0,0" />
  <path
     inkscape:connector-curvature="0"
     id="path86"
     d="m 71.453125,199.55859 c -19.777344,0 -35.863281,16.08985 -35.863281,35.86328 0,19.77735 16.085937,35.86719 35.863281,35.86719 19.773437,0 35.859375,-16.08984 35.859375,-35.86719 0,-19.77343 -16.085938,-35.86328 -35.859375,-35.86328 z m 0,56.71485 c -11.496094,0 -20.851563,-9.35547 -20.851563,-20.85157 0,-11.49218 9.355469,-20.84765 20.851563,-20.84765 11.492187,0 20.847656,9.35547 20.847656,20.84765 0,11.4961 -9.355469,20.85157 -20.847656,20.85157 z m 0,0" />
  <path
     inkscape:connector-curvature="0"
     id="path88"
     d="m 71.453125,283.34766 c -19.777344,0 -35.863281,16.08984 -35.863281,35.86328 0,19.77734 16.085937,35.86328 35.863281,35.86328 19.773437,0 35.859375,-16.08594 35.859375,-35.86328 0,-19.77344 -16.085938,-35.86328 -35.859375,-35.86328 z m 0,56.71093 c -11.496094,0 -20.851563,-9.35156 -20.851563,-20.84765 0,-11.4961 9.355469,-20.84766 20.851563,-20.84766 11.492187,0 20.847656,9.35156 20.847656,20.84766 0,11.49609 -9.355469,20.84765 -20.847656,20.84765 z m 0,0" />
  <path
     inkscape:connector-curvature="0"
     id="path90"
     d="m 160.83594,199.55859 c -11.29688,0 -21.70313,5.16016 -28.55078,14.15625 -2.51172,3.30078 -1.875,8.01172 1.42578,10.52344 3.29687,2.50781 8.00781,1.875 10.51953,-1.42578 3.98437,-5.23438 10.03515,-8.23828 16.60156,-8.23828 11.49609,0 20.85156,9.35547 20.85156,20.84765 0,11.5 -9.35547,20.85157 -20.85156,20.85157 -6.55078,0 -12.59766,-2.99219 -16.58203,-8.21094 -2.51563,-3.29688 -7.22656,-3.92578 -10.52344,-1.41016 -3.29297,2.51563 -3.92578,7.22657 -1.41015,10.52344 6.85156,8.96875 17.24609,14.10938 28.51562,14.10938 19.77734,0 35.86719,-16.08594 35.86719,-35.86329 0,-19.77343 -16.08985,-35.86328 -35.86328,-35.86328 z m 0,0" />
  <path
     inkscape:connector-curvature="0"
     id="path92"
     d="m 160.83594,283.34766 c -19.77735,0 -35.86328,16.08984 -35.86328,35.86328 0,19.77734 16.08593,35.86328 35.86328,35.86328 19.77343,0 35.86328,-16.08594 35.86328,-35.86328 0,-19.77344 -16.08985,-35.86328 -35.86328,-35.86328 z m 0,56.71093 c -11.4961,0 -20.85157,-9.35156 -20.85157,-20.84765 0,-11.4961 9.35547,-20.84766 20.85157,-20.84766 11.49609,0 20.84765,9.35156 20.84765,20.84766 0,11.49609 -9.35156,20.84765 -20.84765,20.84765 z m 0,0" />
  <path
     inkscape:connector-curvature="0"
     id="path94"
     d="m 250.51953,271.28906 c 19.77344,0 35.86328,-16.08984 35.86328,-35.86719 0,-19.77343 -16.08984,-35.86328 -35.86328,-35.86328 -19.77734,0 -35.86328,16.08985 -35.86328,35.86328 0,19.77735 16.08594,35.86719 35.86328,35.86719 z m 0,-56.71484 c 11.49609,0 20.84766,9.35547 20.84766,20.84765 0,11.5 -9.35157,20.85157 -20.84766,20.85157 -11.49609,0 -20.85156,-9.35547 -20.85156,-20.85157 0,-11.49218 9.35547,-20.84765 20.85156,-20.84765 z m 0,0" />
  <path
     inkscape:connector-curvature="0"
     id="path96"
     d="m 339.90234,271.28906 c 19.77344,0 35.86328,-16.08984 35.86328,-35.86719 0,-19.77343 -16.08984,-35.86328 -35.86328,-35.86328 -19.77734,0 -35.86328,16.08985 -35.86328,35.86328 0,19.77735 16.08594,35.86719 35.86328,35.86719 z m 0,-56.71484 c 11.49219,0 20.84766,9.35547 20.84766,20.84765 0,11.5 -9.35547,20.85157 -20.84766,20.85157 -11.49609,0 -20.84765,-9.35547 -20.84765,-20.85157 0,-11.49218 9.35156,-20.84765 20.84765,-20.84765 z m 0,0" />
  <path
     inkscape:connector-curvature="0"
     id="path98"
     d="m 325.90625,327.57031 c -19.77344,0 -35.86328,16.08594 -35.86328,35.86328 0,19.77344 16.08984,35.86328 35.86328,35.86328 19.77734,0 35.86328,-16.08984 35.86328,-35.86328 0,-19.77734 -16.08594,-35.86328 -35.86328,-35.86328 z m 0,56.71094 c -11.49609,0 -20.84766,-9.35547 -20.84766,-20.84766 0,-11.49609 9.35547,-20.84765 20.84766,-20.84765 11.49609,0 20.84766,9.35156 20.84766,20.84765 0,11.49219 -9.35157,20.84766 -20.84766,20.84766 z m 0,0" />
  <path
     inkscape:connector-curvature="0"
     id="path100"
     d="m 325.90625,411.35547 c -19.77344,0 -35.86328,16.08984 -35.86328,35.86328 0,19.77734 16.08984,35.86328 35.86328,35.86328 19.77734,0 35.86328,-16.08594 35.86328,-35.86328 0,-19.77344 -16.08594,-35.86328 -35.86328,-35.86328 z m 0,56.71094 c -11.49609,0 -20.84766,-9.35157 -20.84766,-20.84766 0,-11.49609 9.35547,-20.84766 20.84766,-20.84766 11.49609,0 20.84766,9.35157 20.84766,20.84766 0,11.49609 -9.35157,20.84766 -20.84766,20.84766 z m 0,0" />
  <path
     inkscape:connector-curvature="0"
     id="path102"
     d="m 379.42578,363.43359 c 0,19.77344 16.08984,35.86328 35.86328,35.86328 19.77735,0 35.86719,-16.08984 35.86719,-35.86328 0,-19.77734 -16.08984,-35.86328 -35.86719,-35.86328 -19.77344,0 -35.86328,16.08594 -35.86328,35.86328 z m 35.86328,-20.84765 c 11.4961,0 20.85156,9.35156 20.85156,20.84765 0,11.4961 -9.35546,20.84766 -20.85156,20.84766 -11.49609,0 -20.84765,-9.35547 -20.84765,-20.84766 0,-11.49609 9.35156,-20.84765 20.84765,-20.84765 z m 0,0" />
  <path
     inkscape:connector-curvature="0"
     id="path104"
     d="m 415.28906,411.35547 c -19.77344,0 -35.86328,16.08984 -35.86328,35.86328 0,19.77734 16.08984,35.86328 35.86328,35.86328 19.77735,0 35.86719,-16.08594 35.86719,-35.86328 0,-19.77344 -16.08984,-35.86328 -35.86719,-35.86328 z m 0,56.71094 c -11.49609,0 -20.84765,-9.35157 -20.84765,-20.84766 0,-11.49609 9.35546,-20.84766 20.84765,-20.84766 11.4961,0 20.85157,9.35157 20.85157,20.84766 0,11.49609 -9.35547,20.84766 -20.85157,20.84766 z m 0,0" />
</svg>
