<?xml version="1.0" encoding="UTF-8" standalone="no"?>
<svg
   xmlns:dc="http://purl.org/dc/elements/1.1/"
   xmlns:cc="http://creativecommons.org/ns#"
   xmlns:rdf="http://www.w3.org/1999/02/22-rdf-syntax-ns#"
   xmlns:svg="http://www.w3.org/2000/svg"
   xmlns="http://www.w3.org/2000/svg"
   xmlns:sodipodi="http://sodipodi.sourceforge.net/DTD/sodipodi-0.dtd"
   xmlns:inkscape="http://www.inkscape.org/namespaces/inkscape"
   inkscape:version="1.0beta1 (32d4812, 2019-09-19)"
   height="370.099"
   width="370.10001"
   sodipodi:docname="9-12.svg"
   xml:space="preserve"
   viewBox="0 0 370.1 370.09899"
   y="0px"
   x="0px"
   id="Capa_1"
   version="1.1"><metadata
   id="metadata385">
  <rdf:RDF>
    <cc:Work
       rdf:about="">
      <dc:format>image/svg+xml</dc:format>
      <dc:type
         rdf:resource="http://purl.org/dc/dcmitype/StillImage" />
    </cc:Work>
  </rdf:RDF>
</metadata>
<defs
   id="defs383" />
<sodipodi:namedview
   inkscape:current-layer="Capa_1"
   inkscape:window-maximized="0"
   inkscape:window-y="23"
   inkscape:window-x="0"
   inkscape:cy="185.05"
   inkscape:cx="185.05"
   inkscape:zoom="0.73493649"
   showgrid="false"
   id="namedview381"
   inkscape:window-height="480"
   inkscape:window-width="722"
   inkscape:pageshadow="2"
   inkscape:pageopacity="0"
   guidetolerance="10"
   gridtolerance="10"
   objecttolerance="10"
   borderopacity="1"
   inkscape:document-rotation="0"
   bordercolor="#666666"
   pagecolor="#ffffff" />

<g
   id="g348">
	<path
   inkscape:connector-curvature="0"
   id="path114"
   d="m 147.326,95.122 c 0.477,0.07 0.949,0.156 1.417,0.255 -0.468,-0.099 -0.94,-0.185 -1.417,-0.255 z" />

	<path
   inkscape:connector-curvature="0"
   id="path116"
   d="m 121.011,119.357 c -0.031,-0.49 -0.053,-0.983 -0.053,-1.481 0,0.497 0.021,0.99 0.053,1.481 z" />

	<path
   inkscape:connector-curvature="0"
   id="path118"
   d="m 143.96,94.873 c 0.498,0 0.991,0.021 1.481,0.053 -0.49,-0.031 -0.983,-0.053 -1.481,-0.053 z" />

	<path
   inkscape:connector-curvature="0"
   id="path120"
   d="m 153.494,96.951 c 0.4,0.183 0.796,0.375 1.183,0.581 -0.388,-0.205 -0.783,-0.398 -1.183,-0.581 z" />

	<path
   inkscape:connector-curvature="0"
   id="path122"
   d="m 145.846,94.957 c 0.395,0.033 0.789,0.075 1.179,0.127 -0.391,-0.053 -0.783,-0.095 -1.179,-0.127 z" />

	<path
   inkscape:connector-curvature="0"
   id="path124"
   d="m 154.78,97.585 c 0.437,0.234 0.866,0.483 1.286,0.744 -0.421,-0.261 -0.849,-0.51 -1.286,-0.744 z" />

	<path
   inkscape:connector-curvature="0"
   id="path126"
   d="m 157.448,99.26 c 0.807,0.587 1.575,1.226 2.299,1.91 -0.725,-0.684 -1.492,-1.323 -2.299,-1.91 z" />

	<path
   inkscape:connector-curvature="0"
   id="path128"
   d="m 159.826,101.246 c 1.852,1.77 3.412,3.844 4.595,6.142 -1.183,-2.298 -2.741,-4.372 -4.595,-6.142 z" />

	<path
   inkscape:connector-curvature="0"
   id="path130"
   d="m 156.186,98.406 c 0.384,0.242 0.76,0.496 1.128,0.759 -0.367,-0.263 -0.743,-0.516 -1.128,-0.759 z" />

	<path
   inkscape:connector-curvature="0"
   id="path132"
   d="m 149.039,95.446 c 0.384,0.087 0.765,0.184 1.142,0.289 -0.377,-0.106 -0.758,-0.203 -1.142,-0.289 z" />

	<path
   inkscape:connector-curvature="0"
   id="path134"
   d="m 124.414,129.983 c -0.262,-0.421 -0.511,-0.85 -0.746,-1.289 0.236,0.439 0.485,0.868 0.746,1.289 z" />

	<path
   inkscape:connector-curvature="0"
   id="path136"
   d="m 125.254,131.235 c -0.266,-0.371 -0.521,-0.751 -0.765,-1.137 0.243,0.387 0.499,0.766 0.765,1.137 z" />

	<path
   inkscape:connector-curvature="0"
   id="path138"
   d="m 127.259,133.666 c -0.687,-0.726 -1.328,-1.496 -1.916,-2.306 0.589,0.811 1.229,1.58 1.916,2.306 z" />

	<path
   inkscape:connector-curvature="0"
   id="path140"
   d="m 121.168,120.94 c -0.052,-0.39 -0.094,-0.783 -0.127,-1.179 0.033,0.396 0.075,0.789 0.127,1.179 z" />

	<path
   inkscape:connector-curvature="0"
   id="path142"
   d="m 133.485,138.342 c -2.306,-1.185 -4.385,-2.748 -6.159,-4.605 1.774,1.858 3.854,3.42 6.159,4.605 z" />

	<path
   inkscape:connector-curvature="0"
   id="path144"
   d="m 123.618,128.595 c -0.206,-0.389 -0.399,-0.786 -0.583,-1.187 0.184,0.401 0.377,0.798 0.583,1.187 z" />

	<path
   inkscape:connector-curvature="0"
   id="path146"
   d="m 121.461,122.657 c -0.099,-0.467 -0.185,-0.939 -0.255,-1.417 0.071,0.478 0.156,0.95 0.255,1.417 z" />

	<path
   inkscape:connector-curvature="0"
   id="path148"
   d="m 121.82,124.098 c -0.106,-0.378 -0.203,-0.759 -0.29,-1.145 0.087,0.386 0.184,0.767 0.29,1.145 z" />

	<path
   inkscape:connector-curvature="0"
   id="path150"
   d="m 122.913,127.137 c -0.387,-0.874 -0.72,-1.777 -0.997,-2.704 0.276,0.928 0.61,1.83 0.997,2.704 z" />

	<path
   inkscape:connector-curvature="0"
   id="path152"
   d="m 150.52,95.832 c 0.926,0.276 1.828,0.609 2.701,0.996 -0.874,-0.387 -1.775,-0.72 -2.701,-0.996 z" />

	<path
   inkscape:connector-curvature="0"
   id="path154"
   d="m 209.935,22.485 c -0.031,0.017 -0.064,0.033 -0.096,0.05 0.031,-0.017 0.064,-0.033 0.096,-0.05 z" />

	<path
   inkscape:connector-curvature="0"
   id="path156"
   d="m 214.129,20.299 c -0.327,0.163 -0.662,0.314 -0.987,0.48 0.325,-0.166 0.66,-0.318 0.987,-0.48 z" />

	<path
   inkscape:connector-curvature="0"
   id="path158"
   d="m 220.027,17.602 c -1.179,0.488 -2.343,0.999 -3.494,1.53 1.152,-0.531 2.316,-1.042 3.494,-1.53 z" />

	<path
   inkscape:connector-curvature="0"
   id="path160"
   d="m 264.702,33.725 c 1.155,0.611 2.304,1.234 3.443,1.871 -1.139,-0.636 -2.288,-1.26 -3.443,-1.871 z" />

	<path
   inkscape:connector-curvature="0"
   id="path162"
   d="m 273.306,38.595 c 1.178,0.713 2.349,1.437 3.509,2.177 -1.161,-0.74 -2.332,-1.464 -3.509,-2.177 z" />

	<path
   inkscape:connector-curvature="0"
   id="path164"
   d="m 281.546,43.906 c 2.468,1.693 4.891,3.449 7.264,5.265 -2.373,-1.816 -4.795,-3.572 -7.264,-5.265 z" />

	<path
   inkscape:connector-curvature="0"
   id="path166"
   d="m 268.797,35.957 c 1.27,0.716 2.528,1.449 3.776,2.196 -1.248,-0.747 -2.507,-1.48 -3.776,-2.196 z" />

	<path
   inkscape:connector-curvature="0"
   id="path168"
   d="m 251.188,27.323 c 1.344,0.566 2.681,1.144 4.007,1.743 -1.327,-0.598 -2.664,-1.177 -4.007,-1.743 z" />

	<path
   inkscape:connector-curvature="0"
   id="path170"
   d="m 246.115,25.278 c 1.385,0.531 2.758,1.086 4.126,1.652 -1.368,-0.566 -2.741,-1.121 -4.126,-1.652 z" />

	<path
   inkscape:connector-curvature="0"
   id="path172"
   d="m 255.68,29.29 c 1.214,0.553 2.42,1.121 3.619,1.701 -1.199,-0.58 -2.405,-1.148 -3.619,-1.701 z" />

	<path
   inkscape:connector-curvature="0"
   id="path174"
   d="m 260.144,31.401 c 1.301,0.638 2.592,1.291 3.873,1.96 -1.282,-0.669 -2.573,-1.322 -3.873,-1.96 z" />

	<path
   inkscape:connector-curvature="0"
   id="path176"
   d="m 277.139,40.978 c 1.247,0.799 2.479,1.618 3.704,2.448 -1.225,-0.831 -2.457,-1.649 -3.704,-2.448 z" />

	<path
   inkscape:connector-curvature="0"
   id="path178"
   d="m 304.108,62.369 c 1.091,1.059 2.167,2.132 3.228,3.219 -1.061,-1.086 -2.137,-2.16 -3.228,-3.219 z" />

	<path
   inkscape:connector-curvature="0"
   id="path180"
   d="m 300.651,59.107 c 1.064,0.979 2.117,1.97 3.158,2.975 -1.04,-1.005 -2.093,-1.997 -3.158,-2.975 z" />

	<path
   inkscape:connector-curvature="0"
   id="path182"
   d="m 296.952,55.805 c 1.141,0.988 2.269,1.991 3.382,3.009 -1.114,-1.018 -2.241,-2.021 -3.382,-3.009 z" />

	<path
   inkscape:connector-curvature="0"
   id="path184"
   d="m 289.431,49.648 c 1.189,0.92 2.371,1.852 3.536,2.802 -1.165,-0.95 -2.346,-1.882 -3.536,-2.802 z" />

	<path
   inkscape:connector-curvature="0"
   id="path186"
   d="m 293.103,52.562 c 1.136,0.928 2.257,1.873 3.368,2.829 -1.112,-0.956 -2.233,-1.901 -3.368,-2.829 z" />

	<path
   inkscape:connector-curvature="0"
   id="path188"
   d="m 307.728,65.991 c 1.052,1.083 2.092,2.177 3.114,3.288 -1.023,-1.11 -2.063,-2.205 -3.114,-3.288 z" />

	<path
   inkscape:connector-curvature="0"
   id="path190"
   d="m 179.022,103.703 c -0.319,-0.025 -0.625,-0.049 -0.916,-0.071 0.29,0.022 0.599,0.046 0.916,0.071 z" />

	<path
   inkscape:connector-curvature="0"
   id="path192"
   d="m 179.973,103.78 c -0.005,0 -0.01,0 -0.015,-0.001 0.005,0.001 0.01,0.001 0.015,0.001 z" />

	<path
   inkscape:connector-curvature="0"
   id="path194"
   d="m 16.054,211.499 c -0.11,-0.708 -0.213,-1.418 -0.315,-2.128 0.101,0.71 0.204,1.42 0.315,2.128 z" />

	<path
   inkscape:connector-curvature="0"
   id="path196"
   d="m 15.375,206.685 c -0.089,-0.701 -0.174,-1.404 -0.255,-2.107 0.081,0.703 0.166,1.405 0.255,2.107 z" />

	<path
   inkscape:connector-curvature="0"
   id="path198"
   d="m 17.797,220.951 c -0.149,-0.693 -0.283,-1.391 -0.423,-2.087 0.141,0.697 0.275,1.395 0.423,2.087 z" />

	<path
   inkscape:connector-curvature="0"
   id="path200"
   d="m 22.063,236.935 c -0.263,-0.824 -0.529,-1.646 -0.78,-2.476 0.251,0.83 0.517,1.653 0.78,2.476 z" />

	<path
   inkscape:connector-curvature="0"
   id="path202"
   d="m 20.664,232.323 c -0.226,-0.785 -0.459,-1.567 -0.675,-2.356 0.215,0.789 0.449,1.571 0.675,2.356 z" />

	<path
   inkscape:connector-curvature="0"
   id="path204"
   d="m 23.563,241.418 c -0.294,-0.839 -0.587,-1.68 -0.869,-2.525 0.281,0.846 0.575,1.685 0.869,2.525 z" />

	<path
   inkscape:connector-curvature="0"
   id="path206"
   d="m 18.859,225.597 c -0.159,-0.65 -0.3,-1.306 -0.451,-1.959 0.152,0.653 0.293,1.309 0.451,1.959 z" />

	<path
   inkscape:connector-curvature="0"
   id="path208"
   d="m 49.019,288.6 c 6.083,7.97 12.847,15.39 20.208,22.176 C 61.866,303.991 55.102,296.569 49.019,288.6 Z" />

	<path
   inkscape:connector-curvature="0"
   id="path210"
   d="m 107.602,124.682 c 0.007,0.035 0.017,0.069 0.023,0.105 -0.006,-0.036 -0.016,-0.07 -0.023,-0.105 z" />

	<path
   inkscape:connector-curvature="0"
   id="path212"
   d="m 14.829,201.805 c -0.067,-0.685 -0.135,-1.369 -0.193,-2.057 0.058,0.688 0.126,1.372 0.193,2.057 z" />

	<path
   inkscape:connector-curvature="0"
   id="path214"
   d="m 14.416,196.818 c -0.044,-0.645 -0.093,-1.288 -0.129,-1.935 0.036,0.647 0.085,1.29 0.129,1.935 z" />

	<path
   inkscape:connector-curvature="0"
   id="path216"
   d="m 107.189,121.907 c 0.013,0.119 0.037,0.235 0.051,0.354 -0.013,-0.119 -0.037,-0.234 -0.051,-0.354 z" />

	<path
   inkscape:connector-curvature="0"
   id="path218"
   d="m 14.14,191.617 c -0.021,-0.546 -0.05,-1.09 -0.066,-1.638 0.015,0.548 0.045,1.092 0.066,1.638 z" />

	<path
   inkscape:connector-curvature="0"
   id="path220"
   d="m 16.861,216.251 c -0.13,-0.705 -0.25,-1.414 -0.372,-2.121 0.122,0.707 0.242,1.416 0.372,2.121 z" />

	<path
   inkscape:connector-curvature="0"
   id="path222"
   d="m 38.979,273.936 c -2.87,-4.696 -5.516,-9.544 -7.931,-14.522 2.414,4.979 5.061,9.825 7.931,14.522 z" />

	<path
   inkscape:connector-curvature="0"
   id="path224"
   d="m 25.174,245.828 c -0.326,-0.854 -0.647,-1.71 -0.959,-2.569 0.312,0.859 0.634,1.715 0.959,2.569 z" />

	<path
   inkscape:connector-curvature="0"
   id="path226"
   d="m 41.164,277.413 c -0.697,-1.081 -1.385,-2.168 -2.058,-3.265 0.673,1.098 1.362,2.184 2.058,3.265 z" />

	<path
   inkscape:connector-curvature="0"
   id="path228"
   d="m 46.141,284.718 c -0.731,-1.016 -1.451,-2.04 -2.16,-3.072 0.708,1.032 1.429,2.056 2.16,3.072 z" />

	<path
   inkscape:connector-curvature="0"
   id="path230"
   d="m 48.818,288.34 c -0.785,-1.032 -1.555,-2.074 -2.317,-3.124 0.762,1.05 1.533,2.092 2.317,3.124 z" />

	<path
   inkscape:connector-curvature="0"
   id="path232"
   d="m 43.58,281.059 c -0.701,-1.03 -1.394,-2.066 -2.073,-3.112 0.679,1.046 1.372,2.082 2.073,3.112 z" />

	<path
   inkscape:connector-curvature="0"
   id="path234"
   d="m 28.737,254.456 c -0.404,-0.906 -0.795,-1.817 -1.184,-2.731 0.388,0.914 0.78,1.826 1.184,2.731 z" />

	<path
   inkscape:connector-curvature="0"
   id="path236"
   d="m 26.899,250.174 c -0.361,-0.874 -0.714,-1.751 -1.061,-2.632 0.347,0.881 0.7,1.759 1.061,2.632 z" />

	<path
   inkscape:connector-curvature="0"
   id="path238"
   d="m 30.685,258.674 c -0.464,-0.968 -0.912,-1.945 -1.358,-2.923 0.445,0.978 0.894,1.955 1.358,2.923 z" />

	<path
   inkscape:connector-curvature="0"
   id="path240"
   d="m 278.244,143.246 c 2.483,1.136 4.978,2.326 7.474,3.575 -2.496,-1.249 -4.989,-2.439 -7.474,-3.575 z" />

	<path
   inkscape:connector-curvature="0"
   id="path242"
   d="m 197.732,233.042 c -0.155,-0.287 -0.306,-0.57 -0.459,-0.855 0.154,0.285 0.304,0.568 0.459,0.855 z" />

	<path
   inkscape:connector-curvature="0"
   id="path244"
   d="m 232.283,285.458 c -0.704,-0.875 -1.399,-1.753 -2.09,-2.631 0.691,0.879 1.386,1.756 2.09,2.631 z" />

	<path
   inkscape:connector-curvature="0"
   id="path246"
   d="m 202.184,241.03 c -0.311,-0.543 -0.621,-1.086 -0.927,-1.626 0.306,0.54 0.616,1.083 0.927,1.626 z" />

	<path
   inkscape:connector-curvature="0"
   id="path248"
   d="m 206.164,247.823 c -0.367,-0.612 -0.728,-1.222 -1.09,-1.831 0.362,0.61 0.723,1.219 1.09,1.831 z" />

	<path
   inkscape:connector-curvature="0"
   id="path250"
   d="m 204.149,244.425 c -0.339,-0.578 -0.674,-1.155 -1.008,-1.73 0.335,0.575 0.67,1.152 1.008,1.73 z" />

	<path
   inkscape:connector-curvature="0"
   id="path252"
   d="m 195.98,229.768 c -0.215,-0.406 -0.425,-0.809 -0.637,-1.213 0.213,0.405 0.423,0.807 0.637,1.213 z" />

	<path
   inkscape:connector-curvature="0"
   id="path254"
   d="m 194.293,226.542 c -0.212,-0.41 -0.422,-0.818 -0.632,-1.226 0.21,0.408 0.419,0.816 0.632,1.226 z" />

	<path
   inkscape:connector-curvature="0"
   id="path256"
   d="m 191.014,220.065 c -0.155,-0.315 -0.315,-0.633 -0.469,-0.946 0.154,0.313 0.313,0.631 0.469,0.946 z" />

	<path
   inkscape:connector-curvature="0"
   id="path258"
   d="m 247.719,131.533 c 0.337,0.107 0.679,0.218 1.018,0.327 -0.339,-0.109 -0.681,-0.22 -1.018,-0.327 z" />

	<path
   inkscape:connector-curvature="0"
   id="path260"
   d="m 192.653,223.339 c -0.197,-0.389 -0.394,-0.778 -0.588,-1.164 0.195,0.386 0.391,0.775 0.588,1.164 z" />

	<path
   inkscape:connector-curvature="0"
   id="path262"
   d="m 229.634,282.115 c -0.659,-0.844 -1.314,-1.689 -1.961,-2.535 0.647,0.846 1.302,1.691 1.961,2.535 z" />

	<path
   inkscape:connector-curvature="0"
   id="path264"
   d="m 227.107,278.837 c -0.657,-0.864 -1.311,-1.729 -1.955,-2.595 0.645,0.866 1.298,1.731 1.955,2.595 z" />

	<path
   inkscape:connector-curvature="0"
   id="path266"
   d="m 248.248,303.668 c -0.806,-0.841 -1.602,-1.687 -2.395,-2.536 0.793,0.849 1.589,1.694 2.395,2.536 z" />

	<path
   inkscape:connector-curvature="0"
   id="path268"
   d="m 250.859,132.55 c 0.403,0.133 0.809,0.269 1.216,0.404 -0.406,-0.135 -0.812,-0.271 -1.216,-0.404 z" />

	<path
   inkscape:connector-curvature="0"
   id="path270"
   d="m 242.45,297.416 c -3.446,-3.834 -6.756,-7.73 -9.93,-11.665 3.174,3.935 6.484,7.83 9.93,11.665 z" />

	<path
   inkscape:connector-curvature="0"
   id="path272"
   d="m 245.27,300.505 c -0.776,-0.837 -1.546,-1.678 -2.309,-2.521 0.763,0.843 1.532,1.684 2.309,2.521 z" />

	<path
   inkscape:connector-curvature="0"
   id="path274"
   d="m 224.849,275.83 c -2.115,-2.852 -4.161,-5.71 -6.142,-8.566 1.979,2.857 4.026,5.715 6.142,8.566 z" />

	<path
   inkscape:connector-curvature="0"
   id="path276"
   d="m 213.678,259.799 c -0.48,-0.734 -0.959,-1.467 -1.431,-2.199 0.472,0.732 0.95,1.465 1.431,2.199 z" />

	<path
   inkscape:connector-curvature="0"
   id="path278"
   d="m 211.52,256.464 c -1.554,-2.43 -3.057,-4.848 -4.514,-7.25 1.457,2.401 2.962,4.819 4.514,7.25 z" />

	<path
   inkscape:connector-curvature="0"
   id="path280"
   d="m 215.932,263.197 c -0.504,-0.749 -1.003,-1.499 -1.497,-2.247 0.494,0.749 0.993,1.498 1.497,2.247 z" />

	<path
   inkscape:connector-curvature="0"
   id="path282"
   d="m 218.259,266.618 c -0.547,-0.792 -1.085,-1.583 -1.621,-2.375 0.536,0.792 1.074,1.583 1.621,2.375 z" />

	<path
   inkscape:connector-curvature="0"
   id="path284"
   d="m 200.226,237.567 c -0.266,-0.476 -0.535,-0.954 -0.797,-1.428 0.261,0.474 0.531,0.952 0.797,1.428 z" />

	<path
   inkscape:connector-curvature="0"
   id="path286"
   d="m 308.41,159.928 c 0.835,0.557 1.668,1.121 2.497,1.693 -0.83,-0.572 -1.662,-1.136 -2.497,-1.693 z" />

	<path
   inkscape:connector-curvature="0"
   id="path288"
   d="m 314.357,164.057 c 3.795,2.747 7.515,5.664 11.128,8.758 -3.614,-3.094 -7.332,-6.011 -11.128,-8.758 z" />

	<path
   inkscape:connector-curvature="0"
   id="path290"
   d="m 311.549,162.067 c 0.861,0.599 1.721,1.204 2.575,1.82 -0.854,-0.616 -1.714,-1.221 -2.575,-1.82 z" />

	<path
   inkscape:connector-curvature="0"
   id="path292"
   d="m 305.166,157.81 c 0.86,0.548 1.716,1.108 2.57,1.673 -0.854,-0.565 -1.71,-1.125 -2.57,-1.673 z" />

	<path
   inkscape:connector-curvature="0"
   id="path294"
   d="m 296.267,152.448 c 2.873,1.635 5.733,3.351 8.568,5.153 -2.835,-1.801 -5.695,-3.517 -8.568,-5.153 z" />

	<path
   inkscape:connector-curvature="0"
   id="path296"
   d="m 339.337,186.212 c -2.474,-2.717 -5.035,-5.321 -7.668,-7.822 2.633,2.501 5.194,5.105 7.668,7.822 z" />

	<path
   inkscape:connector-curvature="0"
   id="path298"
   d="m 326.024,173.277 c 0.789,0.682 1.572,1.373 2.352,2.072 -0.779,-0.7 -1.562,-1.391 -2.352,-2.072 z" />

	<path
   inkscape:connector-curvature="0"
   id="path300"
   d="m 328.971,175.886 c 0.788,0.714 1.571,1.435 2.347,2.167 -0.776,-0.731 -1.559,-1.452 -2.347,-2.167 z" />

	<path
   inkscape:connector-curvature="0"
   id="path302"
   d="m 260.98,136.102 c 0.433,0.161 0.864,0.321 1.299,0.486 -0.435,-0.164 -0.867,-0.325 -1.299,-0.486 z" />

	<path
   inkscape:connector-curvature="0"
   id="path304"
   d="m 254.062,133.628 c 0.433,0.148 0.865,0.297 1.301,0.449 -0.436,-0.152 -0.869,-0.301 -1.301,-0.449 z" />

	<path
   inkscape:connector-curvature="0"
   id="path306"
   d="m 265.114,137.679 c 0.505,0.198 1.014,0.403 1.521,0.605 -0.507,-0.202 -1.016,-0.407 -1.521,-0.605 z" />

	<path
   inkscape:connector-curvature="0"
   id="path308"
   d="m 293.324,150.805 c 0.81,0.444 1.617,0.89 2.425,1.346 -0.808,-0.455 -1.615,-0.902 -2.425,-1.346 z" />

	<path
   inkscape:connector-curvature="0"
   id="path310"
   d="m 257.362,134.783 c 0.429,0.153 0.856,0.303 1.286,0.459 -0.43,-0.155 -0.857,-0.306 -1.286,-0.459 z" />

	<path
   inkscape:connector-curvature="0"
   id="path312"
   d="m 268.422,139.002 c 0.569,0.231 1.14,0.468 1.71,0.706 -0.57,-0.238 -1.141,-0.475 -1.71,-0.706 z" />

	<path
   inkscape:connector-curvature="0"
   id="path314"
   d="m 286.739,147.331 c 0.754,0.382 1.509,0.772 2.263,1.165 -0.755,-0.393 -1.509,-0.783 -2.263,-1.165 z" />

	<path
   inkscape:connector-curvature="0"
   id="path316"
   d="m 271.741,140.382 c 0.605,0.256 1.211,0.515 1.818,0.778 -0.607,-0.263 -1.212,-0.522 -1.818,-0.778 z" />

	<path
   inkscape:connector-curvature="0"
   id="path318"
   d="m 290.07,149.054 c 0.766,0.404 1.531,0.813 2.296,1.228 -0.764,-0.416 -1.529,-0.824 -2.296,-1.228 z" />

	<path
   inkscape:connector-curvature="0"
   id="path320"
   d="m 275.057,141.815 c 0.64,0.282 1.279,0.563 1.921,0.852 -0.642,-0.289 -1.282,-0.571 -1.921,-0.852 z" />

	<path
   inkscape:connector-curvature="0"
   id="path322"
   d="m 19.265,142.878 c 0.934,-0.942 1.88,-1.852 2.832,-2.748 -0.953,0.895 -1.899,1.805 -2.832,2.748 z" />

	<path
   inkscape:connector-curvature="0"
   id="path324"
   d="m 31.204,132.417 c -0.326,0.248 -0.652,0.499 -0.977,0.752 0.325,-0.253 0.651,-0.503 0.977,-0.752 z" />

	<path
   inkscape:connector-curvature="0"
   id="path326"
   d="m 25.1,137.406 c -0.703,0.615 -1.401,1.241 -2.096,1.88 0.694,-0.639 1.393,-1.264 2.096,-1.88 z" />

	<path
   inkscape:connector-curvature="0"
   id="path328"
   d="m 101.315,43.802 c 0.018,0.113 0.038,0.226 0.056,0.339 -0.018,-0.113 -0.038,-0.226 -0.056,-0.339 z" />

	<path
   inkscape:connector-curvature="0"
   id="path330"
   d="m 28.552,134.494 c -0.847,0.685 -1.691,1.382 -2.527,2.099 0.836,-0.718 1.68,-1.413 2.527,-2.099 z" />

	<path
   inkscape:connector-curvature="0"
   id="path332"
   d="m 100.795,39.882 c 0.021,0.188 0.039,0.376 0.061,0.564 -0.021,-0.188 -0.04,-0.376 -0.061,-0.564 z" />

	<path
   inkscape:connector-curvature="0"
   id="path334"
   d="m 255.083,329.538 c 0.113,0.099 0.225,0.199 0.338,0.298 -0.113,-0.098 -0.225,-0.199 -0.338,-0.298 z" />

	<path
   inkscape:connector-curvature="0"
   id="path336"
   d="m 258.995,332.877 c 0.216,0.181 0.427,0.364 0.644,0.544 -0.217,-0.18 -0.428,-0.364 -0.644,-0.544 z" />

	<path
   inkscape:connector-curvature="0"
   id="path338"
   d="m 251.217,326.095 c 0.012,0.011 0.023,0.021 0.035,0.032 -0.012,-0.01 -0.023,-0.021 -0.035,-0.032 z" />

	<path
   inkscape:connector-curvature="0"
   id="path340"
   d="m 150.44,154.297 c 0.122,0.438 0.257,0.914 0.398,1.408 -0.141,-0.494 -0.275,-0.97 -0.398,-1.408 z" />

	<path
   inkscape:connector-curvature="0"
   id="path342"
   d="m 151.388,157.609 c 0.059,0.201 0.122,0.417 0.184,0.625 -0.062,-0.209 -0.126,-0.424 -0.184,-0.625 z" />

	<path
   inkscape:connector-curvature="0"
   id="path344"
   d="m 258.995,332.877 c -1.203,-1.004 -2.396,-2.017 -3.574,-3.041 -0.113,-0.099 -0.225,-0.199 -0.338,-0.298 -1.292,-1.126 -2.568,-2.263 -3.831,-3.41 -0.012,-0.011 -0.023,-0.021 -0.035,-0.032 -1.342,-1.22 -2.666,-2.452 -3.975,-3.694 -0.002,-10e-4 -0.004,-0.003 -0.006,-0.005 4.895,5.159 10.039,10.188 15.443,15.023 0.387,-0.199 0.78,-0.385 1.166,-0.586 -1.419,-1.123 -2.819,-2.262 -4.207,-3.413 -0.216,-0.18 -0.427,-0.363 -0.643,-0.544 z" />

	<path
   inkscape:connector-curvature="0"
   id="path346"
   d="M 185.047,0 C 83.012,0 0,83.011 0,185.047 c 0,102.038 83.012,185.052 185.047,185.052 33.881,0 65.659,-9.162 93.003,-25.123 1.847,-0.254 3.591,-1.232 4.757,-2.869 0.003,-0.006 0.006,-0.01 0.008,-0.014 C 335.184,309.374 370.1,251.216 370.1,185.047 370.1,83.011 287.086,0 185.047,0 Z m 61.068,25.278 c 1.385,0.531 2.758,1.086 4.126,1.652 0.315,0.13 0.631,0.261 0.946,0.394 1.344,0.566 2.681,1.144 4.007,1.743 0.163,0.073 0.323,0.15 0.485,0.224 1.214,0.553 2.42,1.121 3.619,1.701 0.281,0.137 0.564,0.271 0.845,0.41 1.301,0.638 2.592,1.291 3.873,1.96 0.229,0.12 0.457,0.243 0.685,0.363 1.155,0.611 2.304,1.235 3.443,1.871 0.217,0.121 0.436,0.24 0.651,0.361 1.27,0.716 2.528,1.449 3.776,2.196 0.245,0.146 0.488,0.295 0.733,0.442 1.178,0.713 2.349,1.437 3.509,2.177 0.107,0.069 0.217,0.136 0.324,0.205 1.247,0.799 2.479,1.618 3.704,2.448 0.234,0.159 0.469,0.32 0.703,0.48 2.469,1.693 4.891,3.449 7.264,5.265 0.207,0.159 0.414,0.317 0.621,0.476 1.19,0.92 2.371,1.852 3.536,2.802 0.045,0.037 0.09,0.075 0.136,0.112 1.136,0.928 2.257,1.873 3.368,2.829 0.16,0.138 0.321,0.275 0.481,0.414 1.141,0.988 2.268,1.991 3.382,3.009 0.106,0.097 0.211,0.195 0.317,0.293 1.064,0.979 2.117,1.97 3.158,2.975 0.1,0.096 0.2,0.191 0.299,0.288 1.091,1.059 2.167,2.132 3.228,3.219 0.131,0.134 0.261,0.269 0.391,0.403 1.052,1.083 2.092,2.177 3.114,3.288 0.009,0.01 0.018,0.02 0.027,0.029 27.9,30.302 45.023,70.669 45.221,114.964 -24.025,-29.913 -60.895,-52.979 -107.699,-67.19 -28.793,-8.742 -53.851,-11.964 -66.246,-13.11 -0.773,-0.072 -1.499,-0.136 -2.172,-0.192 -0.005,0 -0.01,0 -0.015,-10e-4 -0.322,-0.027 -0.638,-0.053 -0.936,-0.077 -0.317,-0.025 -0.625,-0.049 -0.916,-0.071 -2.668,-6.372 -7.072,-11.838 -12.614,-15.819 6.762,-11.476 36.779,-58.128 80.123,-62.46 0.173,-0.015 0.338,-0.045 0.503,-0.073 z M 133.49,138.344 c -0.002,-0.001 -0.003,-0.002 -0.005,-0.002 -2.306,-1.185 -4.386,-2.747 -6.159,-4.605 -0.022,-0.023 -0.044,-0.047 -0.067,-0.07 -0.687,-0.726 -1.328,-1.496 -1.916,-2.306 -0.03,-0.042 -0.059,-0.083 -0.089,-0.125 -0.266,-0.372 -0.521,-0.75 -0.765,-1.137 -0.024,-0.038 -0.05,-0.076 -0.074,-0.115 -0.262,-0.421 -0.511,-0.85 -0.746,-1.289 -0.018,-0.033 -0.034,-0.066 -0.051,-0.099 -0.206,-0.389 -0.399,-0.786 -0.583,-1.187 -0.041,-0.09 -0.082,-0.18 -0.122,-0.27 -0.386,-0.874 -0.72,-1.777 -0.997,-2.704 -0.033,-0.112 -0.064,-0.224 -0.096,-0.336 -0.106,-0.378 -0.203,-0.759 -0.29,-1.145 -0.022,-0.099 -0.047,-0.197 -0.068,-0.296 -0.099,-0.467 -0.185,-0.939 -0.255,-1.417 -0.015,-0.1 -0.025,-0.201 -0.038,-0.301 -0.052,-0.39 -0.094,-0.783 -0.127,-1.179 -0.011,-0.135 -0.022,-0.269 -0.031,-0.404 -0.031,-0.49 -0.053,-0.983 -0.053,-1.481 0,-12.683 10.319,-23.002 23.002,-23.002 0.498,0 0.991,0.021 1.481,0.053 0.135,0.009 0.27,0.02 0.404,0.031 0.396,0.033 0.789,0.075 1.179,0.127 0.1,0.013 0.201,0.023 0.301,0.038 0.477,0.07 0.949,0.156 1.417,0.255 0.099,0.021 0.197,0.046 0.296,0.069 0.384,0.087 0.765,0.184 1.142,0.289 0.113,0.032 0.227,0.063 0.339,0.097 0.926,0.276 1.827,0.609 2.701,0.996 0.092,0.04 0.182,0.082 0.273,0.124 0.4,0.183 0.796,0.376 1.183,0.581 0.034,0.018 0.069,0.035 0.103,0.053 0.437,0.234 0.866,0.483 1.286,0.744 0.041,0.025 0.081,0.052 0.121,0.078 0.384,0.242 0.76,0.496 1.128,0.759 0.044,0.032 0.089,0.063 0.133,0.094 0.808,0.587 1.575,1.226 2.299,1.91 0.027,0.025 0.053,0.051 0.08,0.076 1.854,1.77 3.412,3.843 4.595,6.142 0.002,0.005 0.005,0.01 0.008,0.016 1.615,3.144 2.532,6.701 2.532,10.471 0,12.683 -10.318,23.001 -23.001,23.001 -3.77,-0.002 -7.327,-0.919 -10.47,-2.534 z M 114.357,29.919 c -0.012,-0.206 -0.002,-0.408 -0.015,-0.61 C 135.904,19.482 159.847,14 185.047,14 c 11.985,0 23.685,1.244 34.98,3.601 -1.179,0.488 -2.343,0.999 -3.494,1.53 -0.81,0.375 -1.606,0.772 -2.404,1.167 -0.327,0.162 -0.662,0.314 -0.987,0.48 -1.083,0.55 -2.15,1.121 -3.207,1.706 -0.031,0.017 -0.064,0.033 -0.096,0.05 -1.082,0.601 -2.15,1.219 -3.204,1.853 -30.291,18.191 -49.335,49.423 -53.929,57.539 -2.806,-0.684 -5.733,-1.054 -8.746,-1.054 -2.428,0 -4.801,0.237 -7.1,0.686 -0.763,0.149 -1.519,0.322 -2.265,0.517 0,10e-4 -18.18,-16.536 -20.238,-52.156 z m -13.867,6.486 c 0.074,1.173 0.182,2.329 0.305,3.477 0.021,0.188 0.04,0.376 0.061,0.564 0.13,1.132 0.284,2.25 0.459,3.356 0.018,0.113 0.038,0.226 0.056,0.339 0.386,2.366 0.868,4.67 1.43,6.906 4.446,17.685 13.825,31.128 18.82,37.356 -5.53,4.201 -9.846,9.92 -12.322,16.53 -7.467,0.258 -40.893,2.566 -71.475,22.779 -2.226,1.472 -4.435,3.039 -6.62,4.706 -0.326,0.249 -0.652,0.498 -0.977,0.752 -0.56,0.437 -1.12,0.875 -1.676,1.325 -0.847,0.686 -1.691,1.381 -2.527,2.099 -0.31,0.266 -0.616,0.543 -0.924,0.814 -0.703,0.616 -1.402,1.24 -2.096,1.88 -0.303,0.279 -0.606,0.559 -0.908,0.843 -0.952,0.896 -1.898,1.806 -2.832,2.748 C 30.839,97.399 60.683,59.139 100.49,36.405 Z M 81.84,321.358 c -4.368,-3.315 -8.561,-6.847 -12.587,-10.557 -0.009,-0.008 -0.018,-0.017 -0.026,-0.025 C 61.866,303.99 55.102,296.57 49.019,288.6 c -0.067,-0.087 -0.134,-0.173 -0.2,-0.261 -0.785,-1.032 -1.556,-2.074 -2.317,-3.124 -0.12,-0.166 -0.241,-0.332 -0.361,-0.498 -0.731,-1.016 -1.451,-2.039 -2.16,-3.072 -0.134,-0.195 -0.267,-0.391 -0.4,-0.587 -0.701,-1.03 -1.394,-2.066 -2.073,-3.112 -0.115,-0.178 -0.228,-0.356 -0.342,-0.534 -0.697,-1.081 -1.385,-2.168 -2.058,-3.265 -0.043,-0.071 -0.085,-0.142 -0.128,-0.212 -2.87,-4.697 -5.517,-9.543 -7.931,-14.522 -0.12,-0.247 -0.244,-0.492 -0.363,-0.739 -0.464,-0.968 -0.912,-1.945 -1.358,-2.923 -0.197,-0.431 -0.397,-0.861 -0.59,-1.295 -0.404,-0.906 -0.795,-1.817 -1.184,-2.731 -0.219,-0.516 -0.439,-1.032 -0.653,-1.551 -0.361,-0.874 -0.714,-1.751 -1.061,-2.632 -0.225,-0.57 -0.446,-1.142 -0.664,-1.714 -0.326,-0.854 -0.647,-1.71 -0.959,-2.569 -0.222,-0.611 -0.437,-1.226 -0.652,-1.84 -0.294,-0.84 -0.587,-1.679 -0.869,-2.525 -0.216,-0.65 -0.422,-1.305 -0.63,-1.958 -0.263,-0.824 -0.529,-1.646 -0.78,-2.476 -0.214,-0.709 -0.414,-1.424 -0.62,-2.137 -0.226,-0.785 -0.46,-1.567 -0.675,-2.356 -0.395,-1.449 -0.772,-2.905 -1.129,-4.369 -0.158,-0.65 -0.3,-1.306 -0.451,-1.959 -0.207,-0.894 -0.417,-1.788 -0.611,-2.687 -0.149,-0.693 -0.283,-1.391 -0.423,-2.087 -0.175,-0.87 -0.351,-1.739 -0.513,-2.614 -0.13,-0.705 -0.25,-1.414 -0.372,-2.121 -0.15,-0.875 -0.298,-1.751 -0.436,-2.631 -0.11,-0.708 -0.213,-1.418 -0.315,-2.128 -0.127,-0.893 -0.249,-1.788 -0.363,-2.686 -0.089,-0.702 -0.174,-1.404 -0.255,-2.107 -0.105,-0.922 -0.201,-1.846 -0.291,-2.772 -0.067,-0.685 -0.135,-1.369 -0.193,-2.057 -0.083,-0.974 -0.153,-1.952 -0.22,-2.93 -0.044,-0.645 -0.093,-1.288 -0.129,-1.935 -0.062,-1.085 -0.106,-2.175 -0.147,-3.266 -0.021,-0.546 -0.05,-1.09 -0.066,-1.638 -0.046,-1.639 -0.074,-3.283 -0.074,-4.933 0,-4.794 0.208,-9.54 0.597,-14.235 0.572,-0.462 1.089,-1.013 1.506,-1.667 26.882,-42.138 76.734,-48.948 90.887,-50.038 0.031,0.943 0.1,1.877 0.2,2.801 0.013,0.119 0.037,0.235 0.051,0.354 0.097,0.815 0.212,1.623 0.361,2.42 0.007,0.035 0.017,0.069 0.023,0.105 0.339,1.786 0.808,3.525 1.395,5.211 1.115,3.207 2.65,6.22 4.557,8.959 -6.623,7.76 -20.111,25.559 -30.115,51.918 -11.134,29.331 -19.591,74.682 -1.625,130.483 z m 103.207,34.741 c -28.769,0 -55.889,-7.159 -79.706,-19.759 -1.302,-0.688 -2.6,-1.383 -3.881,-2.104 -19.741,-47.899 -21.476,-94.255 -5.134,-137.798 8.947,-23.843 21.187,-40.329 27.311,-47.664 5.838,3.852 12.821,6.102 20.323,6.102 2.212,0 4.374,-0.206 6.48,-0.579 0.122,0.438 0.257,0.914 0.398,1.408 0.17,0.598 0.351,1.226 0.549,1.903 0.059,0.201 0.122,0.417 0.184,0.625 0.063,0.214 0.124,0.422 0.19,0.643 3.657,12.302 11.415,35.657 24.562,63.012 14.269,29.689 37.325,68.645 70.918,100.513 1.309,1.242 2.633,2.474 3.975,3.694 0.012,0.011 0.023,0.021 0.035,0.032 1.263,1.147 2.539,2.285 3.831,3.41 0.113,0.099 0.225,0.2 0.338,0.298 1.179,1.024 2.371,2.037 3.574,3.041 0.216,0.18 0.427,0.364 0.644,0.544 1.388,1.15 2.788,2.29 4.207,3.413 -23.596,12.3 -50.398,19.266 -78.798,19.266 z m 91.896,-26.84 c -10.272,-7.704 -19.7,-16.239 -28.341,-25.224 -0.118,-0.122 -0.237,-0.245 -0.355,-0.367 -0.806,-0.841 -1.602,-1.687 -2.395,-2.536 -0.195,-0.209 -0.39,-0.418 -0.584,-0.627 -0.776,-0.837 -1.546,-1.678 -2.309,-2.521 -0.17,-0.189 -0.34,-0.378 -0.51,-0.568 -3.446,-3.835 -6.756,-7.73 -9.93,-11.665 -0.079,-0.098 -0.159,-0.195 -0.237,-0.293 -0.704,-0.875 -1.399,-1.753 -2.09,-2.631 -0.187,-0.237 -0.374,-0.474 -0.56,-0.711 -0.659,-0.844 -1.314,-1.689 -1.961,-2.535 -0.189,-0.247 -0.377,-0.495 -0.565,-0.743 -0.657,-0.864 -1.311,-1.729 -1.955,-2.595 -0.102,-0.137 -0.202,-0.274 -0.304,-0.412 -2.115,-2.852 -4.162,-5.709 -6.142,-8.566 -0.148,-0.215 -0.301,-0.431 -0.448,-0.646 -0.547,-0.792 -1.085,-1.583 -1.621,-2.375 -0.235,-0.349 -0.473,-0.697 -0.706,-1.046 -0.504,-0.749 -1.003,-1.499 -1.497,-2.247 -0.254,-0.384 -0.506,-0.768 -0.757,-1.151 -0.48,-0.734 -0.959,-1.467 -1.431,-2.199 -0.245,-0.379 -0.484,-0.758 -0.727,-1.137 -1.553,-2.43 -3.058,-4.848 -4.514,-7.25 -0.281,-0.463 -0.565,-0.928 -0.843,-1.39 -0.367,-0.613 -0.728,-1.222 -1.09,-1.831 -0.31,-0.523 -0.619,-1.046 -0.925,-1.567 -0.339,-0.578 -0.674,-1.155 -1.008,-1.73 -0.322,-0.557 -0.641,-1.111 -0.958,-1.665 -0.311,-0.543 -0.621,-1.085 -0.927,-1.626 -0.348,-0.614 -0.689,-1.226 -1.031,-1.836 -0.266,-0.477 -0.535,-0.954 -0.797,-1.428 -0.574,-1.038 -1.141,-2.071 -1.696,-3.097 -0.155,-0.287 -0.306,-0.57 -0.459,-0.855 -0.436,-0.81 -0.868,-1.617 -1.293,-2.418 -0.215,-0.406 -0.425,-0.809 -0.637,-1.213 -0.354,-0.673 -0.705,-1.346 -1.051,-2.013 -0.213,-0.41 -0.422,-0.818 -0.632,-1.226 -0.34,-0.663 -0.676,-1.322 -1.008,-1.978 -0.197,-0.389 -0.393,-0.777 -0.588,-1.164 -0.355,-0.708 -0.705,-1.411 -1.052,-2.11 -0.155,-0.315 -0.315,-0.633 -0.469,-0.946 -0.496,-1.009 -0.984,-2.01 -1.46,-2.998 -15.229,-31.625 -23.146,-58.282 -25.511,-66.892 10.414,-6.539 17.361,-18.113 17.385,-31.288 11.854,1.122 36.239,4.269 63.693,12.638 1.011,0.308 2.035,0.628 3.066,0.955 0.337,0.107 0.679,0.218 1.018,0.327 0.704,0.226 1.411,0.455 2.123,0.69 0.403,0.133 0.809,0.269 1.216,0.404 0.658,0.221 1.32,0.445 1.986,0.673 0.433,0.148 0.865,0.297 1.301,0.449 0.663,0.231 1.331,0.468 2,0.707 0.429,0.153 0.856,0.303 1.286,0.459 0.773,0.28 1.552,0.569 2.331,0.859 0.433,0.161 0.864,0.321 1.299,0.486 0.941,0.356 1.887,0.719 2.836,1.091 0.505,0.198 1.014,0.403 1.521,0.605 0.595,0.237 1.19,0.475 1.787,0.718 0.569,0.231 1.14,0.468 1.71,0.706 0.536,0.222 1.072,0.447 1.609,0.674 0.605,0.256 1.211,0.515 1.818,0.778 0.498,0.215 0.998,0.436 1.497,0.655 0.64,0.282 1.279,0.563 1.921,0.852 0.422,0.19 0.845,0.386 1.267,0.579 2.484,1.136 4.978,2.327 7.474,3.575 0.341,0.17 0.681,0.338 1.021,0.51 0.754,0.382 1.508,0.772 2.263,1.165 0.357,0.186 0.713,0.371 1.068,0.559 0.767,0.404 1.531,0.813 2.296,1.228 0.32,0.173 0.639,0.349 0.958,0.524 0.81,0.444 1.617,0.89 2.425,1.346 0.172,0.098 0.345,0.199 0.518,0.297 2.873,1.635 5.733,3.352 8.568,5.153 0.11,0.07 0.221,0.138 0.331,0.209 0.86,0.548 1.716,1.108 2.57,1.673 0.225,0.148 0.45,0.296 0.674,0.445 0.835,0.557 1.667,1.121 2.497,1.693 0.214,0.147 0.428,0.297 0.642,0.446 0.861,0.599 1.721,1.204 2.575,1.82 0.078,0.056 0.155,0.114 0.233,0.17 3.796,2.747 7.514,5.664 11.128,8.758 0.18,0.154 0.359,0.307 0.539,0.461 0.789,0.682 1.572,1.373 2.352,2.072 0.198,0.178 0.397,0.358 0.595,0.538 0.788,0.714 1.571,1.435 2.347,2.167 0.118,0.111 0.234,0.225 0.352,0.336 2.633,2.501 5.194,5.105 7.668,7.822 0.011,0.012 0.022,0.023 0.033,0.035 5.315,5.842 10.238,12.182 14.611,19.081 0.235,0.371 0.507,0.7 0.795,1.011 -6.43,51.594 -35.933,96.127 -77.829,122.917 z" />

</g>

<g
   id="g350">
</g>

<g
   id="g352">
</g>

<g
   id="g354">
</g>

<g
   id="g356">
</g>

<g
   id="g358">
</g>

<g
   id="g360">
</g>

<g
   id="g362">
</g>

<g
   id="g364">
</g>

<g
   id="g366">
</g>

<g
   id="g368">
</g>

<g
   id="g370">
</g>

<g
   id="g372">
</g>

<g
   id="g374">
</g>

<g
   id="g376">
</g>

<g
   id="g378">
</g>

</svg>
