<?xml version="1.0" encoding="UTF-8" standalone="no"?>
<svg
   xmlns:dc="http://purl.org/dc/elements/1.1/"
   xmlns:cc="http://creativecommons.org/ns#"
   xmlns:rdf="http://www.w3.org/1999/02/22-rdf-syntax-ns#"
   xmlns:svg="http://www.w3.org/2000/svg"
   xmlns="http://www.w3.org/2000/svg"
   xmlns:sodipodi="http://sodipodi.sourceforge.net/DTD/sodipodi-0.dtd"
   xmlns:inkscape="http://www.inkscape.org/namespaces/inkscape"
   inkscape:version="1.0beta1 (32d4812, 2019-09-19)"
   height="482.89999"
   width="410.75522"
   sodipodi:docname="avatar.svg"
   xml:space="preserve"
   viewBox="0 0 410.75522 482.9"
   y="0px"
   x="0px"
   id="Capa_1"
   version="1.1"><metadata
   id="metadata446">
  <rdf:RDF>
    <cc:Work
       rdf:about="">
      <dc:format>image/svg+xml</dc:format>
      <dc:type
         rdf:resource="http://purl.org/dc/dcmitype/StillImage" />
    </cc:Work>
  </rdf:RDF>
</metadata>
<defs
   id="defs444" />
<sodipodi:namedview
   inkscape:current-layer="Capa_1"
   inkscape:window-maximized="0"
   inkscape:window-y="23"
   inkscape:window-x="0"
   inkscape:cy="241.45"
   inkscape:cx="205.37721"
   inkscape:zoom="0.56326362"
   showgrid="false"
   id="namedview442"
   inkscape:window-height="480"
   inkscape:window-width="722"
   inkscape:pageshadow="2"
   inkscape:pageopacity="0"
   guidetolerance="10"
   gridtolerance="10"
   objecttolerance="10"
   borderopacity="1"
   inkscape:document-rotation="0"
   bordercolor="#666666"
   pagecolor="#ffffff" />

<g
   transform="translate(-36.072783)"
   id="g409">
	<g
   id="g407">
		<path
   inkscape:connector-curvature="0"
   id="path403"
   d="m 239.7,260.2 c 0.5,0 1,0 1.6,0 0.2,0 0.4,0 0.6,0 0.3,0 0.7,0 1,0 29.3,-0.5 53,-10.8 70.5,-30.5 38.5,-43.4 32.1,-117.8 31.4,-124.9 C 342.3,51.5 317.1,26 296.3,14.1 280.8,5.2 262.7,0.4 242.5,0 h -0.7 c -0.1,0 -0.3,0 -0.4,0 h -0.6 c -11.1,0 -32.9,1.8 -53.8,13.7 -21,11.9 -46.6,37.4 -49.1,91.1 -0.7,7.1 -7.1,81.5 31.4,124.9 17.4,19.7 41.1,30 70.4,30.5 z M 164.6,107.3 c 0,-0.3 0.1,-0.6 0.1,-0.8 3.3,-71.7 54.2,-79.4 76,-79.4 h 0.4 c 0.2,0 0.5,0 0.8,0 27,0.6 72.9,11.6 76,79.4 0,0.3 0,0.6 0.1,0.8 0.1,0.7 7.1,68.7 -24.7,104.5 -12.6,14.2 -29.4,21.2 -51.5,21.4 -0.2,0 -0.3,0 -0.5,0 v 0 c -0.2,0 -0.3,0 -0.5,0 -22,-0.2 -38.9,-7.2 -51.4,-21.4 -31.7,-35.6 -24.9,-103.9 -24.8,-104.5 z" />

		<path
   inkscape:connector-curvature="0"
   id="path405"
   d="m 446.8,383.6 c 0,-0.1 0,-0.2 0,-0.3 0,-0.8 -0.1,-1.6 -0.1,-2.5 -0.6,-19.8 -1.9,-66.1 -45.3,-80.9 -0.3,-0.1 -0.7,-0.2 -1,-0.3 -45.1,-11.5 -82.6,-37.5 -83,-37.8 -6.1,-4.3 -14.5,-2.8 -18.8,3.3 -4.3,6.1 -2.8,14.5 3.3,18.8 1.7,1.2 41.5,28.9 91.3,41.7 23.3,8.3 25.9,33.2 26.6,56 0,0.9 0,1.7 0.1,2.5 0.1,9 -0.5,22.9 -2.1,30.9 -16.2,9.2 -79.7,41 -176.3,41 C 145.3,456 81.4,424.1 65.1,414.9 63.5,406.9 62.8,393 63,384 c 0,-0.8 0.1,-1.6 0.1,-2.5 0.7,-22.8 3.3,-47.7 26.6,-56 49.8,-12.8 89.6,-40.6 91.3,-41.7 6.1,-4.3 7.6,-12.7 3.3,-18.8 -4.3,-6.1 -12.7,-7.6 -18.8,-3.3 -0.4,0.3 -37.7,26.3 -83,37.8 -0.4,0.1 -0.7,0.2 -1,0.3 -43.4,14.9 -44.7,61.2 -45.3,80.9 0,0.9 0,1.7 -0.1,2.5 0,0.1 0,0.2 0,0.3 -0.1,5.2 -0.2,31.9 5.1,45.3 1,2.6 2.8,4.8 5.2,6.3 3,2 74.9,47.8 195.2,47.8 120.3,0 192.2,-45.9 195.2,-47.8 2.3,-1.5 4.2,-3.7 5.2,-6.3 5,-13.3 4.9,-40 4.8,-45.2 z" />

	</g>

</g>

<g
   transform="translate(-36.072783)"
   id="g411">
</g>

<g
   transform="translate(-36.072783)"
   id="g413">
</g>

<g
   transform="translate(-36.072783)"
   id="g415">
</g>

<g
   transform="translate(-36.072783)"
   id="g417">
</g>

<g
   transform="translate(-36.072783)"
   id="g419">
</g>

<g
   transform="translate(-36.072783)"
   id="g421">
</g>

<g
   transform="translate(-36.072783)"
   id="g423">
</g>

<g
   transform="translate(-36.072783)"
   id="g425">
</g>

<g
   transform="translate(-36.072783)"
   id="g427">
</g>

<g
   transform="translate(-36.072783)"
   id="g429">
</g>

<g
   transform="translate(-36.072783)"
   id="g431">
</g>

<g
   transform="translate(-36.072783)"
   id="g433">
</g>

<g
   transform="translate(-36.072783)"
   id="g435">
</g>

<g
   transform="translate(-36.072783)"
   id="g437">
</g>

<g
   transform="translate(-36.072783)"
   id="g439">
</g>

</svg>
