<?xml version="1.0" encoding="UTF-8" standalone="no"?>
<svg
   xmlns:dc="http://purl.org/dc/elements/1.1/"
   xmlns:cc="http://creativecommons.org/ns#"
   xmlns:rdf="http://www.w3.org/1999/02/22-rdf-syntax-ns#"
   xmlns:svg="http://www.w3.org/2000/svg"
   xmlns="http://www.w3.org/2000/svg"
   xmlns:sodipodi="http://sodipodi.sourceforge.net/DTD/sodipodi-0.dtd"
   xmlns:inkscape="http://www.inkscape.org/namespaces/inkscape"
   inkscape:version="1.0beta1 (32d4812, 2019-09-19)"
   sodipodi:docname="shopping-cart.svg"
   id="svg454"
   version="1.1"
   width="456.00452pt"
   viewBox="0 -13 456.76337 430.03854"
   height="430.03854pt">
  <metadata
     id="metadata460">
    <rdf:RDF>
      <cc:Work
         rdf:about="">
        <dc:format>image/svg+xml</dc:format>
        <dc:type
           rdf:resource="http://purl.org/dc/dcmitype/StillImage" />
      </cc:Work>
    </rdf:RDF>
  </metadata>
  <defs
     id="defs458" />
  <sodipodi:namedview
     inkscape:current-layer="svg454"
     inkscape:window-maximized="0"
     inkscape:window-y="145"
     inkscape:window-x="759"
     inkscape:cy="285.68639"
     inkscape:cx="304.0042"
     inkscape:zoom="0.44736842"
     showgrid="false"
     id="namedview456"
     inkscape:window-height="480"
     inkscape:window-width="722"
     inkscape:pageshadow="2"
     inkscape:pageopacity="0"
     guidetolerance="10"
     gridtolerance="10"
     objecttolerance="10"
     borderopacity="1"
     inkscape:document-rotation="0"
     bordercolor="#666666"
     pagecolor="#ffffff" />
  <path
     inkscape:connector-curvature="0"
     id="path448"
     d="m 150.35863,308.57397 c -30.04688,0 -54.402348,24.35547 -54.402348,54.40234 0,30.04297 24.355468,54.39844 54.402348,54.39844 30.04297,0 54.39844,-24.35547 54.39844,-54.39844 -0.0312,-30.03125 -24.36719,-54.37109 -54.39844,-54.40234 z m 0,88.80078 c -19,0 -34.40234,-15.40234 -34.40234,-34.39844 0,-19 15.40234,-34.40234 34.40234,-34.40234 18.99609,0 34.39844,15.40234 34.39844,34.40234 0,18.9961 -15.40235,34.39844 -34.39844,34.39844 z m 0,0" />
  <path
     inkscape:connector-curvature="0"
     id="path450"
     d="M 446.85863,80.277094 H 93.757063 L 86.557845,39.976313 C 82.120345,15.167719 62.675032,-4.2385311 37.858626,-8.6252501 L 11.757063,-13.222906 C 6.3156572,-14.191656 1.1242512,-10.56275 0.15550122,-5.1252501 -0.80934278,0.31615694 2.8156572,5.5075629 8.2570632,6.4763129 L 34.456282,11.073969 c 16.53125,2.929688 29.472656,15.871094 32.402344,32.402344 L 102.25707,243.17553 c 4.17968,23.89453 24.9414,41.32422 49.19922,41.30078 h 209.99999 c 22.0625,0.0664 41.54688,-14.375 47.90235,-35.5 l 47,-155.800782 c 0.87109,-3.03906 0.32031,-6.3125 -1.5,-8.898434 -1.90235,-2.503906 -4.85938,-3.980468 -8,-4 z M 390.25707,243.07397 c -3.77344,12.6875 -15.46485,21.36719 -28.69922,21.30078 h -210 c -14.56641,0.0391 -27.03516,-10.4414 -29.5,-24.80078 L 97.358626,100.17553 H 433.45628 Z m 0,0" />
  <path
     inkscape:connector-curvature="0"
     id="path452"
     d="m 360.35863,308.57397 c -30.04688,0 -54.40235,24.35547 -54.40235,54.40234 0,30.04297 24.35547,54.39844 54.40235,54.39844 30.04297,0 54.39844,-24.35547 54.39844,-54.39844 -0.0312,-30.03125 -24.36719,-54.37109 -54.39844,-54.40234 z m 0,88.80078 c -19,0 -34.40235,-15.40234 -34.40235,-34.39844 0,-19 15.40235,-34.40234 34.40235,-34.40234 18.99609,0 34.39844,15.40234 34.39844,34.40234 0,18.9961 -15.40235,34.39844 -34.39844,34.39844 z m 0,0" />
</svg>
