<?xml version="1.0" encoding="UTF-8" standalone="no"?>
<svg
   xmlns:dc="http://purl.org/dc/elements/1.1/"
   xmlns:cc="http://creativecommons.org/ns#"
   xmlns:rdf="http://www.w3.org/1999/02/22-rdf-syntax-ns#"
   xmlns:svg="http://www.w3.org/2000/svg"
   xmlns="http://www.w3.org/2000/svg"
   xmlns:sodipodi="http://sodipodi.sourceforge.net/DTD/sodipodi-0.dtd"
   xmlns:inkscape="http://www.inkscape.org/namespaces/inkscape"
   inkscape:version="1.0beta1 (32d4812, 2019-09-19)"
   height="373.76801"
   width="503.59601"
   sodipodi:docname="video-player.svg"
   xml:space="preserve"
   viewBox="0 0 503.596 373.768"
   y="0px"
   x="0px"
   id="Layer_1"
   version="1.1"><metadata
   id="metadata503">
  <rdf:RDF>
    <cc:Work
       rdf:about="">
      <dc:format>image/svg+xml</dc:format>
      <dc:type
         rdf:resource="http://purl.org/dc/dcmitype/StillImage" />
    </cc:Work>
  </rdf:RDF>
</metadata>
<defs
   id="defs501" />
<sodipodi:namedview
   inkscape:current-layer="Layer_1"
   inkscape:window-maximized="0"
   inkscape:window-y="175"
   inkscape:window-x="769"
   inkscape:cy="186.884"
   inkscape:cx="251.798"
   inkscape:zoom="0.54011548"
   showgrid="false"
   id="namedview499"
   inkscape:window-height="480"
   inkscape:window-width="722"
   inkscape:pageshadow="2"
   inkscape:pageopacity="0"
   guidetolerance="10"
   gridtolerance="10"
   objecttolerance="10"
   borderopacity="1"
   inkscape:document-rotation="0"
   bordercolor="#666666"
   pagecolor="#ffffff" />

<g
   transform="translate(0,-64.914)"
   id="g466">
	<g
   id="g464">
		<path
   inkscape:connector-curvature="0"
   id="path462"
   d="m 503.592,84.774 c 0,-10.968 -8.892,-19.86 -19.852,-19.86 H 19.86 C 8.892,64.914 0,73.806 0,84.774 v 334.048 c 0,10.968 8.892,19.86 19.86,19.86 h 463.884 c 10.96,0 19.852,-8.892 19.852,-19.86 V 84.774 Z m -243.924,11.62 c 0,-2.172 1.756,-3.936 3.936,-3.936 h 31.476 c 2.172,0 3.928,1.764 3.928,3.936 v 31.476 c 0,2.18 -1.756,3.928 -3.928,3.928 h -31.476 c -2.18,0 -3.936,-1.752 -3.936,-3.928 z m -55.08,0 c 0,-2.172 1.764,-3.936 3.936,-3.936 h 31.472 c 2.172,0 3.932,1.764 3.932,3.936 v 31.476 c 0,2.18 -1.76,3.928 -3.932,3.928 h -31.472 c -2.172,0 -3.936,-1.752 -3.936,-3.928 z m -125.9,310.812 c 0,2.172 -1.756,3.928 -3.936,3.928 H 43.284 c -2.172,0 -3.936,-1.756 -3.936,-3.928 V 375.73 c 0,-2.172 1.764,-3.936 3.936,-3.936 h 31.468 c 2.18,0 3.936,1.764 3.936,3.936 z m 0,-279.336 c 0,2.18 -1.756,3.928 -3.936,3.928 H 43.284 c -2.172,0 -3.936,-1.752 -3.936,-3.928 V 96.394 c 0,-2.172 1.764,-3.936 3.936,-3.936 h 31.468 c 2.18,0 3.936,1.764 3.936,3.936 z m 55.084,279.336 c 0,2.172 -1.764,3.928 -3.936,3.928 H 98.36 c -2.172,0 -3.928,-1.756 -3.928,-3.928 V 375.73 c 0,-2.172 1.756,-3.936 3.928,-3.936 h 31.476 c 2.172,0 3.936,1.764 3.936,3.936 z m 0,-279.336 c 0,2.18 -1.764,3.928 -3.936,3.928 H 98.36 c -2.172,0 -3.928,-1.752 -3.928,-3.928 V 96.394 c 0,-2.172 1.756,-3.936 3.928,-3.936 h 31.476 c 2.172,0 3.936,1.764 3.936,3.936 z m 55.08,279.336 c 0,2.172 -1.764,3.928 -3.936,3.928 h -31.472 c -2.176,0 -3.932,-1.756 -3.932,-3.928 V 375.73 c 0,-2.172 1.756,-3.936 3.932,-3.936 h 31.472 c 2.172,0 3.936,1.764 3.936,3.936 z m 0,-279.336 c 0,2.18 -1.764,3.928 -3.936,3.928 h -31.472 c -2.176,0 -3.932,-1.752 -3.932,-3.928 V 96.394 c 0,-2.172 1.756,-3.936 3.932,-3.936 h 31.472 c 2.172,0 3.936,1.764 3.936,3.936 z m 7.864,188.468 v -135.96 c 0,-11.624 5.964,-19.116 15.08,-19.116 4.064,0 8.4,1.516 12.796,4.516 l 95.164,64.652 c 6.852,4.664 10.632,11.032 10.632,17.936 0,6.892 -3.764,13.256 -10.616,17.916 l -95.14,64.672 c -4.404,2.992 -8.776,4.508 -12.84,4.508 -9.112,0 -15.076,-7.5 -15.076,-19.124 z m 47.212,90.868 c 0,2.172 -1.76,3.928 -3.932,3.928 h -31.472 c -2.172,0 -3.936,-1.756 -3.936,-3.928 V 375.73 c 0,-2.172 1.764,-3.936 3.936,-3.936 h 31.472 c 2.172,0 3.932,1.764 3.932,3.936 z m 55.08,0 c 0,2.172 -1.756,3.928 -3.928,3.928 h -31.476 c -2.18,0 -3.936,-1.756 -3.936,-3.928 V 375.73 c 0,-2.172 1.756,-3.936 3.936,-3.936 h 31.476 c 2.172,0 3.928,1.764 3.928,3.936 z m 55.076,0 c 0,2.172 -1.752,3.928 -3.928,3.928 H 318.68 c -2.172,0 -3.928,-1.756 -3.928,-3.928 V 375.73 c 0,-2.172 1.756,-3.936 3.928,-3.936 h 31.476 c 2.18,0 3.928,1.764 3.928,3.936 z m 0,-279.336 c 0,2.18 -1.752,3.928 -3.928,3.928 H 318.68 c -2.172,0 -3.928,-1.752 -3.928,-3.928 V 96.394 c 0,-2.172 1.756,-3.936 3.928,-3.936 h 31.476 c 2.18,0 3.928,1.764 3.928,3.936 z m 51.152,283.264 h -31.48 c -2.164,0 -3.928,-1.756 -3.928,-3.928 V 375.73 c 0,-2.172 1.764,-3.936 3.928,-3.936 h 31.476 c 2.18,0 3.936,1.764 3.936,3.936 v 31.476 h 0.004 c 0,2.172 -1.756,3.928 -3.936,3.928 z m 0,-279.336 h -31.48 c -2.164,0 -3.928,-1.752 -3.928,-3.928 V 96.394 c 0,-2.172 1.764,-3.936 3.928,-3.936 h 31.476 c 2.18,0 3.936,1.764 3.936,3.936 v 31.476 h 0.004 c 0,2.18 -1.756,3.928 -3.936,3.928 z m 59.012,275.408 c 0,2.172 -1.756,3.928 -3.936,3.928 h -31.468 c -2.172,0 -3.936,-1.756 -3.936,-3.928 V 375.73 c 0,-2.172 1.764,-3.936 3.936,-3.936 h 31.468 c 2.18,0 3.936,1.764 3.936,3.936 z m 0,-279.336 c 0,2.18 -1.756,3.928 -3.936,3.928 h -31.468 c -2.172,0 -3.936,-1.752 -3.936,-3.928 V 96.394 c 0,-2.172 1.764,-3.936 3.936,-3.936 h 31.468 c 2.18,0 3.936,1.764 3.936,3.936 z" />

	</g>

</g>

<g
   transform="translate(0,-64.914)"
   id="g468">
</g>

<g
   transform="translate(0,-64.914)"
   id="g470">
</g>

<g
   transform="translate(0,-64.914)"
   id="g472">
</g>

<g
   transform="translate(0,-64.914)"
   id="g474">
</g>

<g
   transform="translate(0,-64.914)"
   id="g476">
</g>

<g
   transform="translate(0,-64.914)"
   id="g478">
</g>

<g
   transform="translate(0,-64.914)"
   id="g480">
</g>

<g
   transform="translate(0,-64.914)"
   id="g482">
</g>

<g
   transform="translate(0,-64.914)"
   id="g484">
</g>

<g
   transform="translate(0,-64.914)"
   id="g486">
</g>

<g
   transform="translate(0,-64.914)"
   id="g488">
</g>

<g
   transform="translate(0,-64.914)"
   id="g490">
</g>

<g
   transform="translate(0,-64.914)"
   id="g492">
</g>

<g
   transform="translate(0,-64.914)"
   id="g494">
</g>

<g
   transform="translate(0,-64.914)"
   id="g496">
</g>

</svg>
