<?xml version="1.0" encoding="utf-8"?>
<!-- Generator: Adobe Illustrator 17.0.0, SVG Export Plug-In . SVG Version: 6.00 Build 0)  -->
<!DOCTYPE svg PUBLIC "-//W3C//DTD SVG 1.1//EN" "http://www.w3.org/Graphics/SVG/1.1/DTD/svg11.dtd">
<svg version="1.1" id="Layer_1" xmlns="http://www.w3.org/2000/svg" xmlns:xlink="http://www.w3.org/1999/xlink" x="0px" y="0px"
	 width="200px" height="148px" viewBox="0 0 200 148" enable-background="new 0 0 200 148" xml:space="preserve">
<g>
	<path fill-rule="evenodd" clip-rule="evenodd" fill="#0A418F" d="M86.362,1.541h4.678h0.522l0.2,0.487l7.195,17.477l0.445,1.081
		h-1.167H93.89h-0.534l-0.194-0.505l-1.136-2.954h-6.155l-1.027,2.933l-0.184,0.526h-0.553h-4.274h-1.126l0.395-1.056l6.53-17.477
		l0.191-0.511H86.362L86.362,1.541z M87.489,12.509h2.744l-1.437-3.723L87.489,12.509L87.489,12.509z M107.29,15.764h7.48h0.784
		v0.784v3.255v0.784h-0.784h-12.348h-0.784v-0.784V2.325V1.541h0.784h4.084h0.784v0.784V15.764L107.29,15.764z M124.204,15.764h7.48
		h0.784v0.784v3.255v0.784h-0.784h-12.348h-0.784v-0.784V2.325V1.541h0.784h4.084h0.784v0.784V15.764L124.204,15.764z"/>
	<path fill-rule="evenodd" clip-rule="evenodd" fill="#DF3438" d="M193.047,141.443L6.209,147.702
		c-0.166,0.012-0.336,0.014-0.508,0.005c-1.537-0.075-2.69-0.956-2.575-1.966l5.762-48.888l0.007,0
		c0.109-0.973,1.367-1.725,2.863-1.694l172.598,3.555c1.399-0.026,2.634,0.642,2.836,1.575l8.473,39.066h-0.002
		c0.012,0.054,0.02,0.109,0.024,0.165C195.765,140.53,194.583,141.391,193.047,141.443L193.047,141.443z"/>
	<path fill-rule="evenodd" clip-rule="evenodd" fill="#FFDD00" d="M108.07,69.491c0,4.988-0.758,9.639-2.271,13.953
		c-1.52,4.335-3.794,8.291-6.817,11.868l-0.011,0.012c-3.141,3.65-6.661,6.397-10.56,8.239c-3.93,1.857-8.202,2.785-12.818,2.785
		c-4.609,0-8.881-0.882-12.809-2.647c-3.92-1.762-7.445-4.38-10.571-7.855v-0.012c-3.097-3.463-5.422-7.327-6.971-11.592
		c-1.545-4.252-2.319-8.87-2.319-13.856c0-5.018,0.762-9.705,2.283-14.053c1.527-4.368,3.813-8.356,6.853-11.959h0.012
		c3.114-3.659,6.609-6.41,10.488-8.25c3.912-1.857,8.176-2.786,12.794-2.786c4.653,0,8.944,0.89,12.868,2.671
		c3.922,1.78,7.436,4.43,10.535,7.95l-0.007,0.006c3.104,3.465,5.436,7.34,6.991,11.617C107.292,59.852,108.07,64.49,108.07,69.491
		L108.07,69.491z M86.466,68.708c0-2.039-0.265-3.898-0.795-5.579c-0.516-1.638-1.29-3.13-2.32-4.48
		c-1.043-1.281-2.208-2.236-3.496-2.862c-1.291-0.626-2.759-0.941-4.406-0.941c-1.623,0-3.084,0.356-4.38,1.067
		c-1.357,0.745-2.589,1.893-3.696,3.443l-0.035,0.035c-1.114,1.509-1.957,3.171-2.529,4.98c-0.571,1.804-0.856,3.752-0.856,5.839
		c0,4.092,1.077,7.501,3.231,10.214l-0.001,0.001c0.98,1.216,2.118,2.127,3.412,2.73c1.31,0.61,2.817,0.917,4.519,0.917
		c1.648,0,3.132-0.355,4.451-1.067c1.366-0.737,2.605-1.864,3.716-3.38l-0.006-0.004c1.061-1.503,1.856-3.149,2.384-4.933
		C86.197,72.871,86.466,70.876,86.466,68.708L86.466,68.708z"/>
	<path fill="#FFAA00" d="M108.917,78.245c-0.081,0.263-0.124,0.531-0.131,0.798c-0.177,0.55-0.132,1.134-0.132,1.704
		c-0.08,0.259-0.123,0.524-0.131,0.787c-0.065,0.209-0.105,0.421-0.123,0.632c-0.047,0.148-0.082,0.297-0.105,0.447
		c-0.119,0.339-0.173,0.688-0.167,1.032c-0.043,0.138-0.074,0.277-0.096,0.416c-0.123,0.351-0.245,0.706-0.283,1.077l-0.016,0.019
		V85c0-0.157-0.127,0.27-0.178,0.398c-0.058,0.088-0.112,0.183-0.165,0.288c-0.151,0.304-0.326,0.614-0.432,0.936
		c-0.203,0.289-0.349,0.605-0.438,0.934c-0.096,0.122-0.181,0.251-0.254,0.384c-0.262,0.332-0.444,0.708-0.544,1.099
		c-0.033,0.085-0.07,0.138-0.113,0.217c-0.172,0.218-0.28,0.423-0.402,0.667c-0.097,0.123-0.182,0.252-0.256,0.386
		c-0.099,0.126-0.187,0.258-0.263,0.395c-0.084,0.106-0.158,0.216-0.226,0.33c-0.172,0.183-0.319,0.386-0.438,0.604
		c-0.17,0.213-0.277,0.417-0.396,0.656c-0.096,0.123-0.182,0.253-0.256,0.386c-0.084,0.106-0.159,0.217-0.227,0.331
		c-0.309,0.329-0.529,0.712-0.661,1.117c-0.045,0.063-0.087,0.128-0.125,0.194c-0.223,0.224-0.378,0.426-0.553,0.689
		c-0.183,0.193-0.34,0.381-0.51,0.635c-0.114,0.068-0.222,0.142-0.324,0.223c-0.338,0.188-0.626,0.434-0.858,0.719
		c-0.079,0.065-0.143,0.159-0.245,0.223c-0.208,0.133-0.412,0.219-0.609,0.374c-0.227,0.126-0.431,0.279-0.611,0.452l0.035-0.035
		c-0.216,0.109-0.404,0.214-0.597,0.364c-0.244,0.122-0.453,0.233-0.67,0.405c-0.112,0.062-0.219,0.131-0.32,0.205
		c-0.498,0.1-0.951,0.324-1.326,0.638c-0.311,0.11-0.599,0.27-0.853,0.47c-0.212,0.118-0.405,0.259-0.577,0.418
		c-0.201,0.092-0.432,0.207-0.617,0.323c-0.354,0.135-0.667,0.331-0.934,0.572c-0.305,0.103-0.56,0.204-0.84,0.391l-1.82,1.213
		c-0.214,0.143-0.466,0.225-0.681,0.367c-0.167,0.109-0.587,0.202-0.601,0.209c-0.521,0.261-0.993,0.578-1.531,0.803
		c-0.516,0.217-0.798,0.322-1.267,0.596c-0.429,0.251-0.84,0.486-1.282,0.707c-0.384,0.192-0.709,0.456-0.966,0.768
		c-0.713,0.59-1.091,1.46-1.079,2.34h-3.377c-0.306-0.094-0.618-0.137-0.928-0.132c-0.118-0.037-0.243-0.068-0.381-0.091
		c-0.383-0.063-0.807-0.159-1.199-0.171c-0.588-0.191-1.289-0.055-1.902-0.133c-0.513-0.065-0.869-0.263-1.397-0.263
		c-0.245-0.071-0.485-0.121-0.771-0.13c-0.368-0.114-0.664-0.133-1.042-0.133l-1.223-0.305c-0.295-0.074-0.625-0.1-0.928-0.138
		c-0.377-0.152-0.77-0.221-1.156-0.215c-0.207-0.064-0.418-0.104-0.629-0.122c-0.31-0.099-0.625-0.145-0.935-0.142
		c-0.375-0.093-0.631-0.124-0.987-0.13c-0.365-0.21-0.758-0.334-1.155-0.378c-0.468-0.276-0.983-0.41-1.494-0.413h0.201
		l-0.346-0.115c-0.674-0.224-1.078-0.426-1.73-0.638c-0.306-0.099-0.512-0.241-0.818-0.343c-0.232-0.116-0.474-0.215-0.696-0.348
		c-0.335-0.2-0.604-0.345-0.968-0.514c-0.283-0.131-0.535-0.339-0.801-0.502c-0.269-0.165-0.482-0.372-0.767-0.515l-0.549-0.275
		c-0.368-0.184-0.671-0.435-0.99-0.692c-0.264-0.212-0.471-0.425-0.773-0.585l0.113,0.056c-0.24-0.239-0.469-0.423-0.771-0.583
		l0.113,0.056c-0.248-0.247-0.454-0.451-0.762-0.635c-0.182-0.183-0.371-0.365-0.572-0.513c-0.09-0.122-0.187-0.24-0.299-0.353
		l-0.975-0.975c-0.331-0.331-0.483-0.614-0.806-0.937c-0.149-0.251-0.33-0.474-0.535-0.665c-0.188-0.315-0.38-0.514-0.632-0.766
		c-0.207-0.411-1.166-1.56-0.869-1.264l0.079,0.079c0.265,0.264-0.386-0.645-0.549-0.981c-0.153-0.316-0.245-0.649-0.432-0.948
		c-0.144-0.376-0.582-1.001-0.742-1.313c-0.113-0.22-0.189-0.434-0.268-0.672c-0.096-0.289-0.295-0.488-0.39-0.776l-0.126-0.377
		c-0.035-0.422-0.218-0.981-0.39-1.373c-0.03-0.508-0.272-1.161-0.478-1.627c-0.101-0.229-0.183-0.419-0.263-0.659l-0.029-0.085
		l-0.015-0.058c0-0.386-0.022-0.698-0.142-1.072c-0.018-0.216-0.059-0.425-0.121-0.625c0-0.321-0.037-0.614-0.132-0.922
		c0-0.47-0.085-0.897-0.288-1.323l0.157,0.313c0-0.578-0.11-0.898-0.285-1.424l0.022,0.065c0-0.38-0.018-0.687-0.133-1.058
		c-0.008-0.274-0.054-0.539-0.131-0.79c-0.013-0.424-0.115-0.826-0.287-1.187l0.156,0.313c0-0.355-0.033-0.658-0.143-0.999
		c-0.019-0.217-0.06-0.427-0.122-0.628c-0.009-0.285-0.058-0.56-0.141-0.819c-0.014-0.244-0.084-0.465-0.121-0.772
		c-0.037-0.311-0.039-0.607-0.131-0.907c0-0.333-0.04-0.637-0.143-0.956c-0.018-0.217-0.06-0.427-0.122-0.628
		c-0.009-0.284-0.057-0.559-0.14-0.818c-0.014-0.245-0.086-0.466-0.121-0.773c-0.039-0.338-0.092-0.59-0.132-0.921
		c-0.041-0.338-0.09-0.59-0.131-0.922c-0.039-0.311-0.039-0.607-0.132-0.907c0-0.725,0.048-1.272-0.132-1.99v-5.178
		c0-0.317,0.119-0.629,0.13-0.946c0.104-0.338,0.101-0.631,0.133-0.98c0.027-0.3,0.119-0.562,0.13-0.862
		c0.055-0.177,0.092-0.356,0.113-0.534c0.141-0.299,0.227-0.61,0.264-0.923c0.112-0.238,0.189-0.484,0.235-0.731
		c0.127-0.256,0.214-0.522,0.263-0.79c0.042-0.085,0.08-0.171,0.114-0.259c0.137-0.217,0.304-0.553,0.397-0.794
		c0.165-0.26,0.341-0.626,0.467-0.909c0.112-0.199,0.239-0.456,0.321-0.667c0.121-0.19,0.217-0.391,0.29-0.598
		c0.111-0.133,0.209-0.273,0.294-0.418c0.257-0.28,0.395-0.515,0.562-0.847c0.097-0.123,0.181-0.252,0.256-0.385
		c0.172-0.219,0.28-0.424,0.403-0.669c0.16-0.206,0.336-0.489,0.46-0.699c0.154-0.165,0.29-0.332,0.413-0.54
		c0.264-0.247,0.477-0.538,0.633-0.854l0.041-0.081c0.222-0.223,0.396-0.435,0.55-0.712c0.114-0.144,0.212-0.296,0.296-0.454
		l-0.056,0.112c-0.287,0.577,0.676-0.763,1.053-1.316c0.267-0.392,0.665-0.629,0.909-1.043c0.231-0.246,0.456-0.602,0.627-0.889
		c0.279-0.279,0.507-0.503,0.708-0.855c0.332-0.364,0.564-0.811,0.913-1.161l0.844-0.844c0.217-0.217,0.394-0.46,0.53-0.718
		l-0.056,0.113c0.128-0.128,0.257-0.252,0.372-0.392c0.149-0.122,0.283-0.264,0.419-0.401c0.32-0.189,0.521-0.39,0.777-0.646
		c0.203-0.12,0.386-0.26,0.549-0.417l-0.17,0.171c0.306-0.154,0.552-0.305,0.804-0.542c0.202-0.119,0.385-0.259,0.548-0.415
		l-0.035,0.035c0.551-0.276,0.946-0.476,1.351-0.981l0.084-0.019l-0.056,0.113c0.142-0.071,0.281-0.139,0.416-0.224
		c0.281-0.107,0.542-0.255,0.775-0.438c0.34-0.171,0.607-0.324,0.888-0.593l-0.166,0.167l0.613-0.307
		c0.294-0.054,0.574-0.151,0.831-0.283c0.176-0.082,0.367-0.13,0.556-0.214c0.183-0.021,0.362-0.059,0.534-0.112
		c0.458,0,0.734-0.032,1.179-0.173c0.17-0.059,0.684-0.221,0.838-0.221c0.346,0,0.677-0.059,0.986-0.167
		c0.144-0.022,0.286-0.055,0.423-0.097c0.286-0.009,0.561-0.057,0.821-0.141c0.217-0.019,0.428-0.06,0.629-0.122
		c0.277-0.009,0.543-0.055,0.796-0.134c0.316-0.013,0.622-0.108,0.937-0.128c0.502-0.032,0.92-0.087,1.413-0.17
		c0.269,0.043,0.543,0.054,0.868,0.008c0.46-0.066,1.88-0.402,1.443-0.255l-0.065,0.022h5.761c0.641,0.187,1.315,0.131,1.975,0.131
		c0.433,0.127,0.737,0.132,1.173,0.132c0.266,0.082,0.534,0.125,0.8,0.131c0.316,0.092,0.582,0.132,0.911,0.132
		c0.271,0.083,0.546,0.126,0.817,0.132h-0.03l0.131,0.044c0.673,0.224,1.031,0.298,1.713,0.351c0.218,0.017,0.383,0.172,0.594,0.242
		c0.223,0.074,0.317,0.126,0.53,0.233c0.35,0.175,0.718,0.275,1.085,0.306l1.035,0.345c0.281,0.177,0.586,0.302,0.9,0.376
		c0.087,0.056,0.176,0.112,0.271,0.16c0.474,0.237,0.871,0.454,1.374,0.621c0.145,0.072,0.297,0.133,0.434,0.218
		c0.326,0.2,0.61,0.369,0.925,0.528c0.313,0.289,0.699,0.497,1.088,0.67c0.207,0.165,0.431,0.298,0.666,0.401
		c0.108,0.085,0.22,0.162,0.336,0.23c0.199,0.187,0.418,0.341,0.649,0.463l-0.113-0.056c0.253,0.252,0.462,0.458,0.777,0.644
		c0.069,0.065,0.139,0.125,0.213,0.182c0.274,0.353,0.617,0.632,1.001,0.827l-0.148-0.074l0.236,0.236
		c0.184,0.367,0.37,0.652,0.674,0.936c0.07,0.118,0.147,0.23,0.23,0.335c0.136,0.313,0.322,0.592,0.543,0.831
		c0.154,0.307,0.306,0.554,0.543,0.808c0.101,0.172,0.205,0.294,0.296,0.475c0.141,0.281,0.26,0.528,0.459,0.78
		c0.133,0.302,0.318,0.654,0.516,0.909c0.193,0.385,0.389,0.838,0.616,1.199c0.092,0.241,0.258,0.57,0.396,0.79
		c0.11,0.289,0.291,0.615,0.433,0.898c0.079,0.291,0.199,0.564,0.356,0.813c0.035,0.091,0.074,0.18,0.117,0.266
		c0.061,0.336,0.165,0.594,0.317,0.897c0.052,0.192,0.122,0.376,0.209,0.551c0.059,0.323,0.181,0.567,0.303,0.869
		c0.154,0.382,0.161,0.718,0.358,1.111l0.1,0.2c0.038,0.326,0.129,0.636,0.263,0.921c0.033,0.277,0.103,0.542,0.205,0.79
		c0.051,0.201,0.135,0.436,0.204,0.636c0.057,0.369,0.165,0.646,0.331,0.977c0.098,0.366,0.17,0.737,0.341,1.08
		c0.023,0.127,0.055,0.251,0.093,0.372c0.033,0.39,0.16,0.76,0.288,1.127c0.023,0.145,0.055,0.287,0.097,0.424
		c0.014,0.47,0.134,0.783,0.273,1.214c0.018,0.217,0.06,0.428,0.122,0.629c0.009,0.274,0.054,0.539,0.132,0.79
		c0.009,0.274,0.054,0.539,0.132,0.79c0.011,0.37,0.09,0.722,0.224,1.046c0.048,0.186,0.113,0.365,0.194,0.535l-0.156-0.312
		c0,0.343,0.031,0.638,0.133,0.969c0.008,0.274,0.054,0.539,0.131,0.79c0.009,0.274,0.055,0.539,0.132,0.79
		c0.013,0.424,0.115,0.826,0.287,1.188l-0.157-0.313V78.245L108.917,78.245z M82.72,108.428l0.01,0.177
		c-0.265,0.14-0.506,0.319-0.716,0.529L82.72,108.428L82.72,108.428z M103.094,76.003c0.332-2.039,0.498-4.21,0.498-6.512
		c0-8.409-2.411-16.048-8.033-22.402l-0.161-0.174c-5.339-6.065-11.958-9.099-20.044-9.099c-7.943,0-14.41,3.174-19.61,9.121
		c-0.152,0.217-0.323,0.42-0.51,0.607c-5.459,6.61-7.831,14.329-7.831,22.842c0,8.341,2.351,15.86,7.886,22.193
		c0.17,0.161,0.328,0.335,0.471,0.52c5.356,5.842,11.898,8.77,19.833,8.77c8.044,0,14.532-3.217,19.795-9.231
		c0.109-0.145,0.228-0.285,0.357-0.419C99.694,87.478,102.103,82.092,103.094,76.003L103.094,76.003z M76.538,56.87
		c-28.755-7.03-0.769,45.968,7.918,19.906l0.235-0.707c0.282-0.705,0.444-1.049,0.444-1.844c0.09-0.36,0.132-0.619,0.132-0.994
		c0.065-0.326,0.132-0.616,0.132-0.954v-5.266c0-0.34-0.057-0.612-0.14-0.893c-0.017-0.216-0.058-0.433-0.124-0.646
		c-0.017-0.559-0.245-1.237-0.497-1.74c-0.051-0.189-0.122-0.376-0.213-0.557c-0.223-0.446-0.414-0.894-0.71-1.285
		c-0.119-0.216-0.265-0.42-0.44-0.606c-0.067-0.114-0.143-0.224-0.226-0.33c-0.076-0.137-0.164-0.269-0.263-0.396
		c-0.117-0.21-0.261-0.408-0.432-0.591c-0.125-0.213-0.279-0.413-0.462-0.595c-0.458-0.458-0.91-0.936-1.382-1.379
		C79.697,56.615,77.939,56.125,76.538,56.87L76.538,56.87z M90.693,65.155c0.661,4.636,0.044,9.813-2.004,14.048
		c-2.067,4.276-5.43,7.8-10.194,8.942c-2.218,0.532-4.43,0.525-6.661,0.073c-3.381-0.687-5.985-2.374-8.149-5.011
		c-2.807-3.535-4.211-7.873-4.211-12.995c0-4.768,1.268-9.243,4.038-13.147c0.135-0.222,0.292-0.435,0.47-0.636
		c2.828-3.798,6.66-6.061,11.467-6.061c5.983,0,10.544,3.19,13.225,8.367C89.723,60.758,90.372,62.902,90.693,65.155L90.693,65.155z
		"/>
	<path fill="#0A418F" d="M111.055,69.491c0,2.622-0.205,5.192-0.615,7.707c-0.406,2.494-1.017,4.902-1.831,7.225
		c-0.817,2.33-1.844,4.57-3.077,6.718c-1.237,2.154-2.663,4.186-4.276,6.095c-0.033,0.04-0.068,0.079-0.103,0.116l-0.061,0.07
		l0.001,0.001l-0.01,0.009c-1.652,1.899-3.412,3.578-5.278,5.034c-1.944,1.517-3.986,2.781-6.123,3.791
		c-2.18,1.03-4.445,1.801-6.794,2.311c-2.35,0.51-4.783,0.766-7.296,0.766c-2.476,0-4.895-0.244-7.256-0.732
		c-2.353-0.486-4.609-1.214-6.766-2.183c-2.163-0.973-4.212-2.177-6.145-3.613c-1.934-1.438-3.744-3.093-5.428-4.965
		c-0.074-0.082-0.142-0.167-0.205-0.254c-1.595-1.81-2.996-3.718-4.2-5.721c-1.259-2.095-2.309-4.298-3.148-6.608
		c-0.837-2.304-1.464-4.697-1.879-7.179c-0.418-2.494-0.626-5.058-0.626-7.692c0-2.636,0.206-5.222,0.617-7.755
		c0.407-2.51,1.021-4.936,1.84-7.278c0.832-2.38,1.86-4.637,3.081-6.768c1.225-2.138,2.662-4.184,4.309-6.136
		c0.075-0.089,0.155-0.172,0.238-0.25c1.646-1.905,3.367-3.565,5.162-4.977c1.915-1.507,3.949-2.771,6.102-3.793
		c2.169-1.029,4.427-1.8,6.774-2.311c2.346-0.51,4.777-0.766,7.291-0.766c2.506,0,4.945,0.246,7.315,0.738
		c2.367,0.491,4.627,1.225,6.778,2.201c2.167,0.984,4.218,2.205,6.149,3.662c1.921,1.45,3.722,3.129,5.4,5.034
		c0.073,0.083,0.14,0.168,0.201,0.256c1.599,1.815,2.994,3.711,4.183,5.686c1.256,2.087,2.31,4.301,3.16,6.638
		c0.841,2.312,1.47,4.715,1.887,7.206C110.845,64.277,111.055,66.85,111.055,69.491L111.055,69.491z M104.563,76.242
		c0.347-2.134,0.522-4.385,0.522-6.751c0-2.359-0.179-4.605-0.536-6.738c-0.359-2.146-0.895-4.199-1.607-6.157
		c-0.705-1.94-1.596-3.803-2.67-5.588c-1.068-1.774-2.293-3.438-3.673-4.987c-0.03-0.031-0.06-0.063-0.089-0.096l-0.058-0.069
		c-1.4-1.582-2.884-2.963-4.448-4.144c-1.582-1.193-3.251-2.189-5.007-2.986c-1.772-0.804-3.62-1.407-5.541-1.805
		c-1.92-0.398-3.955-0.598-6.102-0.598c-2.103,0-4.114,0.209-6.032,0.627c-1.917,0.418-3.748,1.04-5.491,1.867
		c-1.726,0.819-3.379,1.85-4.959,3.094c-1.55,1.219-2.999,2.608-4.348,4.166c-0.109,0.156-0.231,0.301-0.367,0.433
		c-1.32,1.588-2.487,3.268-3.501,5.037c-1.063,1.855-1.943,3.778-2.637,5.765c-0.702,2.007-1.23,4.1-1.583,6.276
		c-0.349,2.151-0.524,4.418-0.524,6.799c0,2.351,0.178,4.589,0.533,6.712c0.358,2.138,0.891,4.181,1.599,6.13
		c0.71,1.953,1.596,3.814,2.659,5.581c1.025,1.706,2.213,3.324,3.561,4.854c0.122,0.115,0.234,0.24,0.336,0.375
		c1.389,1.524,2.848,2.852,4.374,3.986c1.592,1.183,3.268,2.17,5.025,2.96c1.77,0.795,3.613,1.391,5.529,1.787
		c1.91,0.394,3.933,0.592,6.066,0.592c2.102,0,4.115-0.209,6.037-0.626c1.924-0.418,3.761-1.041,5.51-1.867
		c1.76-0.832,3.429-1.862,5.004-3.091c1.551-1.21,3.03-2.624,4.436-4.241c0.075-0.1,0.157-0.196,0.246-0.288
		c1.36-1.626,2.545-3.316,3.552-5.069c1.037-1.807,1.908-3.712,2.61-5.715C103.687,80.474,104.212,78.399,104.563,76.242
		L104.563,76.242z M83.481,68.708c0-0.903-0.055-1.738-0.164-2.504c-0.109-0.768-0.273-1.498-0.491-2.189
		c-0.207-0.656-0.463-1.28-0.769-1.87c-0.304-0.587-0.662-1.15-1.073-1.689l-0.009-0.012c-0.36-0.432-0.75-0.82-1.169-1.163
		c-0.414-0.339-0.829-0.61-1.245-0.812c-0.428-0.207-0.892-0.365-1.393-0.472c-0.516-0.11-1.089-0.166-1.718-0.166
		c-0.6,0-1.138,0.058-1.613,0.174c-0.46,0.112-0.905,0.286-1.332,0.521c-0.465,0.255-0.915,0.585-1.348,0.989
		c-0.473,0.44-0.926,0.964-1.357,1.568c-0.051,0.071-0.104,0.139-0.16,0.205c-0.415,0.576-0.785,1.184-1.109,1.821
		c-0.34,0.669-0.632,1.39-0.876,2.161c-0.24,0.757-0.419,1.54-0.537,2.346c-0.119,0.814-0.179,1.68-0.179,2.595
		c0,3.404,0.86,6.195,2.578,8.359l0.067,0.088c0.341,0.411,0.688,0.759,1.042,1.042c0.353,0.283,0.763,0.533,1.229,0.75
		c0.471,0.22,0.951,0.379,1.437,0.478c0.523,0.106,1.131,0.159,1.822,0.159c0.624,0,1.179-0.058,1.661-0.174
		c0.471-0.113,0.931-0.291,1.379-0.532c0.464-0.25,0.917-0.577,1.358-0.978c0.419-0.381,0.822-0.825,1.21-1.33
		c0.022-0.036,0.045-0.073,0.069-0.108c0.045-0.068,0.093-0.134,0.143-0.197c0.401-0.583,0.752-1.184,1.051-1.802
		c0.328-0.679,0.601-1.385,0.818-2.117c0.228-0.77,0.399-1.576,0.512-2.415C83.425,70.61,83.481,69.7,83.481,68.708L83.481,68.708z
		 M89.218,65.365c0.156,1.092,0.234,2.208,0.234,3.343c0,1.176-0.079,2.349-0.237,3.519c-0.155,1.153-0.389,2.255-0.699,3.302
		c-0.311,1.051-0.701,2.061-1.167,3.026c-0.442,0.914-0.949,1.786-1.52,2.613c-0.045,0.074-0.093,0.147-0.145,0.217
		c-0.676,0.923-1.397,1.732-2.159,2.426c-0.797,0.726-1.647,1.331-2.548,1.817c-0.871,0.47-1.813,0.826-2.825,1.069
		c-1.001,0.239-2.014,0.36-3.038,0.36c-1.01,0-2.006-0.1-2.988-0.299c-1.021-0.207-1.952-0.507-2.79-0.898
		c-0.828-0.385-1.634-0.893-2.418-1.52c-0.756-0.605-1.441-1.289-2.055-2.05l-0.01-0.013c-2.589-3.26-3.884-7.29-3.884-12.068
		c0-1.173,0.083-2.326,0.249-3.458c0.167-1.14,0.416-2.234,0.747-3.279c0.328-1.038,0.745-2.054,1.249-3.047
		c0.457-0.901,0.985-1.768,1.583-2.6c0.092-0.149,0.198-0.292,0.319-0.426c0.626-0.85,1.287-1.6,1.983-2.248
		c0.799-0.744,1.645-1.362,2.537-1.851c0.868-0.477,1.803-0.838,2.802-1.081c0.985-0.24,1.99-0.36,3.013-0.36
		c1.017,0,2.002,0.103,2.954,0.305c0.967,0.207,1.883,0.521,2.746,0.939c0.872,0.423,1.684,0.943,2.434,1.558
		c0.686,0.562,1.349,1.229,1.985,1.997c0.052,0.058,0.102,0.118,0.149,0.181c0.619,0.811,1.163,1.669,1.633,2.575
		c0.468,0.903,0.856,1.845,1.166,2.826C88.828,63.232,89.062,64.273,89.218,65.365L89.218,65.365z"/>
	<path fill-rule="evenodd" clip-rule="evenodd" fill="#FFDD00" d="M197.014,72.064c0,4.846-1.953,9.094-5.861,12.744
		c-3.591,3.355-8.869,6.162-15.832,8.423l-0.035,0.012c-4.544,1.414-9.289,2.525-14.229,3.331
		c-4.894,0.798-9.983,1.293-15.261,1.481l-2.77,0.099l-0.297-2.758l-1.695-15.745l-0.374-3.479l3.488,0.19
		c0.844,0.046,1.171,0.066,1.575,0.089c0.607,0.035,1.156,0.067,1.526,0.087v0.002l0.246,0.009c0.608,0.022,1.154,0.042,1.984,0.042
		c0.794,0,2.039-0.056,3.738-0.166c1.662-0.107,3.978-0.284,6.935-0.525V75.9c5.398-0.46,9.368-1.242,11.909-2.347
		c1.658-0.72,2.486-1.43,2.486-2.129c0-0.219-0.167-0.428-0.502-0.623V70.79c-0.91-0.532-2.457-0.875-4.639-1.027h-0.023
		l-6.738-0.528h-0.012l-4.867-0.384l-0.108-0.009c-2.571-0.205-3.962-0.316-4.314-0.366l-0.221-0.047
		c-3.577-0.797-6.592-2.115-9.044-3.954c-2.541-1.906-4.447-4.329-5.715-7.267l-0.023-0.07c-0.56-1.395-0.978-2.83-1.256-4.3
		c-0.281-1.485-0.42-2.978-0.42-4.481c0-4.803,1.89-9.024,5.671-12.662c3.486-3.354,8.61-6.169,15.375-8.447l0.001,0.003
		c4.133-1.426,8.593-2.589,13.379-3.491c4.802-0.905,9.938-1.556,15.407-1.955l3.326-0.243l-0.142,3.333l-0.751,17.647l-0.121,2.834
		l-2.83,0.023c-1.977,0.015-3.826,0.04-5.554,0.074c-1.635,0.032-3.177,0.076-4.631,0.134c-1.297,0.051-2.545,0.115-3.754,0.194
		c-1.078,0.07-2.027,0.15-2.845,0.242h-0.023c-4.182,0.431-7.249,1.084-9.204,1.954c-1.07,0.477-1.605,0.842-1.605,1.094
		c0,0.503,0.191,0.905,0.574,1.205c0.722,0.566,1.957,0.983,3.704,1.25c2.778,0.204,5.268,0.377,7.746,0.549l0.47,0.033
		c1.374,0.096,2.762,0.192,4.154,0.286c1.486,0.1,2.9,0.194,4.178,0.274l0.104,0.006l0.176,0.029
		c3.887,0.627,7.141,1.805,9.759,3.532c2.761,1.821,4.786,4.211,6.074,7.168v0.012c0.582,1.345,1.012,2.735,1.291,4.169
		C196.875,69.047,197.014,70.532,197.014,72.064L197.014,72.064z"/>
	<path fill="#FFAA00" d="M197.385,74.75c-0.297,0.68-0.264,1.126-0.264,1.828c-0.197,0.437-0.263,0.841-0.263,1.316
		c-0.099,0.221-0.171,0.451-0.214,0.685c-0.089,0.177-0.158,0.362-0.209,0.551c-0.145,0.186-0.269,0.391-0.368,0.608
		c-0.358,0.394-0.558,0.831-0.783,1.304l-0.048,0.053c-0.313,0.276-0.567,0.616-0.742,1.001c-0.241,0.26-0.436,0.564-0.573,0.897
		c-0.143,0.101-0.277,0.213-0.401,0.336l-0.71,0.71c-0.311,0.16-0.594,0.33-0.87,0.607l-0.976,0.976
		c-0.448,0.206-0.714,0.451-1.051,0.788c-0.314,0.158-0.566,0.314-0.823,0.56l0.033-0.033c-0.119,0.06-0.234,0.118-0.348,0.19
		c-0.361,0.137-0.688,0.343-0.966,0.6c-0.121,0.055-0.238,0.119-0.35,0.189c-0.536,0.204-0.844,0.476-1.236,0.867
		c-0.289,0.133-0.552,0.31-0.783,0.524c-0.122,0.055-0.239,0.119-0.351,0.189c-0.185,0.071-0.362,0.159-0.527,0.263
		c-0.185,0.071-0.361,0.159-0.526,0.263c-0.185,0.071-0.362,0.159-0.527,0.263c-0.185,0.071-0.361,0.159-0.526,0.263
		c-0.185,0.071-0.362,0.159-0.527,0.263c-0.185,0.071-0.362,0.159-0.528,0.264c-0.279,0.107-0.538,0.254-0.769,0.434
		c-0.489,0.132-0.929,0.386-1.285,0.726l-0.001,0l0.034-0.035l-0.087,0.043c-0.482,0.088-0.924,0.292-1.296,0.582
		c-0.383,0.104-0.728,0.299-1.08,0.475c-0.573,0.098-1.119,0.47-1.653,0.695c-0.449,0.188-0.889,0.27-1.301,0.544l-0.457,0.305
		l-0.302,0.101l-1.995,0.499c-0.072,0.018-0.149,0.041-0.22,0.064l-1.58,0.527c-0.132,0.044-0.517,0.225-0.391,0.162l0.103-0.052
		c-0.479,0-0.885,0.068-1.325,0.269c-0.623,0.039-1.195,0.268-1.656,0.631l0.342-0.373c-0.511,0-0.949,0.083-1.409,0.312
		c-0.279,0.051-0.544,0.141-0.789,0.263c-0.281,0.051-0.548,0.142-0.795,0.266c-0.261,0.045-0.51,0.139-0.762,0.223
		c-0.384,0.032-0.748,0.137-1.077,0.302c-0.261,0.047-0.51,0.129-0.742,0.24l0.051-0.026c-0.496,0-0.916,0.074-1.367,0.289
		l0.051-0.025c-0.496,0-0.917,0.074-1.367,0.289l0.051-0.026c0.339-0.171-0.697-0.004-1.072,0.089l-0.985,0.246l-13.274,0.191
		c-0.045-0.213-0.112-0.419-0.2-0.612c0-0.476-0.065-0.879-0.264-1.316c0-0.62-0.124-1.149-0.458-1.678l-0.074-0.177
		c-0.046-0.748-0.368-1.421-0.865-1.92l0.607,0.607v-1.485c0.169-0.375,0.263-0.79,0.263-1.228V79.123
		c0-0.377-0.069-0.666-0.168-0.984l0.155,0.014c0.378,0.173,0.798,0.27,1.241,0.27h1.579c0.478,0,0.929-0.113,1.33-0.312
		c0.245-0.045,0.48-0.12,0.7-0.22c0.513-0.032,0.992-0.193,1.403-0.453c0.091-0.035,0.18-0.074,0.267-0.117
		c0.381-0.069,0.736-0.211,1.052-0.41l0.12-0.049c0.204,0.088,0.42,0.155,0.645,0.196c0.401,0.2,0.852,0.312,1.33,0.312h5.793
		c0.426,0,0.844-0.091,1.225-0.264c0.591,0,1.016-0.009,1.58-0.263h1.407c0.478,0,0.929-0.113,1.33-0.312
		c0.38-0.069,0.735-0.211,1.05-0.41c0.186-0.071,0.362-0.16,0.528-0.264c1.123-0.429,1.92-1.516,1.92-2.79
		c0-1.649-1.337-2.986-2.985-2.986c-0.702,0-1.404,0-2.106,0c-0.478,0-0.929,0.113-1.33,0.312c-0.279,0.051-0.544,0.141-0.79,0.263
		c-0.241,0.044-0.471,0.117-0.687,0.215h-7.55c-0.222-0.1-0.452-0.171-0.688-0.214c-0.095-0.047-0.19-0.088-0.287-0.124
		c-0.097-0.061-0.226-0.092-0.327-0.183c-0.498-0.446-0.861-0.784-1.533-0.96c-0.163-0.125-0.394-0.178-0.573-0.357l-0.974-0.974
		c-0.181-0.181-0.382-0.335-0.594-0.461c-0.43-0.725-1.158-1.254-2.016-1.415l-0.027-0.052h0.446
		c-0.337-0.337-0.604-0.582-1.052-0.785c-0.232-0.215-0.498-0.394-0.789-0.526c-0.24-0.222-0.507-0.398-0.79-0.527
		c-0.065-0.059-0.119-0.122-0.181-0.184c-0.366-0.366-0.639-0.642-1.129-0.867c-0.107-0.107-0.212-0.216-0.325-0.316
		c-0.178-0.201-0.394-0.38-0.572-0.577c-0.056-0.123-0.12-0.24-0.191-0.353c-0.159-0.417-0.414-0.82-0.6-1.229
		c-0.025-0.409-0.133-0.795-0.306-1.143c-0.104-0.569-0.369-1.081-0.746-1.488c-0.055-0.122-0.119-0.239-0.19-0.352
		c-0.035-0.091-0.074-0.18-0.117-0.266c-0.088-0.482-0.292-0.923-0.581-1.294c-0.047-0.174-0.109-0.342-0.186-0.502l0.026,0.051
		c0-0.513-0.08-0.951-0.311-1.414c-0.051-0.279-0.141-0.544-0.264-0.791c-0.051-0.279-0.141-0.544-0.263-0.79
		c-0.045-0.245-0.12-0.48-0.221-0.701c-0.023-0.369-0.112-0.72-0.257-1.041c0-0.851-0.266-1.592-0.874-2.199l0.611,0.611v-3.064
		c0.201-0.446,0.263-0.848,0.263-1.332c0.159-0.365,0.263-0.725,0.263-1.213v-1.157c0.2-0.457,0.263-0.805,0.263-1.301
		c0.099-0.221,0.171-0.451,0.214-0.685c0.126-0.252,0.214-0.519,0.263-0.791c0.044-0.088,0.083-0.177,0.117-0.268
		c0.199-0.316,0.341-0.671,0.41-1.052c0.127-0.255,0.276-0.522,0.378-0.787c0.073-0.115,0.136-0.233,0.192-0.355
		c0.323-0.349,0.564-0.775,0.692-1.247c0.42-0.538,0.63-1.187,0.63-1.835v0.973c0,0.501,0.421-0.684,0.785-1.048l0.105-0.105
		c0.628-0.316,0.927-0.664,1.395-1.132l-0.079,0.079c-0.308,0.308,0.62-0.371,0.897-0.636c0.456-0.13,0.868-0.366,1.206-0.68
		c0.206-0.095,0.413-0.205,0.616-0.307c0.28-0.051,0.546-0.141,0.792-0.263c0.507-0.093,0.785-0.282,1.226-0.484
		c0.374-0.023,0.729-0.115,1.053-0.263c0.409-0.025,0.796-0.133,1.143-0.306c0.278-0.051,0.544-0.141,0.79-0.263
		c0.245-0.045,0.48-0.12,0.7-0.22c0.514-0.032,0.993-0.194,1.403-0.453c0.029-0.011,0.303-0.136,0.168-0.068
		c0.514,0,0.951-0.081,1.415-0.312c0.278-0.051,0.543-0.14,0.788-0.263c0.245-0.045,0.481-0.119,0.701-0.221
		c0.374-0.023,0.729-0.115,1.053-0.263c0.409-0.025,0.796-0.133,1.143-0.306c0.261-0.047,0.51-0.129,0.742-0.24l-0.051,0.026
		c0.479,0,0.886-0.068,1.325-0.269c0.514-0.032,0.993-0.194,1.404-0.453c0.091-0.034,0.179-0.073,0.265-0.116
		c0.245-0.045,0.48-0.119,0.7-0.22c0.409-0.025,0.796-0.133,1.143-0.306c0.279-0.051,0.544-0.141,0.79-0.263
		c0.245-0.045,0.48-0.119,0.7-0.22c0.409-0.025,0.795-0.133,1.143-0.306c0.38-0.069,0.734-0.211,1.049-0.41
		c0.091-0.035,0.18-0.074,0.267-0.117c0.261-0.047,0.51-0.129,0.742-0.24l-0.051,0.026c0.479,0,0.886-0.068,1.325-0.269
		c0.391-0.024,0.76-0.124,1.096-0.283l-0.051,0.025c0.847,0,1.589-0.268,2.195-0.873l-0.611,0.61c0.722,0,1.351-0.187,1.924-0.637
		l-0.343,0.374c0.471,0,0.875-0.067,1.308-0.264c0.851,0,1.592-0.266,2.199-0.874l-0.611,0.611c0.611,0,1.049-0.014,1.626-0.289
		l-0.051,0.026c0.589,0,1.016-0.01,1.576-0.263c0.85,0,1.592-0.267,2.199-0.874l-0.611,0.611c0.493,0,0.914-0.075,1.363-0.289
		l-0.051,0.026h0.612c0.824,0,1.57-0.334,2.111-0.874l-0.611,0.611h7.101c0.012,0.41,0.107,0.798,0.268,1.151
		c0.024,0.391,0.123,0.76,0.283,1.096l-0.026-0.051c0,0.756-0.061,1.386,0.263,2.103v16.504c-0.254,0.563-0.263,0.988-0.263,1.579
		c-0.145,0.321-0.234,0.67-0.257,1.039l-0.001,0.003c-0.215,0.232-0.394,0.498-0.527,0.79c-0.187,0.203-0.347,0.431-0.473,0.68
		c-0.173,0.087-0.335,0.191-0.486,0.309c-0.159,0.043-0.312,0.099-0.459,0.166c-0.374,0.023-0.728,0.115-1.053,0.263
		c-0.75,0.046-1.426,0.369-1.925,0.869l0.611-0.611h-15.087c-0.476,0-0.93,0.113-1.33,0.312c-1.391,0.254-2.445,1.472-2.445,2.936
		c0,1.649,1.337,2.985,2.985,2.985c0.733,0,1.32,0.052,2.018-0.263l14.464,0c0.259,0.38,0.575,0.673,0.97,0.909
		c0.002,0.002,0.879,0.44,0.967,0.474c0.114,0.072,0.232,0.136,0.354,0.191c0.237,0.219,0.51,0.402,0.809,0.535l0.079,0.09
		c0.149,0.328,0.356,0.624,0.608,0.875l-0.079-0.079c0.199,0.397,0.407,0.703,0.744,0.999l0.044,0.049
		c0.206,0.452,0.453,0.72,0.793,1.06c0.097,0.211,0.218,0.409,0.359,0.59c0.078,0.289,0.198,0.562,0.355,0.809
		c0.107,0.28,0.254,0.539,0.435,0.772c0.078,0.289,0.199,0.56,0.354,0.807c0.151,0.397,0.385,0.754,0.68,1.049l-0.079-0.079
		c0.15,0.298,0.297,0.54,0.527,0.788c0.097,0.213,0.219,0.412,0.361,0.595c0.078,0.289,0.199,0.561,0.355,0.809
		c0.071,0.185,0.159,0.362,0.263,0.527c0.071,0.185,0.159,0.362,0.264,0.527c0.035,0.091,0.074,0.179,0.117,0.266
		c0.077,0.422,0.243,0.813,0.478,1.153v0.07l-0.263-0.263c0,0.471,0.067,0.875,0.263,1.308c0,0.476,0.065,0.879,0.263,1.317
		c0,0.497,0.073,0.918,0.289,1.371l-0.026-0.051V74.75L197.385,74.75z M136.563,79.855l-0.039-0.366L136.563,79.855L136.563,79.855z
		 M190.813,21.855l0.098,0.133l-0.204-0.174L190.813,21.855L190.813,21.855z M191.491,77.031c0.697-1.515,1.045-3.171,1.045-4.967
		c0-0.745-0.024-1.366-0.07-1.861c-0.147-1.569-0.527-3.19-1.113-4.655c-0.111-0.207-0.206-0.425-0.284-0.65
		c-2.279-4.862-7.144-6.912-12.174-7.745l-0.069-0.01c-5.445-0.34-10.896-0.724-16.337-1.123c-0.17-0.006-0.341-0.021-0.514-0.047
		c-2.843-0.436-6.176-1.476-7.51-4.277c-0.387-0.812-0.581-1.68-0.581-2.603c0-2.77,2.003-4.164,4.264-5.17
		c3.07-1.368,6.895-1.928,10.223-2.285c0.199-0.036,0.404-0.058,0.611-0.067c1.554-0.169,3.113-0.256,4.674-0.336
		c3.621-0.184,7.248-0.239,10.873-0.282l0.62-14.557c-8.809,0.726-17.612,2.203-25.986,5.09l-0.003-0.009l-0.22,0.069
		c-6.009,2.043-14.022,5.697-16.783,11.863c-1.205,2.69-1.222,5.751-0.683,8.607c0.453,2.396,1.26,4.51,2.785,6.449
		c2.412,3.066,5.893,4.702,9.626,5.563l1.151,0.112c2.648,0.221,5.298,0.425,7.947,0.633v0.001l6.731,0.527v0.001
		c1.99,0.138,4.244,0.467,6.051,1.351c0.801,0.333,1.596,0.979,2.137,1.651c0.75,0.931,1.123,1.972,1.123,3.12
		c0,1.713-0.732,3.196-2.196,4.45c-2.223,1.903-5.987,2.932-8.794,3.484c-2.153,0.424-4.658,0.758-7.516,1.002V80.36
		c-1.327,0.114-2.659,0.213-3.988,0.314c-1.774,0.134-3.552,0.258-5.33,0.337c-0.885,0.039-1.461,0.059-1.722,0.059
		c-0.47,0-1.209-0.026-2.028-0.055c-0.265,0.012-0.527,0.001-0.79-0.034l-0.996-0.057l1.357,12.615
		c9.119-0.424,18.207-1.85,26.933-4.563v0C180.106,86.977,188.606,83.303,191.491,77.031L191.491,77.031z"/>
	<path fill="#0A418F" d="M200,72.064c0,2.842-0.582,5.528-1.745,8.057c-1.145,2.489-2.836,4.779-5.073,6.868
		c-1.994,1.863-4.422,3.555-7.281,5.076c-2.776,1.477-5.997,2.811-9.659,4l-0.07,0.022l0,0.001
		c-2.354,0.732-4.747,1.383-7.178,1.952c-2.395,0.56-4.882,1.052-7.459,1.472c-2.489,0.406-5.052,0.738-7.689,0.993
		c-2.601,0.252-5.249,0.427-7.945,0.523l-2.77,0.099c-1.572,0.055-2.902-1.119-3.064-2.659l-0.003,0l-0.297-2.758l-1.694-15.745
		l-0.374-3.479c-0.174-1.636,1.011-3.103,2.647-3.277c0.194-0.021,0.386-0.022,0.574-0.006l3.381,0.185
		c0.873,0.047,1.121,0.062,1.353,0.075l0.233,0.013l0.232,0.013c0.574,0.033,1.082,0.063,1.282,0.073l0.109,0.008l0.079,0.003
		l0.012,0.001v-0.001l0.024,0.001c0.428,0.015,0.818,0.029,1.854,0.029c0.486,0,0.952-0.01,1.401-0.03
		c0.499-0.022,1.216-0.064,2.15-0.125c0.673-0.043,1.656-0.114,2.947-0.212c1.014-0.076,2.278-0.177,3.785-0.299
		c0.077-0.01,0.154-0.017,0.233-0.021c1.702-0.146,3.249-0.325,4.639-0.536l-2.072-0.162c-0.097-0.002-0.193-0.009-0.288-0.021
		l-4.741-0.374l-0.108-0.009c-1.419-0.113-2.523-0.201-3.001-0.241c-0.734-0.061-1.219-0.108-1.5-0.149
		c-0.105-0.015-0.208-0.036-0.309-0.061l-0.099-0.021c-0.066-0.014-0.131-0.03-0.195-0.047c-1.928-0.438-3.705-1.014-5.332-1.725
		c-1.713-0.749-3.278-1.655-4.695-2.718c-1.494-1.121-2.793-2.383-3.895-3.783c-1.114-1.417-2.04-2.979-2.777-4.686
		c-0.043-0.1-0.08-0.2-0.111-0.302c-0.281-0.716-0.536-1.463-0.762-2.237c-0.242-0.829-0.44-1.65-0.593-2.46
		c-0.151-0.802-0.268-1.64-0.35-2.511c-0.086-0.913-0.128-1.753-0.128-2.518c0-2.811,0.562-5.472,1.686-7.981
		c1.105-2.467,2.74-4.743,4.906-6.827c1.937-1.864,4.3-3.562,7.088-5.093c2.698-1.482,5.827-2.823,9.387-4.023l-0.001-0.004
		c2.07-0.714,4.292-1.381,6.666-2c2.317-0.605,4.695-1.137,7.133-1.596c2.411-0.454,4.953-0.851,7.625-1.19
		c2.709-0.344,5.417-0.614,8.121-0.811l3.326-0.243c1.642-0.116,3.068,1.121,3.184,2.764c0.012,0.175,0.009,0.348-0.008,0.518
		l-0.134,3.142l-0.751,17.647l-0.121,2.834c-0.064,1.632-1.43,2.904-3.058,2.858l-2.722,0.022c-0.969,0.007-1.922,0.018-2.858,0.03
		c-0.876,0.012-1.762,0.027-2.661,0.044c-0.767,0.015-1.554,0.035-2.36,0.057c-0.684,0.02-1.419,0.045-2.212,0.076
		c-0.544,0.022-1.172,0.051-1.876,0.087c-0.508,0.026-1.115,0.063-1.809,0.107c-0.373,0.024-0.858,0.062-1.462,0.113
		c-0.536,0.045-0.952,0.085-1.243,0.117c-0.062,0.007-0.123,0.011-0.184,0.014l-0.087,0.009l1.335,0.093l0.47,0.033l2.07,0.144
		l2.084,0.142l2.167,0.144l0.057,0.005l1.931,0.125l0.104,0.006c0.135,0.008,0.267,0.025,0.397,0.05l0.083,0.013l0.094,0.017
		c2.095,0.344,4.028,0.837,5.796,1.476c1.835,0.664,3.51,1.496,5.024,2.494c1.632,1.076,3.043,2.317,4.23,3.718
		c1.197,1.413,2.178,2.996,2.94,4.745c0.035,0.079,0.065,0.159,0.092,0.24c0.304,0.721,0.566,1.434,0.783,2.138
		c0.252,0.814,0.457,1.625,0.614,2.433c0.15,0.769,0.267,1.599,0.35,2.486C199.957,70.44,200,71.285,200,72.064L200,72.064z
		 M192.844,77.649c0.79-1.718,1.185-3.581,1.185-5.585c0-0.752-0.027-1.418-0.081-1.995c-0.056-0.598-0.15-1.233-0.28-1.903
		c-0.122-0.626-0.272-1.227-0.45-1.803c-0.163-0.526-0.343-1.028-0.54-1.506c-0.081-0.15-0.149-0.307-0.205-0.471
		c-0.51-1.117-1.153-2.132-1.928-3.046c-0.837-0.988-1.82-1.854-2.948-2.598c-1.105-0.729-2.368-1.351-3.787-1.864
		c-1.431-0.518-3.005-0.918-4.722-1.199l-0.096-0.014l-0.015-0.002c-0.755-0.047-1.392-0.089-1.92-0.123l-0.076-0.004l-2.167-0.145
		l-2.084-0.142l-2.07-0.144l-0.47-0.033c-1.239-0.085-2.482-0.172-3.761-0.262c-1.394-0.098-2.714-0.193-3.887-0.279
		c-0.113-0.004-0.228-0.014-0.343-0.031c-1.021-0.157-1.934-0.371-2.738-0.642c-0.941-0.318-1.726-0.723-2.354-1.215
		c-0.57-0.447-1.003-0.977-1.293-1.587c-0.29-0.608-0.435-1.263-0.435-1.962c0-1.173,0.569-2.148,1.708-2.924
		c0.406-0.277,0.963-0.573,1.67-0.888c1.183-0.527,2.639-0.974,4.365-1.341c1.563-0.332,3.404-0.61,5.52-0.834
		c0.136-0.025,0.275-0.039,0.417-0.045c0.45-0.049,0.856-0.089,1.217-0.12c0.344-0.029,0.873-0.067,1.578-0.113
		c0.514-0.033,1.137-0.069,1.879-0.107c0.546-0.028,1.192-0.057,1.945-0.087c0.66-0.026,1.424-0.051,2.283-0.076
		c0.737-0.021,1.54-0.04,2.407-0.057c0.829-0.016,1.733-0.031,2.707-0.044c0.913-0.012,1.875-0.022,2.881-0.03l0.751-17.647
		c-2.767,0.201-5.366,0.457-7.794,0.765c-2.462,0.312-4.887,0.694-7.275,1.143c-2.348,0.442-4.594,0.943-6.736,1.503
		c-2.085,0.544-4.16,1.172-6.223,1.883l-0.002-0.006c-0.057,0.019-0.115,0.038-0.173,0.054c-3.134,1.063-5.894,2.25-8.277,3.559
		c-2.337,1.284-4.28,2.671-5.829,4.161c-1.615,1.554-2.815,3.207-3.6,4.961c-0.766,1.711-1.149,3.563-1.149,5.555
		c0,0.739,0.027,1.4,0.082,1.982c0.058,0.62,0.151,1.27,0.28,1.95c0.125,0.661,0.276,1.295,0.453,1.901
		c0.175,0.598,0.388,1.212,0.64,1.839c0.532,1.231,1.193,2.35,1.984,3.356c0.803,1.021,1.729,1.925,2.775,2.71
		c1.034,0.776,2.203,1.448,3.505,2.018c1.304,0.57,2.725,1.031,4.26,1.381l0.101,0.019l0.081,0.017
		c0.136,0.015,0.506,0.047,1.104,0.097c0.949,0.079,1.827,0.149,2.978,0.241L158,65.878l4.867,0.384l6.738,0.528
		c1.214,0.084,2.294,0.231,3.238,0.44c0.925,0.205,1.721,0.478,2.386,0.819c0.239,0.103,0.461,0.236,0.662,0.395
		c0.326,0.23,0.611,0.496,0.852,0.795c0.528,0.656,0.79,1.385,0.79,2.187c0,1.258-0.557,2.365-1.671,3.319
		c-0.639,0.547-1.51,1.061-2.611,1.539c-1.485,0.646-3.32,1.183-5.501,1.613c-2.096,0.413-4.548,0.739-7.352,0.979l-0.012,0.001
		c-1.38,0.113-2.702,0.217-3.965,0.312c-1.022,0.077-2.029,0.149-3.017,0.212c-0.765,0.05-1.521,0.091-2.267,0.125
		c-0.796,0.035-1.35,0.053-1.658,0.053c-0.6,0-1.297-0.025-2.064-0.053l-0.024-0.001v0c-0.047,0.002-0.094,0.003-0.141,0.003
		c-0.136,0-0.269-0.009-0.4-0.027c-0.352-0.019-0.69-0.039-1.057-0.06l-0.232-0.013l-0.233-0.013
		c-0.405-0.023-0.846-0.049-1.33-0.075l1.695,15.745c2.579-0.092,5.112-0.259,7.595-0.5c2.454-0.238,4.885-0.554,7.293-0.947
		c2.361-0.385,4.716-0.853,7.063-1.402c2.313-0.541,4.567-1.153,6.758-1.835c3.3-1.072,6.201-2.273,8.702-3.604
		c2.417-1.286,4.425-2.675,6.022-4.167C190.795,81.067,192.035,79.407,192.844,77.649L192.844,77.649z"/>
	<polygon fill-rule="evenodd" clip-rule="evenodd" fill="#FFDD00" points="58.006,30.644 57.111,46.405 56.943,49.369 
		53.986,49.216 39.726,48.475 37.306,95.37 37.16,98.201 34.332,98.192 18.62,98.144 15.47,98.134 15.646,95.007 18.347,47.074 
		5.673,45.768 2.977,45.49 3.002,42.782 3.146,27.101 3.175,23.935 6.318,24.151 55.23,27.507 58.173,27.709 58.006,30.644 	"/>
	<path fill="#FFAA00" d="M59.235,35.149c-0.079,0.271-0.132,0.537-0.132,0.864v2.94c-0.065,0.212-0.106,0.427-0.123,0.643
		c-0.118,0.396-0.14,0.678-0.14,1.082c-0.071,0.245-0.121,0.485-0.13,0.772c-0.082,0.264-0.125,0.534-0.132,0.802
		c-0.1,0.31-0.132,0.59-0.132,0.914c-0.079,0.256-0.122,0.52-0.13,0.785c-0.114,0.364-0.223,0.636-0.255,1.03
		c-0.104,0.329-0.212,0.603-0.253,0.954c-0.075,0.161-0.135,0.324-0.18,0.49c-0.273,0.546-0.535,0.987-0.609,1.614
		c-0.17,0.34-0.297,0.617-0.367,1.001l-0.184,0.051c-0.273,0.008-0.536,0.053-0.785,0.13c-0.822,0-1.57,0.29-2.154,0.874
		l0.743-0.743h-6.081c-0.396,0-0.846-0.132-1.239-0.132h-1.58c-0.438,0-0.855,0.095-1.229,0.264h-0.003l0.264-0.132
		c-0.88,0-1.65,0.293-2.259,0.94c-0.367,0.345-0.622,0.781-0.823,1.239c-0.229,0.407-0.366,0.874-0.382,1.371
		c-0.097,0.315-0.133,0.609-0.133,0.938c-0.135,0.42-0.131,0.758-0.131,1.185c-0.085,0.262-0.132,0.534-0.132,0.868
		c0,7.257,0,14.517,0,21.776c-0.085,0.262-0.132,0.534-0.132,0.868v1.739c0,0.314-0.109,0.537-0.122,0.788
		c-0.098,0.327-0.141,0.6-0.141,0.941c-0.064,0.208-0.103,0.417-0.121,0.626c-0.059,0.186-0.1,0.374-0.122,0.561
		c-0.141,0.299-0.227,0.61-0.264,0.923c-0.076,0.162-0.137,0.328-0.182,0.496c-0.204,0.373-0.286,0.779-0.395,1.185
		c-0.202,0.37-0.32,0.774-0.354,1.183c-0.202,0.65-0.142,1.327-0.142,2.222c0,0.531,0.139,1.029,0.382,1.461
		c0.102,0.234,0.234,0.452,0.39,0.649c0.075,0.134,0.16,0.262,0.253,0.382c0.047,0.174,0.115,0.353,0.171,0.527
		c0.019,0.222,0.062,0.436,0.126,0.642c0.026,0.604,0.245,1.129,0.39,1.709v3.741c0,0.339-0.132,0.598-0.132,0.94
		c-0.07,0.228-0.111,0.458-0.126,0.686l-0.059,0.117l-0.45,0.15c-0.145,0.022-0.286,0.055-0.423,0.097
		c-0.285,0.009-0.56,0.058-0.819,0.141c-0.244,0.014-0.464,0.121-0.772,0.121h-8.379c-0.479-0.14-0.82-0.131-1.301-0.131
		c-0.314-0.097-0.606-0.132-0.933-0.132c-0.548-0.177-1.131-0.132-1.699-0.132l-0.331-0.11c-0.434-0.145-0.847-0.159-1.277-0.157
		c-0.267-0.077-0.529-0.128-0.851-0.128H21.31c-0.332,0-0.617-0.131-0.954-0.131H19.67c-0.339,0-0.598-0.131-0.94-0.131
		c-0.405-0.127-0.954-0.259-1.37-0.264c-0.206-0.041-0.398-0.083-0.598-0.108c-0.173-0.082-0.35-0.146-0.531-0.192
		c-0.219-0.091-0.448-0.154-0.68-0.19c-0.239-0.083-0.572-0.195-0.751-0.376c-0.102-0.35-0.141-0.64-0.305-0.983l0.157,0.313v-7.852
		c0-0.824-0.334-1.571-0.874-2.111l0.743,0.743v-8.946c0.135-0.568,0.375-1.113,0.394-1.703c0.095-0.309,0.133-0.603,0.133-0.926
		c0.075-0.244,0.168-0.481,0.214-0.734c0.134-0.269,0.229-0.562,0.277-0.871c0.081-0.232,0.135-0.478,0.157-0.732
		c0.092-0.288,0.142-0.594,0.142-0.912v-3.423c0-1.097-0.638-2.115-1.564-2.681c0.081-0.403,0.154-0.807,0.267-1.204
		c0.092-0.321,0.251-0.597,0.317-0.927c0.305-1.526,0.451-3.08,0.769-4.603c0.113-0.539,0.342-0.942,0.342-1.512v-0.305
		c0-0.277,0.177-0.509,0.223-0.784c0.108-0.649,0.181-1.249,0.273-1.903c0.055-0.395,0.162-0.823,0.162-1.221v-0.363
		c0-0.513,0.263-1.104,0.263-1.612v-0.439c0.043-0.139,0.075-0.278,0.097-0.419c0.187-0.536,0.167-0.965,0.167-1.512
		c0-1.649-1.337-2.985-2.986-2.985h-1.901c-0.322-0.094-0.587-0.132-0.922-0.132c-0.329-0.096-0.595-0.131-0.936-0.131l-0.324-0.09
		c-0.252-0.123-0.513-0.208-0.776-0.256c-0.348-0.173-0.713-0.271-1.078-0.302c-0.149-0.047-0.299-0.083-0.45-0.107
		c-0.406-0.141-0.738-0.167-1.158-0.167c-0.362-0.121-0.663-0.226-1.054-0.255c-0.183-0.054-0.371-0.088-0.57-0.154l-1.077-0.359
		c-0.196-0.066-0.397-0.109-0.596-0.133c-0.171-0.081-0.346-0.143-0.523-0.189c-0.144-0.06-0.293-0.107-0.443-0.144
		c-0.369-0.238-0.241-0.139-0.466-0.536c-0.103-0.239-0.133-0.476-0.236-0.727c-0.069-0.271-0.088-0.528-0.171-0.798
		c-0.008-0.273-0.053-0.536-0.13-0.785c0-0.645,0.003-1.106-0.288-1.718L1.225,41.1v-1.928c0-0.341-0.057-0.669-0.163-0.974
		c-0.074-0.246-0.101-0.616-0.101-0.869c0-0.348-0.132-0.69-0.132-1.037v-2.167c0.08-0.259,0.123-0.523,0.131-0.786
		c0.065-0.208,0.105-0.42,0.123-0.631c0.123-0.384,0.141-0.69,0.141-1.085c0.054-0.176,0.091-0.353,0.112-0.53
		c0.211-0.483,0.404-1.083,0.415-1.604v0.03c0,0.67,0.425-1.274,0.636-1.91c0.044-0.133,0.079-0.269,0.104-0.404
		c0.204-0.41,0.305-0.845,0.313-1.274v0.386c0.153-0.307,0.338-0.636,0.461-0.954c0.073-0.115,0.138-0.235,0.193-0.357
		c0.143-0.155,0.269-0.324,0.378-0.506c0.21-0.21,0.378-0.406,0.53-0.664l0.11-0.108c0.108,0.033,0.219,0.06,0.332,0.081
		c0.277,0.137,0.516,0.261,0.821,0.342c0.306,0.167,0.636,0.277,0.972,0.329c0.19,0.067,0.383,0.113,0.577,0.14
		c0.127,0.043,0.271,0.057,0.42,0.122c0.518,0.228,0.893,0.414,1.479,0.431c0.301,0.093,0.607,0.136,0.908,0.133
		c0.49,0.122,0.79,0.087,1.284,0.131l1.313,0.119c0.09,0.008,0.18,0.012,0.27,0.012h12.869c0.332,0,0.617,0.131,0.954,0.131h8.803
		l1.169,0.117c0.099,0.009,0.198,0.015,0.297,0.015h4.707c0.332,0,0.616,0.132,0.954,0.132h0.422
		c0.289,0.072,0.539,0.126,0.843,0.132h-0.053c-0.333,0,0.584,0.091,0.922,0.131c0.33,0.04,0.584,0.091,0.921,0.132
		c0.33,0.04,0.585,0.091,0.922,0.132c0.33,0.039,0.586,0.078,0.922,0.131c0.618,0.099,1.473,0.395,2.079,0.395h0.889
		c0.332,0,0.616,0.132,0.954,0.132h7.322c0.022,0.137,0.054,0.27,0.094,0.4c0.008,0.274,0.054,0.539,0.132,0.789
		c0.009,0.285,0.057,0.56,0.141,0.819c0.031,0.365,0.127,0.711,0.277,1.027l-0.156-0.313V35.149L59.235,35.149z M52.735,44.679
		l0.728-12.812L7.592,28.719L7.475,41.463l11.258,1.161c2.394,0.206,4.207,2.279,4.075,4.695l-2.613,46.37l12.725,0.039l2.347-45.48
		c0.125-2.463,2.225-4.358,4.688-4.233L52.735,44.679L52.735,44.679z"/>
	<path fill="#0A418F" d="M60.98,30.808l-0.895,15.761l-0.168,2.964c-0.09,1.642-1.495,2.901-3.137,2.81l-0.043-0.003l-2.903-0.151
		l-11.288-0.586L40.28,95.522l-0.146,2.83c-0.083,1.642-1.483,2.906-3.125,2.822l-0.007-0.001l-2.669-0.008l-15.713-0.048
		l-3.15-0.01c-1.642,0-2.974-1.331-2.974-2.974c0-0.055,0.001-0.109,0.005-0.163l-0.005,0l0.176-3.127l2.542-45.099L5.369,48.73
		l-2.695-0.278c-1.592-0.163-2.762-1.552-2.669-3.135l0.023-2.558l0.144-15.681l0.029-3.166c0.013-1.642,1.355-2.963,2.997-2.95
		c0.059,0.001,0.117,0.003,0.175,0.007l0-0.007l3.143,0.215l48.913,3.357l2.942,0.202c1.642,0.109,2.885,1.53,2.776,3.172
		l-0.007,0.085L60.98,30.808L60.98,30.808z M54.137,46.242l0.895-15.761L6.12,27.124L5.976,42.806l12.61,1.3
		c1.605,0.128,2.824,1.515,2.735,3.132L18.62,95.171l15.713,0.048l2.42-46.895c0.083-1.642,1.483-2.906,3.125-2.822L54.137,46.242
		L54.137,46.242z"/>
	<polygon fill-rule="evenodd" clip-rule="evenodd" fill="#FFDD00" points="146.062,29.798 133.211,67.689 133.666,96.362 
		133.709,99.054 131.042,99.37 116.896,101.049 113.613,101.438 113.572,98.122 113.246,71.423 92.504,37.27 90.506,33.979 
		94.195,32.874 109.508,28.286 111.934,27.56 113.042,29.849 120.331,44.905 124.643,29.407 125.2,27.404 127.255,27.226 
		142.984,25.868 147.528,25.475 146.062,29.798 	"/>
	<path fill="#FFAA00" d="M147.095,31.73l-0.071,0.521c-0.204,0.324-0.339,0.679-0.406,1.044c-0.043,0.087-0.082,0.176-0.116,0.266
		c-0.272,0.43-0.423,0.914-0.453,1.405l-0.073,0.174c-0.272,0.431-0.423,0.916-0.454,1.407c-0.201,0.443-0.39,0.713-0.483,1.223
		c-0.126,0.252-0.213,0.518-0.264,0.79c-0.18,0.362-0.282,0.752-0.307,1.146l-0.072,0.171c-0.23,0.363-0.374,0.764-0.432,1.175
		c-0.26,0.364-0.429,0.772-0.506,1.194c-0.126,0.252-0.213,0.518-0.263,0.79c-0.125,0.252-0.214,0.518-0.263,0.789
		c-0.126,0.252-0.214,0.519-0.264,0.791c-0.123,0.246-0.213,0.511-0.264,0.79c-0.125,0.252-0.213,0.518-0.263,0.789
		c-0.126,0.252-0.213,0.518-0.263,0.79c-0.126,0.253-0.214,0.519-0.264,0.791c-0.123,0.246-0.213,0.511-0.263,0.79
		c-0.126,0.252-0.213,0.518-0.263,0.79c-0.122,0.246-0.212,0.511-0.263,0.789c-0.125,0.252-0.213,0.518-0.263,0.789
		c-0.126,0.252-0.213,0.518-0.264,0.79c-0.043,0.088-0.083,0.177-0.117,0.268c-0.259,0.411-0.421,0.89-0.453,1.403l-0.073,0.175
		c-0.271,0.43-0.422,0.913-0.453,1.403c-0.103,0.225-0.176,0.46-0.22,0.699c-0.125,0.252-0.213,0.518-0.263,0.79
		c-0.18,0.361-0.282,0.752-0.307,1.146c-0.104,0.228-0.177,0.463-0.221,0.699c-0.043,0.086-0.081,0.174-0.115,0.263
		c-0.206,0.326-0.343,0.683-0.41,1.051c-0.126,0.252-0.214,0.519-0.264,0.791c-0.043,0.087-0.082,0.176-0.116,0.266
		c-0.272,0.43-0.422,0.914-0.453,1.405c-0.153,0.335-0.241,0.692-0.263,1.053c-0.103,0.226-0.177,0.462-0.221,0.702
		c-0.296,0.596-0.312,1.048-0.312,1.683c-0.254,0.564-0.263,0.989-0.263,1.58c-0.172,0.382-0.263,0.8-0.263,1.225v15.098
		c-0.172,0.382-0.263,0.8-0.263,1.226v3c-0.255,0.586-0.263,0.955-0.263,1.565c-0.151,0.336-0.237,0.694-0.258,1.056
		c-0.203,0.462-0.269,0.81-0.269,1.313c-0.201,0.446-0.263,0.848-0.263,1.331c-0.159,0.365-0.263,0.726-0.263,1.213v2.724
		c-0.172,0.382-0.263,0.8-0.263,1.225v1.843c0,0.064,0.002,0.13,0.007,0.194c-0.311,0.036-0.608,0.119-0.882,0.243
		c-0.851,0-1.592,0.266-2.2,0.875l0.611-0.611c-0.861,0-1.664-0.086-2.463,0.312c-0.38,0.069-0.734,0.211-1.049,0.409
		c-0.588,0.224-0.831,0.485-1.265,0.898c-0.503,0.083-0.963,0.29-1.348,0.59c-0.511,0.138-0.967,0.408-1.331,0.771l0.611-0.611
		l-9.97-0.026c-0.135-0.316-0.323-0.605-0.552-0.855c0-0.848-0.269-1.589-0.875-2.194l0.611,0.611v-9.822
		c0-0.478-0.112-0.929-0.312-1.329c-0.044-0.241-0.117-0.472-0.215-0.688c0-0.727-0.183-1.354-0.637-1.931l0.374,0.343
		c0-0.587-0.011-1.011-0.263-1.57v-2.986c0-0.459-0.104-0.894-0.289-1.283l0.026,0.051v-1.139c0-0.824-0.334-1.57-0.874-2.111
		l0.611,0.611c0-0.611-0.014-1.049-0.289-1.626l0.026,0.051v-0.348c0-0.825-0.334-1.571-0.874-2.111l0.611,0.611v-2.449
		c0-0.443-0.097-0.863-0.269-1.24c-0.025-0.409-0.133-0.795-0.306-1.143c-0.051-0.279-0.141-0.544-0.263-0.789
		c-0.051-0.279-0.141-0.544-0.263-0.79c-0.141-0.769-0.48-1.225-1.012-1.757c-0.176-0.382-0.43-0.721-0.741-0.996
		c-0.088-0.097-0.159-0.279-0.236-0.402c-0.071-0.186-0.159-0.363-0.264-0.528c-0.042-0.11-0.091-0.218-0.145-0.322
		c-0.12-0.241-0.237-0.5-0.38-0.728c-0.071-0.187-0.159-0.364-0.265-0.53c-0.093-0.244-0.227-0.463-0.337-0.702
		c-0.032-0.514-0.194-0.993-0.453-1.404c-0.034-0.091-0.073-0.179-0.117-0.265c-0.051-0.279-0.141-0.544-0.263-0.791
		c-0.088-0.482-0.292-0.923-0.581-1.294c-0.132-0.489-0.386-0.928-0.726-1.283c-0.13-0.792-0.476-1.267-1.022-1.813
		c-0.055-0.12-0.118-0.235-0.187-0.345c-0.137-0.36-0.342-0.687-0.6-0.965c-0.133-0.292-0.312-0.558-0.527-0.79
		c-0.126-0.278-0.292-0.621-0.453-0.877c-0.071-0.185-0.159-0.362-0.264-0.528c-0.07-0.185-0.158-0.361-0.262-0.526
		c-0.034-0.089-0.074-0.179-0.121-0.273l-1.053-2.106c-0.185-0.372-0.48-0.761-0.713-1.111l-0.305-0.457
		c-0.239-0.36-0.239-0.753-0.485-1.123l-1.053-1.58c-0.27-0.406-0.558-0.904-0.9-1.245l-0.447-0.447
		c-0.283-0.284-0.351-0.755-0.592-1.076l-1.53-2.04c-0.201-0.269-0.377-0.59-0.577-0.856l-0.79-1.053l-0.628-0.838
		c-0.244-0.325-0.369-0.798-0.593-1.134l-0.423-0.635c-0.285-0.569-0.491-0.974-1.02-1.384l-0.055-0.069
		c0.111-0.068,0.227-0.106,0.344-0.165c0.38-0.069,0.735-0.211,1.05-0.41c0.185-0.07,0.362-0.159,0.527-0.264
		c0.091-0.035,0.179-0.073,0.265-0.116c0.38-0.069,0.735-0.211,1.051-0.409c0.185-0.071,0.362-0.159,0.527-0.263
		c0.185-0.071,0.361-0.159,0.526-0.263c0.185-0.071,0.362-0.159,0.527-0.264c0.185-0.071,0.361-0.159,0.526-0.263
		c0.185-0.071,0.362-0.159,0.527-0.263c0.185-0.071,0.362-0.159,0.527-0.264c0.185-0.071,0.361-0.159,0.526-0.263
		c0.091-0.035,0.18-0.074,0.266-0.117c0.44-0.08,0.846-0.257,1.195-0.507c0.345-0.048,0.671-0.156,0.967-0.311
		c0.241-0.121,0.502-0.238,0.729-0.38c0.186-0.071,0.363-0.159,0.529-0.264c0.091-0.035,0.18-0.074,0.266-0.117
		c0.278-0.051,0.543-0.141,0.789-0.263c0.606-0.11,1.148-0.404,1.567-0.821l-0.606,0.606c0.631,0,1.082-0.017,1.673-0.312
		c0.474-0.087,0.811-0.274,1.229-0.484c0.408-0.025,0.793-0.133,1.14-0.306c0.279-0.051,0.544-0.141,0.79-0.263
		c0.174-0.032,0.343-0.079,0.505-0.139c0.045,0.191,0.108,0.374,0.188,0.549c0.032,0.514,0.194,0.993,0.453,1.404
		c0.042,0.111,0.091,0.218,0.145,0.321c0.121,0.241,1.275,0.059,1.418,0.286c0.041,0.109,0.6,0.511,0.653,0.613
		c0.217,0.437-0.239,0.22,0.095,0.582c0.261,0.572,0.214,1.024,0.642,1.452c0.187,0.372,0.221,1.044,0.519,1.342
		c0.302,0.305,0.191,0.778,0.531,1.015c0.421,0.624,0.862,0.858,1.498,1.177l0.701,0.466c0.309,1.319,1.493,2.302,2.906,2.302
		c0.708,0,1.235-0.067,1.856-0.46c0.182-0.069,0.358-0.157,0.526-0.263c0.359-0.137,0.684-0.341,0.961-0.598
		c1.031-0.47,1.749-1.51,1.749-2.718v-0.263c0-1.062-0.539-1.882-1.316-2.539v-0.183c0.197-0.437,0.263-0.841,0.263-1.316
		c0.197-0.438,0.263-0.842,0.263-1.317c0.1-0.221,0.171-0.453,0.214-0.688c0.147-0.296,0.24-0.604,0.284-0.914
		c0.122-0.167,0.208-0.332,0.299-0.515c0.194-0.217,0.295-0.464,0.514-0.763c0.237-0.324,0.613-0.583,0.872-0.886
		c0.187-0.083,0.358-0.186,0.548-0.274c0.369-0.023,0.72-0.112,1.04-0.257c0.476,0,0.879-0.065,1.317-0.263h1.669
		c0.824,0,1.57-0.334,2.111-0.874l-0.611,0.611h0.343c0.824,0,1.571-0.334,2.111-0.874l-0.611,0.611h9.913
		c0.806,0.364,1.696,0.339,2.451,0h1.934c0.465,0,0.906-0.106,1.298-0.296c0.039,0.074,0.079,0.146,0.124,0.217
		c0.07,0.185,0.159,0.361,0.263,0.527c0.128,0.337,0.317,0.645,0.552,0.911l-0.004,0.005l-0.479-0.479v1.224
		c-0.295,0.654-0.263,1.159-0.263,1.841c-0.196,0.434-0.263,0.839-0.263,1.311C147.395,30.239,147.095,30.949,147.095,31.73
		L147.095,31.73z M128.977,66.254l12.118-35.729l-12.429,1.073l-3.991,14.346c-0.302,1.259-1.146,2.377-2.403,2.984
		c-2.222,1.072-4.893,0.14-5.965-2.082l-6.735-13.912l-12.256,3.672l19.651,32.356c0.458,0.691,0.728,1.517,0.739,2.407
		l0.306,25.041l11.172-1.326l-0.429-27.035C128.707,67.46,128.775,66.851,128.977,66.254L128.977,66.254z"/>
	<path fill="#0A418F" d="M148.884,30.754l-12.692,37.419l0.447,28.142l0.043,2.692c0.024,1.54-1.127,2.826-2.625,3l0.001,0.008
		l-2.667,0.316l-14.146,1.678l-3.283,0.389c-1.636,0.193-3.119-0.977-3.312-2.612c-0.022-0.184-0.026-0.366-0.014-0.545
		l-0.038-3.086l-0.316-25.889L89.962,38.81l-1.998-3.291c-0.85-1.404-0.401-3.232,1.003-4.082c0.221-0.134,0.453-0.235,0.69-0.306
		l-0.002-0.008l3.689-1.105l15.313-4.588l2.425-0.727c1.467-0.437,3.004,0.308,3.592,1.683l1.05,2.169l3.853,7.958l2.197-7.898
		l0.557-2.004c0.341-1.233,1.409-2.069,2.613-2.173l-0.001-0.008l2.055-0.177l15.729-1.359l4.545-0.393
		c1.642-0.141,3.089,1.075,3.23,2.717c0.042,0.489-0.037,0.961-0.211,1.387L148.884,30.754L148.884,30.754z M130.389,66.733
		l12.851-37.891L127.511,30.2l-4.285,15.405c-0.203,0.837-0.765,1.579-1.6,1.982c-1.481,0.715-3.262,0.093-3.977-1.387
		l-7.289-15.056l-15.313,4.588l20.68,34.051c0.305,0.461,0.486,1.012,0.493,1.606l0.326,26.699l14.146-1.678l-0.452-28.484
		C130.209,67.533,130.255,67.128,130.389,66.733L130.389,66.733z"/>
	<path fill-rule="evenodd" clip-rule="evenodd" fill="#FFDD00" d="M85.108,0.287h4.678h0.522l0.2,0.487l7.195,17.477l0.445,1.081
		h-1.167h-4.346h-0.534l-0.194-0.505l-1.135-2.954h-6.155l-1.027,2.933l-0.184,0.527h-0.553h-4.274h-1.126l0.394-1.056l6.53-17.477
		l0.191-0.511H85.108L85.108,0.287z M86.235,11.255h2.744l-1.437-3.723L86.235,11.255L86.235,11.255z M106.036,14.51h7.48h0.784
		v0.784v3.254v0.784h-0.784h-12.348h-0.784v-0.784V1.071V0.287h0.784h4.084h0.784v0.784V14.51L106.036,14.51z M122.95,14.51h7.48
		h0.784v0.784v3.254v0.784h-0.784h-12.348h-0.784v-0.784V1.071V0.287h0.784h4.084h0.784v0.784V14.51L122.95,14.51z"/>
	<path fill-rule="evenodd" clip-rule="evenodd" fill="#FFDD00" d="M66.773,121.194c0,1.155-0.205,2.268-0.616,3.337
		c-0.407,1.061-1.013,2.064-1.815,3.011l-0.003,0.003c-0.422,0.492-0.901,0.93-1.436,1.314c-0.532,0.381-1.124,0.713-1.775,0.994
		c-0.648,0.28-1.329,0.49-2.042,0.63c-0.709,0.139-1.448,0.209-2.213,0.209c-0.697,0-1.375-0.065-2.036-0.196
		c-0.656-0.13-1.297-0.328-1.923-0.592c-0.625-0.264-1.199-0.573-1.72-0.926c-0.529-0.358-1.014-0.766-1.455-1.224l-0.009-0.009
		c-0.875-0.944-1.534-1.964-1.975-3.057c-0.444-1.099-0.665-2.263-0.665-3.493c0-2.321,0.818-4.445,2.455-6.373l0.003-0.003
		c0.42-0.489,0.896-0.928,1.43-1.314c0.531-0.384,1.119-0.719,1.763-1.004c0.638-0.282,1.314-0.495,2.025-0.639
		c0.708-0.143,1.435-0.215,2.178-0.215c0.73,0,1.434,0.068,2.112,0.203c0.675,0.135,1.329,0.339,1.961,0.614
		c0.619,0.269,1.19,0.583,1.711,0.941c0.52,0.358,0.992,0.762,1.415,1.215c0.416,0.444,0.785,0.919,1.107,1.424
		c0.327,0.514,0.604,1.051,0.831,1.611v0.003c0.231,0.573,0.405,1.153,0.52,1.739C66.715,119.988,66.773,120.588,66.773,121.194
		L66.773,121.194z M56.919,116.804c-1.229,0-2.24,0.392-3.032,1.176c-0.383,0.387-0.672,0.846-0.865,1.378
		c-0.2,0.55-0.3,1.187-0.3,1.91c0,0.362,0.024,0.694,0.072,0.994c0.048,0.3,0.121,0.583,0.217,0.848
		c0.094,0.259,0.204,0.496,0.328,0.709c0.118,0.201,0.243,0.373,0.377,0.513c0.155,0.163,0.318,0.312,0.487,0.444
		c0.17,0.133,0.355,0.257,0.554,0.369c0.201,0.113,0.393,0.207,0.576,0.28c0.173,0.069,0.35,0.123,0.53,0.161
		c0.19,0.041,0.375,0.072,0.551,0.091c0.171,0.019,0.347,0.028,0.528,0.028c0.594,0,1.137-0.097,1.629-0.29
		c0.494-0.194,0.943-0.484,1.346-0.871l0.006-0.009c0.826-0.766,1.239-1.848,1.239-3.244c0-0.715-0.098-1.35-0.294-1.904
		c-0.19-0.536-0.473-1.002-0.85-1.398c-0.373-0.392-0.812-0.688-1.316-0.884C58.185,116.906,57.591,116.804,56.919,116.804
		L56.919,116.804z M82.894,111.871h3.895h0.765v0.765V129.7v0.765h-0.765h-3.293h-0.359l-0.23-0.278l-7.387-8.923v8.435v0.765
		h-0.765h-3.918h-0.765V129.7v-17.064v-0.765h0.765h3.594h0.352l0.231,0.275l7.115,8.456v-7.966v-0.765H82.894L82.894,111.871z
		 M97.322,125.758h7.303h0.765v0.765v3.177v0.765h-0.765H92.569h-0.765V129.7v-17.064v-0.765h0.765h3.988h0.765v0.765V125.758
		L97.322,125.758z M109.177,111.871h3.988h0.765v0.765V129.7v0.765h-0.765h-3.988h-0.765V129.7v-17.064v-0.765H109.177
		L109.177,111.871z M131.117,111.871h3.895h0.765v0.765V129.7v0.765h-0.765h-3.292h-0.359l-0.23-0.278l-7.387-8.923v8.435v0.765
		h-0.765h-3.918h-0.765V129.7v-17.064v-0.765h0.765h3.594h0.351l0.231,0.275l7.115,8.456v-7.966v-0.765H131.117L131.117,111.871z
		 M145.591,125.808h6.909h0.765v0.765v3.127v0.765h-0.765h-11.662h-0.765V129.7v-17.064v-0.765h0.765h11.5h0.765v0.765v3.178v0.765
		h-0.765h-6.747v1.922h6.399h0.765v0.765v3.203v0.765h-0.765h-6.399V125.808L145.591,125.808z"/>
</g>
</svg>
